SourceSerifPro-Italic_1.ufo
<glyph name="exclam" format="1">
	<unicode hex="0021"/>
	<advance width="290"/>
	<outline>
		<contour>
			<point x="133" y="197" type="line"/>
			<point x="166" y="197" type="line"/>
			<point x="261" y="512"/>
			<point x="289" y="592"/>
			<point x="289" y="639" type="curve" smooth="yes"/>
			<point x="289" y="669"/>
			<point x="275" y="684"/>
			<point x="245" y="684" type="curve" smooth="yes"/>
			<point x="217" y="684"/>
			<point x="194" y="669"/>
			<point x="182" y="608" type="curve" smooth="yes"/>
			<point x="177" y="580"/>
			<point x="166" y="490"/>
			<point x="152" y="355" type="curve" smooth="yes"/>
		</contour>
		<contour>
			<point x="58" y="46" type="curve" smooth="yes"/>
			<point x="58" y="12"/>
			<point x="83" y="-12"/>
			<point x="114" y="-12" type="curve" smooth="yes"/>
			<point x="151" y="-12"/>
			<point x="184" y="19"/>
			<point x="184" y="56" type="curve" smooth="yes"/>
			<point x="184" y="88"/>
			<point x="162" y="115"/>
			<point x="128" y="115" type="curve" smooth="yes"/>
			<point x="91" y="115"/>
			<point x="58" y="84"/>
		</contour>
	</outline>
</glyph>
<glyph name="numbersign" format="1">
	<unicode hex="0023"/>
	<advance width="524"/>
	<outline>
		<contour>
			<point x="54" y="0" type="line"/>
			<point x="99" y="0" type="line"/>
			<point x="331" y="650" type="line"/>
			<point x="286" y="650" type="line"/>
		</contour>
		<contour>
			<point x="44" y="261" type="line"/>
			<point x="28" y="181" type="line"/>
			<point x="470" y="181" type="line"/>
			<point x="486" y="261" type="line"/>
		</contour>
		<contour>
			<point x="545" y="392" type="line"/>
			<point x="561" y="472" type="line"/>
			<point x="119" y="472" type="line"/>
			<point x="103" y="392" type="line"/>
		</contour>
		<contour>
			<point x="258" y="0" type="line"/>
			<point x="303" y="0" type="line"/>
			<point x="535" y="650" type="line"/>
			<point x="490" y="650" type="line"/>
		</contour>
	</outline>
</glyph>
<glyph name="ampersand" format="1">
	<unicode hex="0026"/>
	<advance width="708"/>
	<outline>
		<contour>
			<point x="44" y="208" type="curve" smooth="yes"/>
			<point x="44" y="93"/>
			<point x="133" y="-13"/>
			<point x="305" y="-13" type="curve" smooth="yes"/>
			<point x="475" y="-13"/>
			<point x="599" y="54"/>
			<point x="599" y="195" type="curve" smooth="yes"/>
			<point x="599" y="264"/>
			<point x="567" y="310"/>
			<point x="519" y="339" type="curve"/>
			<point x="494" y="322" type="line"/>
			<point x="529" y="287"/>
			<point x="553" y="248"/>
			<point x="553" y="189" type="curve" smooth="yes"/>
			<point x="553" y="98"/>
			<point x="469" y="45"/>
			<point x="318" y="45" type="curve" smooth="yes"/>
			<point x="196" y="45"/>
			<point x="118" y="118"/>
			<point x="118" y="235" type="curve" smooth="yes"/>
			<point x="118" y="330"/>
			<point x="158" y="385"/>
			<point x="232" y="431" type="curve"/>
			<point x="212" y="459" type="line"/>
			<point x="108" y="404"/>
			<point x="44" y="336"/>
		</contour>
		<contour>
			<point x="216" y="460" type="curve"/>
			<point x="253" y="436" type="line"/>
			<point x="231" y="466"/>
			<point x="225" y="495"/>
			<point x="225" y="542" type="curve" smooth="yes"/>
			<point x="225" y="632"/>
			<point x="278" y="710"/>
			<point x="387" y="710" type="curve" smooth="yes"/>
			<point x="412" y="710"/>
			<point x="424" y="707"/>
			<point x="443" y="702" type="curve"/>
			<point x="398" y="732" type="line"/>
			<point x="426" y="648" type="line" smooth="yes"/>
			<point x="437" y="614"/>
			<point x="456" y="605"/>
			<point x="475" y="605" type="curve" smooth="yes"/>
			<point x="497" y="605"/>
			<point x="517" y="617"/>
			<point x="521" y="639" type="curve"/>
			<point x="514" y="711"/>
			<point x="450" y="750"/>
			<point x="381" y="750" type="curve" smooth="yes"/>
			<point x="239" y="750"/>
			<point x="160" y="645"/>
			<point x="160" y="541" type="curve" smooth="yes"/>
			<point x="160" y="450"/>
			<point x="211" y="382"/>
			<point x="293" y="382" type="curve" smooth="yes"/>
			<point x="324" y="382"/>
			<point x="360" y="398"/>
			<point x="364" y="435" type="curve"/>
			<point x="359" y="459"/>
			<point x="332" y="472"/>
			<point x="283" y="472" type="curve" smooth="yes"/>
			<point x="252" y="472"/>
			<point x="237" y="468"/>
		</contour>
		<contour>
			<point x="364" y="165" type="curve"/>
			<point x="397" y="165"/>
			<point x="417" y="194"/>
			<point x="417" y="218" type="curve" smooth="yes"/>
			<point x="417" y="232"/>
			<point x="415" y="243"/>
			<point x="405" y="260" type="curve" smooth="yes"/>
			<point x="390" y="288" type="line"/>
			<point x="380" y="263" type="line"/>
			<point x="410" y="281"/>
			<point x="465" y="292"/>
			<point x="533" y="305" type="curve" smooth="yes"/>
			<point x="588" y="318"/>
			<point x="640" y="331"/>
			<point x="672" y="356" type="curve" smooth="yes"/>
			<point x="699" y="377"/>
			<point x="713" y="402"/>
			<point x="713" y="433" type="curve" smooth="yes"/>
			<point x="713" y="470"/>
			<point x="681" y="505"/>
			<point x="653" y="506" type="curve"/>
			<point x="625" y="500"/>
			<point x="611" y="487"/>
			<point x="611" y="459" type="curve" smooth="yes"/>
			<point x="611" y="434"/>
			<point x="626" y="412"/>
			<point x="640" y="398" type="curve" smooth="yes"/>
			<point x="663" y="376" type="line"/>
			<point x="674" y="409" type="line"/>
			<point x="637" y="378"/>
			<point x="582" y="362"/>
			<point x="522" y="348" type="curve" smooth="yes"/>
			<point x="485" y="340"/>
			<point x="449" y="332"/>
			<point x="417" y="323" type="curve" smooth="yes"/>
			<point x="354" y="306"/>
			<point x="323" y="274"/>
			<point x="323" y="232" type="curve" smooth="yes"/>
			<point x="323" y="192"/>
			<point x="340" y="171"/>
		</contour>
	</outline>
</glyph>
<glyph name="quotesingle" format="1">
	<unicode hex="0027"/>
	<advance width="201"/>
	<outline>
		<contour>
			<point x="216" y="736" type="curve" smooth="yes"/>
			<point x="185" y="736"/>
			<point x="166" y="723"/>
			<point x="158" y="680" type="curve" smooth="yes"/>
			<point x="151" y="642"/>
			<point x="150" y="537"/>
			<point x="148" y="504" type="curve" smooth="yes"/>
			<point x="146" y="434" type="line"/>
			<point x="182" y="434" type="line"/>
			<point x="217" y="537"/>
			<point x="258" y="651"/>
			<point x="259" y="690" type="curve" smooth="yes"/>
			<point x="260" y="717"/>
			<point x="243" y="736"/>
		</contour>
	</outline>
</glyph>
<glyph name="parenleft" format="1">
	<unicode hex="0028"/>
	<advance width="393"/>
	<outline>
		<contour>
			<point x="263" y="-199" type="curve"/>
			<point x="291" y="-180" type="line"/>
			<point x="230" y="-53"/>
			<point x="202" y="45"/>
			<point x="205" y="167" type="curve" smooth="yes"/>
			<point x="208" y="390"/>
			<point x="288" y="546"/>
			<point x="448" y="716" type="curve"/>
			<point x="427" y="739" type="line"/>
			<point x="235" y="597"/>
			<point x="129" y="401"/>
			<point x="129" y="170" type="curve" smooth="yes"/>
			<point x="129" y="35"/>
			<point x="173" y="-87"/>
		</contour>
	</outline>
</glyph>
<glyph name="asterisk" format="1">
	<unicode hex="002A"/>
	<advance width="440"/>
	<outline>
		<contour>
			<point x="268" y="745" type="curve" smooth="yes"/>
			<point x="248" y="742"/>
			<point x="236" y="729"/>
			<point x="240" y="705" type="curve" smooth="yes"/>
			<point x="244" y="686"/>
			<point x="257" y="647"/>
			<point x="271" y="604" type="curve" smooth="yes"/>
			<point x="287" y="558" type="line"/>
			<point x="240" y="571" type="line" smooth="yes"/>
			<point x="186" y="586"/>
			<point x="146" y="601"/>
			<point x="123" y="597" type="curve" smooth="yes"/>
			<point x="105" y="593"/>
			<point x="94" y="576"/>
			<point x="98" y="558" type="curve" smooth="yes"/>
			<point x="104" y="522"/>
			<point x="154" y="528"/>
			<point x="234" y="529" type="curve" smooth="yes"/>
			<point x="282" y="529" type="line"/>
			<point x="255" y="488" type="line" smooth="yes"/>
			<point x="219" y="434"/>
			<point x="188" y="401"/>
			<point x="193" y="373" type="curve" smooth="yes"/>
			<point x="196" y="355"/>
			<point x="214" y="346"/>
			<point x="230" y="349" type="curve" smooth="yes"/>
			<point x="261" y="354"/>
			<point x="270" y="401"/>
			<point x="293" y="470" type="curve" smooth="yes"/>
			<point x="308" y="517" type="line"/>
			<point x="338" y="478" type="line" smooth="yes"/>
			<point x="383" y="421"/>
			<point x="407" y="380"/>
			<point x="439" y="385" type="curve" smooth="yes"/>
			<point x="454" y="388"/>
			<point x="468" y="403"/>
			<point x="465" y="421" type="curve" smooth="yes"/>
			<point x="460" y="449"/>
			<point x="420" y="469"/>
			<point x="367" y="508" type="curve" smooth="yes"/>
			<point x="328" y="537" type="line"/>
			<point x="374" y="554" type="line" smooth="yes"/>
			<point x="448" y="580"/>
			<point x="498" y="590"/>
			<point x="492" y="627" type="curve" smooth="yes"/>
			<point x="488" y="646"/>
			<point x="473" y="658"/>
			<point x="455" y="655" type="curve" smooth="yes"/>
			<point x="434" y="652"/>
			<point x="399" y="623"/>
			<point x="354" y="591" type="curve" smooth="yes"/>
			<point x="314" y="562" type="line"/>
			<point x="313" y="611" type="line" smooth="yes"/>
			<point x="311" y="656"/>
			<point x="311" y="699"/>
			<point x="308" y="717" type="curve" smooth="yes"/>
			<point x="304" y="741"/>
			<point x="287" y="749"/>
		</contour>
	</outline>
</glyph>
<glyph name="plus" format="1">
	<unicode hex="002B"/>
	<advance width="510"/>
	<outline>
		<contour>
			<point x="289" y="104" type="line"/>
			<point x="355" y="104" type="line"/>
			<point x="355" y="556" type="line"/>
			<point x="289" y="556" type="line"/>
		</contour>
		<contour>
			<point x="537" y="300" type="line"/>
			<point x="537" y="360" type="line"/>
			<point x="107" y="360" type="line"/>
			<point x="107" y="300" type="line"/>
		</contour>
	</outline>
</glyph>
<glyph name="comma" format="1">
	<unicode hex="002C"/>
	<advance width="300"/>
	<outline>
		<contour>
			<point x="212" y="27" type="curve" smooth="yes"/>
			<point x="212" y="51"/>
			<point x="208" y="74"/>
			<point x="201" y="99" type="curve"/>
			<point x="176" y="122"/>
			<point x="157" y="128"/>
			<point x="139" y="128" type="curve" smooth="yes"/>
			<point x="99" y="128"/>
			<point x="79" y="100"/>
			<point x="79" y="66" type="curve" smooth="yes"/>
			<point x="79" y="42"/>
			<point x="90" y="16"/>
			<point x="116" y="-5" type="curve" smooth="yes"/>
			<point x="164" y="-43" type="line"/>
			<point x="161" y="0" type="line"/>
			<point x="144" y="-97"/>
			<point x="84" y="-153"/>
			<point x="5" y="-192" type="curve"/>
			<point x="19" y="-225" type="line"/>
			<point x="115" y="-189"/>
			<point x="212" y="-93"/>
		</contour>
	</outline>
</glyph>
<glyph name="hyphen" format="1">
	<unicode hex="002D"/>
	<advance width="310"/>
	<outline>
		<contour>
			<point x="40" y="219" type="line"/>
			<point x="270" y="219" type="line"/>
			<point x="270" y="283" type="line"/>
			<point x="40" y="283" type="line"/>
		</contour>
	</outline>
</glyph>
<glyph name="period" format="1">
	<unicode hex="002E"/>
	<advance width="300"/>
	<outline>
		<contour>
			<point x="150" y="-13" type="curve" smooth="yes"/>
			<point x="189" y="-13"/>
			<point x="220" y="19"/>
			<point x="220" y="57" type="curve" smooth="yes"/>
			<point x="220" y="96"/>
			<point x="189" y="128"/>
			<point x="150" y="128" type="curve" smooth="yes"/>
			<point x="111" y="128"/>
			<point x="80" y="96"/>
			<point x="80" y="57" type="curve" smooth="yes"/>
			<point x="80" y="19"/>
			<point x="111" y="-13"/>
		</contour>
	</outline>
</glyph>
<glyph name="slash" format="1">
	<unicode hex="002F"/>
	<advance width="327"/>
	<outline>
		<contour>
			<point x="-69" y="-160" type="line"/>
			<point x="-7" y="-160" type="line"/>
			<point x="438" y="710" type="line"/>
			<point x="376" y="710" type="line"/>
		</contour>
	</outline>
</glyph>
<glyph name="one" format="1">
	<unicode hex="0031"/>
	<advance width="497"/>
	<outline>
		<contour>
			<point x="55" y="0" type="line"/>
			<point x="390" y="0" type="line"/>
			<point x="397" y="35" type="line"/>
			<point x="240" y="55" type="line"/>
			<point x="220" y="55" type="line"/>
			<point x="62" y="35" type="line"/>
		</contour>
		<contour>
			<point x="183" y="0" type="line"/>
			<point x="255" y="0" type="line"/>
			<point x="261" y="45"/>
			<point x="280" y="148"/>
			<point x="291" y="210" type="curve" smooth="yes"/>
			<point x="333" y="437" type="line"/>
			<point x="374" y="657" type="line"/>
			<point x="362" y="667" type="line"/>
			<point x="174" y="614" type="line"/>
			<point x="168" y="577" type="line"/>
			<point x="296" y="591" type="line"/>
			<point x="291" y="601" type="line"/>
		</contour>
	</outline>
</glyph>
<glyph name="four" format="1">
	<unicode hex="0034"/>
	<advance width="497"/>
	<outline>
		<contour>
			<point x="15" y="167" type="line"/>
			<point x="488" y="167" type="line"/>
			<point x="499" y="233" type="line"/>
			<point x="85" y="233" type="line"/>
			<point x="98" y="222" type="line"/>
			<point x="435" y="604" type="line"/>
			<point x="377" y="583" type="line"/>
			<point x="269" y="0" type="line"/>
			<point x="339" y="0" type="line"/>
			<point x="463" y="670" type="line"/>
			<point x="443" y="670" type="line"/>
			<point x="19" y="186" type="line"/>
		</contour>
		<contour>
			<point x="192" y="0" type="line"/>
			<point x="427" y="0" type="line"/>
			<point x="434" y="35" type="line"/>
			<point x="327" y="55" type="line"/>
			<point x="307" y="55" type="line"/>
			<point x="199" y="35" type="line"/>
		</contour>
	</outline>
</glyph>
<glyph name="less" format="1">
	<unicode hex="003C"/>
	<advance width="497"/>
	<outline>
		<contour>
			<point x="87" y="307" type="line"/>
			<point x="496" y="129" type="line"/>
			<point x="519" y="185" type="line"/>
			<point x="141" y="342" type="line"/>
			<point x="141" y="318" type="line"/>
			<point x="519" y="475" type="line"/>
			<point x="496" y="531" type="line"/>
			<point x="87" y="353" type="line"/>
		</contour>
	</outline>
</glyph>
<glyph name="question" format="1">
	<unicode hex="003F"/>
	<advance width="444"/>
	<outline>
		<contour>
			<point x="61" y="45" type="curve" smooth="yes"/>
			<point x="61" y="11"/>
			<point x="86" y="-13"/>
			<point x="121" y="-13" type="curve" smooth="yes"/>
			<point x="154" y="-13"/>
			<point x="187" y="18"/>
			<point x="187" y="55" type="curve" smooth="yes"/>
			<point x="187" y="87"/>
			<point x="165" y="114"/>
			<point x="129" y="114" type="curve" smooth="yes"/>
			<point x="94" y="114"/>
			<point x="61" y="83"/>
		</contour>
		<contour>
			<point x="121" y="183" type="curve"/>
			<point x="152" y="180" type="line"/>
			<point x="162" y="262"/>
			<point x="175" y="289"/>
			<point x="200" y="314" type="curve" smooth="yes"/>
			<point x="214" y="328"/>
			<point x="244" y="341"/>
			<point x="331" y="392" type="curve" smooth="yes"/>
			<point x="436" y="454"/>
			<point x="475" y="491"/>
			<point x="475" y="569" type="curve" smooth="yes"/>
			<point x="475" y="643"/>
			<point x="412" y="685"/>
			<point x="323" y="685" type="curve" smooth="yes"/>
			<point x="246" y="685"/>
			<point x="207" y="654"/>
			<point x="199" y="618" type="curve"/>
			<point x="199" y="599"/>
			<point x="214" y="579"/>
			<point x="236" y="579" type="curve" smooth="yes"/>
			<point x="261" y="579"/>
			<point x="279" y="587"/>
			<point x="290" y="613" type="curve" smooth="yes"/>
			<point x="314" y="671" type="line"/>
			<point x="247" y="648" type="line"/>
			<point x="265" y="650"/>
			<point x="283" y="653"/>
			<point x="300" y="653" type="curve" smooth="yes"/>
			<point x="398" y="655"/>
			<point x="427" y="619"/>
			<point x="427" y="584" type="curve" smooth="yes"/>
			<point x="427" y="545"/>
			<point x="405" y="508"/>
			<point x="312" y="456" type="curve" smooth="yes"/>
			<point x="210" y="399"/>
			<point x="186" y="383"/>
			<point x="165" y="362" type="curve" smooth="yes"/>
			<point x="135" y="332"/>
			<point x="125" y="287"/>
		</contour>
	</outline>
</glyph>
<glyph name="at" format="1">
	<unicode hex="0040"/>
	<advance width="747"/>
	<outline>
		<contour>
			<point x="49" y="163" type="curve" smooth="yes"/>
			<point x="49" y="-45"/>
			<point x="189" y="-155"/>
			<point x="371" y="-155" type="curve" smooth="yes"/>
			<point x="440" y="-155"/>
			<point x="504" y="-139"/>
			<point x="565" y="-104" type="curve"/>
			<point x="551" y="-75" type="line"/>
			<point x="505" y="-100"/>
			<point x="452" y="-115"/>
			<point x="384" y="-115" type="curve" smooth="yes"/>
			<point x="234" y="-115"/>
			<point x="110" y="-5"/>
			<point x="110" y="183" type="curve" smooth="yes"/>
			<point x="110" y="457"/>
			<point x="301" y="606"/>
			<point x="497" y="606" type="curve" smooth="yes"/>
			<point x="641" y="606"/>
			<point x="751" y="513"/>
			<point x="751" y="366" type="curve" smooth="yes"/>
			<point x="751" y="174"/>
			<point x="665" y="108"/>
			<point x="586" y="108" type="curve" smooth="yes"/>
			<point x="542" y="108"/>
			<point x="524" y="124"/>
			<point x="533" y="166" type="curve" smooth="yes"/>
			<point x="584" y="420" type="line"/>
			<point x="561" y="434" type="line"/>
			<point x="519" y="413" type="line"/>
			<point x="469" y="146" type="line" smooth="yes"/>
			<point x="458" y="90"/>
			<point x="496" y="61"/>
			<point x="558" y="61" type="curve" smooth="yes"/>
			<point x="666" y="61"/>
			<point x="807" y="153"/>
			<point x="807" y="360" type="curve" smooth="yes"/>
			<point x="807" y="530"/>
			<point x="702" y="646"/>
			<point x="506" y="646" type="curve" smooth="yes"/>
			<point x="271" y="646"/>
			<point x="49" y="451"/>
		</contour>
		<contour>
			<point x="362" y="61" type="curve" smooth="yes"/>
			<point x="424" y="61"/>
			<point x="471" y="113"/>
			<point x="518" y="174" type="curve"/>
			<point x="514" y="195" type="line"/>
			<point x="450" y="134"/>
			<point x="422" y="114"/>
			<point x="389" y="114" type="curve" smooth="yes"/>
			<point x="349" y="114"/>
			<point x="330" y="140"/>
			<point x="330" y="192" type="curve" smooth="yes"/>
			<point x="330" y="256"/>
			<point x="349" y="308"/>
			<point x="375" y="343" type="curve" smooth="yes"/>
			<point x="401" y="377"/>
			<point x="434" y="392"/>
			<point x="461" y="392" type="curve" smooth="yes"/>
			<point x="485" y="392"/>
			<point x="509" y="378"/>
			<point x="528" y="334" type="curve"/>
			<point x="563" y="383" type="line"/>
			<point x="530" y="422"/>
			<point x="507" y="434"/>
			<point x="476" y="434" type="curve" smooth="yes"/>
			<point x="423" y="434"/>
			<point x="377" y="407"/>
			<point x="343" y="365" type="curve" smooth="yes"/>
			<point x="298" y="313"/>
			<point x="267" y="246"/>
			<point x="267" y="176" type="curve" smooth="yes"/>
			<point x="267" y="94"/>
			<point x="315" y="61"/>
		</contour>
	</outline>
</glyph>
<glyph name="A" format="1">
	<unicode hex="0041"/>
	<advance width="676"/>
	<outline>
		<contour>
			<point x="-29" y="0" type="line"/>
			<point x="195" y="0" type="line"/>
			<point x="203" y="40" type="line"/>
			<point x="104" y="55" type="line"/>
			<point x="86" y="55" type="line"/>
			<point x="-21" y="40" type="line"/>
		</contour>
		<contour>
			<point x="33" y="0" type="line"/>
			<point x="88" y="0" type="line"/>
			<point x="403" y="595" type="line"/>
			<point x="389" y="595" type="line"/>
			<point x="469" y="0" type="line"/>
			<point x="469" y="0"/>
			<point x="557" y="0"/>
			<point x="557" y="0" type="curve"/>
			<point x="463" y="670" type="line"/>
			<point x="463" y="670"/>
			<point x="406" y="670"/>
			<point x="406" y="670" type="curve"/>
		</contour>
		<contour>
			<point x="195" y="244" type="line"/>
			<point x="481" y="244" type="line"/>
			<point x="494" y="290" type="line"/>
			<point x="209" y="290" type="line"/>
		</contour>
		<contour>
			<point x="367" y="0" type="line"/>
			<point x="631" y="0" type="line"/>
			<point x="639" y="40" type="line"/>
			<point x="520" y="55" type="line"/>
			<point x="502" y="55" type="line"/>
			<point x="375" y="40" type="line"/>
		</contour>
		<contour>
			<point name="aboveUC" x="415" y="691" type="move"/>
		</contour>
		<contour>
			<point name="belowLC" x="271" y="-22" type="move"/>
		</contour>
		<contour>
			<point name="ogonek" x="523" y="0" type="move"/>
		</contour>
	</outline>
</glyph>
<glyph name="B" format="1">
	<unicode hex="0042"/>
	<advance width="624"/>
	<outline>
		<contour>
			<point x="16" y="0" type="line"/>
			<point x="142" y="0" type="line"/>
			<point x="152" y="55" type="line"/>
			<point x="146" y="55" type="line"/>
			<point x="24" y="40" type="line"/>
		</contour>
		<contour>
			<point x="101" y="0" type="line"/>
			<point x="189" y="0" type="line"/>
			<point x="205" y="103"/>
			<point x="223" y="207"/>
			<point x="242" y="310" type="curve" smooth="yes"/>
			<point x="310" y="670" type="line"/>
			<point x="222" y="670" type="line"/>
			<point x="206" y="567"/>
			<point x="188" y="463"/>
			<point x="169" y="360" type="curve" smooth="yes"/>
		</contour>
		<contour>
			<point x="122" y="630" type="line"/>
			<point x="243" y="615" type="line"/>
			<point x="255" y="615" type="line"/>
			<point x="266" y="670" type="line"/>
			<point x="130" y="670" type="line"/>
		</contour>
		<contour>
			<point x="142" y="0" type="line"/>
			<point x="293" y="0" type="line" smooth="yes"/>
			<point x="454" y="0"/>
			<point x="569" y="71"/>
			<point x="569" y="186" type="curve" smooth="yes"/>
			<point x="569" y="280"/>
			<point x="490" y="360"/>
			<point x="348" y="360" type="curve"/>
			<point x="329" y="341" type="line"/>
			<point x="463" y="341"/>
			<point x="578" y="415"/>
			<point x="578" y="524" type="curve" smooth="yes"/>
			<point x="578" y="606"/>
			<point x="517" y="670"/>
			<point x="385" y="670" type="curve" smooth="yes"/>
			<point x="266" y="670" type="line"/>
			<point x="258" y="624" type="line"/>
			<point x="372" y="624" type="line" smooth="yes"/>
			<point x="454" y="624"/>
			<point x="493" y="576"/>
			<point x="493" y="510" type="curve" smooth="yes"/>
			<point x="493" y="433"/>
			<point x="438" y="373"/>
			<point x="310" y="373" type="curve" smooth="yes"/>
			<point x="210" y="373" type="line"/>
			<point x="202" y="327" type="line"/>
			<point x="320" y="327" type="line" smooth="yes"/>
			<point x="411" y="327"/>
			<point x="478" y="281"/>
			<point x="478" y="199" type="curve" smooth="yes"/>
			<point x="478" y="114"/>
			<point x="425" y="46"/>
			<point x="283" y="46" type="curve" smooth="yes"/>
			<point x="151" y="46" type="line"/>
		</contour>
		<contour>
			<point name="aboveUC" x="372" y="691" type="move"/>
		</contour>
		<contour>
			<point name="belowLC" x="285" y="-22" type="move"/>
		</contour>
	</outline>
</glyph>
<glyph name="C" format="1">
	<unicode hex="0043"/>
	<advance width="593"/>
	<outline>
		<contour>
			<point x="330" y="-15" type="curve" smooth="yes"/>
			<point x="415" y="-15"/>
			<point x="471" y="7"/>
			<point x="524" y="30" type="curve"/>
			<point x="552" y="175" type="line"/>
			<point x="493" y="175" type="line"/>
			<point x="445" y="30" type="line"/>
			<point x="501" y="71" type="line"/>
			<point x="459" y="50"/>
			<point x="412" y="35"/>
			<point x="363" y="35" type="curve" smooth="yes"/>
			<point x="247" y="35"/>
			<point x="148" y="116"/>
			<point x="148" y="285" type="curve" smooth="yes"/>
			<point x="148" y="475"/>
			<point x="269" y="635"/>
			<point x="430" y="635" type="curve" smooth="yes"/>
			<point x="479" y="635"/>
			<point x="535" y="620"/>
			<point x="570" y="592" type="curve"/>
			<point x="529" y="632" type="line"/>
			<point x="529" y="493" type="line"/>
			<point x="585" y="493" type="line"/>
			<point x="608" y="632" type="line"/>
			<point x="546" y="672"/>
			<point x="493" y="685"/>
			<point x="440" y="685" type="curve" smooth="yes"/>
			<point x="232" y="685"/>
			<point x="58" y="502"/>
			<point x="58" y="281" type="curve" smooth="yes"/>
			<point x="58" y="104"/>
			<point x="163" y="-15"/>
		</contour>
		<contour>
			<point name="aboveUC" x="465" y="691" type="move"/>
		</contour>
		<contour>
			<point name="belowLC" x="337" y="-22" type="move"/>
		</contour>
		<contour>
			<point name="baseLC" x="342" y="0" type="move"/>
		</contour>
	</outline>
</glyph>
<glyph name="D" format="1">
	<unicode hex="0044"/>
	<advance width="701"/>
	<outline>
		<contour>
			<point x="16" y="0" type="line"/>
			<point x="142" y="0" type="line"/>
			<point x="152" y="55" type="line"/>
			<point x="146" y="55" type="line"/>
			<point x="24" y="40" type="line"/>
		</contour>
		<contour>
			<point x="101" y="0" type="line"/>
			<point x="189" y="0" type="line"/>
			<point x="205" y="103"/>
			<point x="223" y="207"/>
			<point x="242" y="310" type="curve" smooth="yes"/>
			<point x="310" y="670" type="line"/>
			<point x="222" y="670" type="line"/>
			<point x="206" y="567"/>
			<point x="188" y="463"/>
			<point x="169" y="360" type="curve" smooth="yes"/>
		</contour>
		<contour>
			<point x="122" y="630" type="line"/>
			<point x="243" y="615" type="line"/>
			<point x="258" y="615" type="line"/>
			<point x="269" y="670" type="line"/>
			<point x="130" y="670" type="line"/>
		</contour>
		<contour>
			<point x="142" y="0" type="line"/>
			<point x="290" y="0" type="line" smooth="yes"/>
			<point x="493" y="0"/>
			<point x="684" y="129"/>
			<point x="685" y="394" type="curve" smooth="yes"/>
			<point x="685" y="566"/>
			<point x="575" y="670"/>
			<point x="404" y="670" type="curve" smooth="yes"/>
			<point x="269" y="670" type="line"/>
			<point x="260" y="624" type="line"/>
			<point x="364" y="624" type="line" smooth="yes"/>
			<point x="506" y="624"/>
			<point x="593" y="544"/>
			<point x="592" y="394" type="curve" smooth="yes"/>
			<point x="591" y="229"/>
			<point x="497" y="46"/>
			<point x="305" y="46" type="curve" smooth="yes"/>
			<point x="151" y="46" type="line"/>
		</contour>
	</outline>
</glyph>
<glyph name="E" format="1">
	<unicode hex="0045"/>
	<advance width="587"/>
	<outline>
		<contour>
			<point x="16" y="0" type="line"/>
			<point x="142" y="0" type="line"/>
			<point x="152" y="55" type="line"/>
			<point x="146" y="55" type="line"/>
			<point x="24" y="40" type="line"/>
		</contour>
		<contour>
			<point x="101" y="0" type="line"/>
			<point x="189" y="0" type="line"/>
			<point x="205" y="103"/>
			<point x="223" y="207"/>
			<point x="242" y="310" type="curve" smooth="yes"/>
			<point x="310" y="670" type="line"/>
			<point x="222" y="670" type="line"/>
			<point x="206" y="567"/>
			<point x="188" y="463"/>
			<point x="169" y="360" type="curve" smooth="yes"/>
		</contour>
		<contour>
			<point x="122" y="630" type="line"/>
			<point x="243" y="615" type="line"/>
			<point x="255" y="615" type="line"/>
			<point x="266" y="670" type="line"/>
			<point x="130" y="670" type="line"/>
		</contour>
		<contour>
			<point x="142" y="0" type="line"/>
			<point x="515" y="0" type="line"/>
			<point x="554" y="178" type="line"/>
			<point x="504" y="178" type="line"/>
			<point x="441" y="0" type="line"/>
			<point x="496" y="50" type="line"/>
			<point x="152" y="50" type="line"/>
		</contour>
		<contour>
			<point x="204" y="319" type="line"/>
			<point x="429" y="319" type="line"/>
			<point x="437" y="365" type="line"/>
			<point x="213" y="365" type="line"/>
		</contour>
		<contour>
			<point x="256" y="620" type="line"/>
			<point x="550" y="620" type="line"/>
			<point x="518" y="670" type="line"/>
			<point x="518" y="492" type="line"/>
			<point x="568" y="492" type="line"/>
			<point x="592" y="670" type="line"/>
			<point x="266" y="670" type="line"/>
		</contour>
		<contour>
			<point x="397" y="224" type="line"/>
			<point x="439" y="224" type="line"/>
			<point x="484" y="461" type="line"/>
			<point x="442" y="461" type="line"/>
			<point x="404" y="355" type="line"/>
			<point x="401" y="335" type="line"/>
		</contour>
		<contour>
			<point name="aboveUC" x="421" y="691" type="move"/>
		</contour>
		<contour>
			<point name="belowLC" x="311" y="-22" type="move"/>
		</contour>
		<contour>
			<point name="ogonek" x="445" y="0" type="move"/>
		</contour>
	</outline>
</glyph>
<glyph name="F" format="1">
	<unicode hex="0046"/>
	<advance width="550"/>
	<outline>
		<contour>
			<point x="16" y="0" type="line"/>
			<point x="285" y="0" type="line"/>
			<point x="293" y="40" type="line"/>
			<point x="169" y="55" type="line"/>
			<point x="151" y="55" type="line"/>
			<point x="24" y="40" type="line"/>
		</contour>
		<contour>
			<point x="101" y="0" type="line"/>
			<point x="189" y="0" type="line"/>
			<point x="205" y="103"/>
			<point x="223" y="207"/>
			<point x="242" y="310" type="curve" smooth="yes"/>
			<point x="310" y="670" type="line"/>
			<point x="222" y="670" type="line"/>
			<point x="206" y="567"/>
			<point x="188" y="463"/>
			<point x="169" y="360" type="curve" smooth="yes"/>
		</contour>
		<contour>
			<point x="122" y="630" type="line"/>
			<point x="243" y="615" type="line"/>
			<point x="255" y="615" type="line"/>
			<point x="266" y="670" type="line"/>
			<point x="130" y="670" type="line"/>
		</contour>
		<contour>
			<point x="204" y="319" type="line"/>
			<point x="429" y="319" type="line"/>
			<point x="437" y="365" type="line"/>
			<point x="213" y="365" type="line"/>
		</contour>
		<contour>
			<point x="256" y="620" type="line"/>
			<point x="562" y="620" type="line"/>
			<point x="526" y="670" type="line"/>
			<point x="526" y="492" type="line"/>
			<point x="576" y="492" type="line"/>
			<point x="605" y="670" type="line"/>
			<point x="266" y="670" type="line"/>
		</contour>
		<contour>
			<point x="397" y="214" type="line"/>
			<point x="439" y="214" type="line"/>
			<point x="483" y="461" type="line"/>
			<point x="441" y="461" type="line"/>
			<point x="404" y="355" type="line"/>
			<point x="401" y="335" type="line"/>
		</contour>
	</outline>
</glyph>
<glyph name="G" format="1">
	<unicode hex="0047"/>
	<advance width="655"/>
	<outline>
		<contour>
			<point x="58" y="277" type="curve" smooth="yes"/>
			<point x="58" y="104"/>
			<point x="167" y="-15"/>
			<point x="347" y="-15" type="curve" smooth="yes"/>
			<point x="422" y="-15"/>
			<point x="483" y="2"/>
			<point x="545" y="30" type="curve"/>
			<point x="598" y="318" type="line"/>
			<point x="510" y="318" type="line"/>
			<point x="498" y="243"/>
			<point x="486" y="166"/>
			<point x="472" y="90" type="curve" smooth="yes"/>
			<point x="461" y="31" type="line"/>
			<point x="514" y="65" type="line"/>
			<point x="468" y="46"/>
			<point x="422" y="35"/>
			<point x="373" y="35" type="curve" smooth="yes"/>
			<point x="258" y="35"/>
			<point x="148" y="121"/>
			<point x="148" y="283" type="curve" smooth="yes"/>
			<point x="148" y="475"/>
			<point x="264" y="635"/>
			<point x="440" y="635" type="curve" smooth="yes"/>
			<point x="493" y="635"/>
			<point x="553" y="621"/>
			<point x="590" y="592" type="curve"/>
			<point x="549" y="632" type="line"/>
			<point x="549" y="493" type="line"/>
			<point x="605" y="493" type="line"/>
			<point x="628" y="632" type="line"/>
			<point x="564" y="674"/>
			<point x="514" y="685"/>
			<point x="440" y="685" type="curve" smooth="yes"/>
			<point x="236" y="685"/>
			<point x="58" y="513"/>
		</contour>
		<contour>
			<point x="402" y="278" type="line"/>
			<point x="523" y="263" type="line"/>
			<point x="542" y="263" type="line"/>
			<point x="661" y="278" type="line"/>
			<point x="668" y="318" type="line"/>
			<point x="409" y="318" type="line"/>
		</contour>
	</outline>
</glyph>
<glyph name="H" format="1">
	<unicode hex="0048"/>
	<advance width="764"/>
	<outline>
		<contour>
			<point x="17" y="0" type="line"/>
			<point x="281" y="0" type="line"/>
			<point x="289" y="40" type="line"/>
			<point x="170" y="55" type="line"/>
			<point x="152" y="55" type="line"/>
			<point x="25" y="40" type="line"/>
		</contour>
		<contour>
			<point x="101" y="0" type="line"/>
			<point x="189" y="0" type="line"/>
			<point x="205" y="103"/>
			<point x="223" y="207"/>
			<point x="242" y="310" type="curve" smooth="yes"/>
			<point x="310" y="670" type="line"/>
			<point x="223" y="670" type="line"/>
			<point x="207" y="567"/>
			<point x="188" y="463"/>
			<point x="169" y="360" type="curve" smooth="yes"/>
		</contour>
		<contour>
			<point x="122" y="630" type="line"/>
			<point x="243" y="615" type="line"/>
			<point x="262" y="615" type="line"/>
			<point x="386" y="630" type="line"/>
			<point x="394" y="670" type="line"/>
			<point x="130" y="670" type="line"/>
		</contour>
		<contour>
			<point x="194" y="320" type="line"/>
			<point x="608" y="320" type="line"/>
			<point x="616" y="366" type="line"/>
			<point x="204" y="366" type="line"/>
		</contour>
		<contour>
			<point x="423" y="0" type="line"/>
			<point x="687" y="0" type="line"/>
			<point x="695" y="40" type="line"/>
			<point x="576" y="55" type="line"/>
			<point x="558" y="55" type="line"/>
			<point x="431" y="40" type="line"/>
		</contour>
		<contour>
			<point x="507" y="0" type="line"/>
			<point x="595" y="0" type="line"/>
			<point x="611" y="103"/>
			<point x="629" y="207"/>
			<point x="648" y="310" type="curve" smooth="yes"/>
			<point x="716" y="670" type="line"/>
			<point x="628" y="670" type="line"/>
			<point x="612" y="567"/>
			<point x="594" y="463"/>
			<point x="575" y="360" type="curve" smooth="yes"/>
		</contour>
		<contour>
			<point x="528" y="630" type="line"/>
			<point x="649" y="615" type="line"/>
			<point x="668" y="615" type="line"/>
			<point x="792" y="630" type="line"/>
			<point x="800" y="670" type="line"/>
			<point x="536" y="670" type="line"/>
		</contour>
	</outline>
	<note>
		skew 10 scale 120
	</note>
</glyph>
<glyph name="J" format="1">
	<unicode hex="004A"/>
	<advance width="410"/>
	<outline>
		<contour>
			<point x="-33" y="7" type="curve"/>
			<point x="-28" y="-28"/>
			<point x="12" y="-44"/>
			<point x="58" y="-44" type="curve" smooth="yes"/>
			<point x="128" y="-44"/>
			<point x="217" y="5"/>
			<point x="258" y="101" type="curve" smooth="yes"/>
			<point x="275" y="139"/>
			<point x="288" y="187"/>
			<point x="300" y="261" type="curve" smooth="yes"/>
			<point x="368" y="670" type="line"/>
			<point x="280" y="670" type="line"/>
			<point x="266" y="567"/>
			<point x="250" y="463"/>
			<point x="234" y="360" type="curve" smooth="yes"/>
			<point x="214" y="234"/>
			<point x="208" y="187"/>
			<point x="199" y="140" type="curve" smooth="yes"/>
			<point x="183" y="62"/>
			<point x="145" y="17"/>
			<point x="91" y="-9" type="curve"/>
			<point x="123" y="-2" type="line"/>
			<point x="100" y="22" type="line" smooth="yes"/>
			<point x="77" y="43"/>
			<point x="57" y="52"/>
			<point x="34" y="52" type="curve" smooth="yes"/>
			<point x="2" y="52"/>
			<point x="-25" y="37"/>
		</contour>
		<contour>
			<point x="177" y="630" type="line"/>
			<point x="303" y="615" type="line"/>
			<point x="322" y="615" type="line"/>
			<point x="451" y="630" type="line"/>
			<point x="459" y="670" type="line"/>
			<point x="185" y="670" type="line"/>
		</contour>
	</outline>
</glyph>
<glyph name="K" format="1">
	<unicode hex="004B"/>
	<advance width="663"/>
	<outline>
		<contour>
			<point x="16" y="0" type="line"/>
			<point x="280" y="0" type="line"/>
			<point x="288" y="40" type="line"/>
			<point x="169" y="55" type="line"/>
			<point x="151" y="55" type="line"/>
			<point x="24" y="40" type="line"/>
		</contour>
		<contour>
			<point x="101" y="0" type="line"/>
			<point x="189" y="0" type="line"/>
			<point x="205" y="103"/>
			<point x="223" y="207"/>
			<point x="242" y="310" type="curve" smooth="yes"/>
			<point x="310" y="670" type="line"/>
			<point x="222" y="670" type="line"/>
			<point x="206" y="567"/>
			<point x="188" y="463"/>
			<point x="169" y="360" type="curve" smooth="yes"/>
		</contour>
		<contour>
			<point x="122" y="630" type="line"/>
			<point x="243" y="615" type="line"/>
			<point x="262" y="615" type="line"/>
			<point x="386" y="630" type="line"/>
			<point x="394" y="670" type="line"/>
			<point x="130" y="670" type="line"/>
		</contour>
		<contour>
			<point x="179" y="226" type="line"/>
			<point x="664" y="670" type="line"/>
			<point x="604" y="670" type="line"/>
			<point x="187" y="285" type="line"/>
		</contour>
		<contour>
			<point x="505" y="0" type="line"/>
			<point x="596" y="0" type="line"/>
			<point x="369" y="423" type="line"/>
			<point x="311" y="365" type="line"/>
		</contour>
		<contour>
			<point x="396" y="0" type="line"/>
			<point x="646" y="0" type="line"/>
			<point x="651" y="40" type="line"/>
			<point x="539" y="55" type="line"/>
			<point x="520" y="55" type="line"/>
			<point x="401" y="40" type="line"/>
		</contour>
		<contour>
			<point x="484" y="630" type="line"/>
			<point x="572" y="615" type="line"/>
			<point x="591" y="615" type="line"/>
			<point x="704" y="630" type="line"/>
			<point x="712" y="670" type="line"/>
			<point x="492" y="670" type="line"/>
		</contour>
	</outline>
</glyph>
<glyph name="L" format="1">
	<unicode hex="004C"/>
	<advance width="568"/>
	<outline>
		<contour>
			<point x="16" y="0" type="line"/>
			<point x="142" y="0" type="line"/>
			<point x="152" y="55" type="line"/>
			<point x="144" y="55" type="line"/>
			<point x="24" y="40" type="line"/>
		</contour>
		<contour>
			<point x="101" y="0" type="line"/>
			<point x="189" y="0" type="line"/>
			<point x="205" y="103"/>
			<point x="223" y="207"/>
			<point x="242" y="310" type="curve" smooth="yes"/>
			<point x="310" y="670" type="line"/>
			<point x="222" y="670" type="line"/>
			<point x="206" y="567"/>
			<point x="188" y="463"/>
			<point x="169" y="360" type="curve" smooth="yes"/>
		</contour>
		<contour>
			<point x="122" y="630" type="line"/>
			<point x="243" y="615" type="line"/>
			<point x="272" y="615" type="line"/>
			<point x="396" y="630" type="line"/>
			<point x="404" y="670" type="line"/>
			<point x="130" y="670" type="line"/>
		</contour>
		<contour>
			<point x="142" y="0" type="line"/>
			<point x="521" y="0" type="line"/>
			<point x="557" y="188" type="line"/>
			<point x="502" y="188" type="line"/>
			<point x="436" y="0" type="line"/>
			<point x="498" y="50" type="line"/>
			<point x="151" y="50" type="line"/>
		</contour>
	</outline>
</glyph>
<glyph name="M" format="1">
	<unicode hex="004D"/>
	<advance width="928"/>
	<outline>
		<contour>
			<point x="-7" y="0" type="line"/>
			<point x="223" y="0" type="line"/>
			<point x="231" y="40" type="line"/>
			<point x="123" y="55" type="line"/>
			<point x="103" y="55" type="line"/>
			<point x="1" y="40" type="line"/>
		</contour>
		<contour>
			<point x="80" y="0" type="line"/>
			<point x="127" y="0" type="line"/>
			<point x="279" y="644" type="line"/>
			<point x="232" y="644" type="line"/>
		</contour>
		<contour>
			<point x="392" y="1" type="line"/>
			<point x="421" y="1" type="line"/>
			<point x="812" y="670" type="line"/>
			<point x="812" y="670"/>
			<point x="768" y="670"/>
			<point x="768" y="670" type="curve"/>
			<point x="425" y="89" type="line"/>
			<point x="453" y="103" type="line"/>
			<point x="332" y="670" type="line"/>
			<point x="148" y="670" type="line"/>
			<point x="140" y="630" type="line"/>
			<point x="276" y="614" type="line"/>
			<point x="241" y="657" type="line"/>
		</contour>
		<contour>
			<point x="593" y="0" type="line"/>
			<point x="851" y="0" type="line"/>
			<point x="856" y="42" type="line"/>
			<point x="738" y="57" type="line"/>
			<point x="720" y="57" type="line"/>
			<point x="598" y="42" type="line"/>
		</contour>
		<contour>
			<point x="672" y="0" type="line"/>
			<point x="760" y="0" type="line"/>
			<point x="772" y="103"/>
			<point x="786" y="209"/>
			<point x="800" y="312" type="curve" smooth="yes"/>
			<point x="852" y="670" type="line"/>
			<point x="786" y="670" type="line"/>
			<point x="766" y="639" type="line"/>
		</contour>
		<contour>
			<point x="801" y="615" type="line"/>
			<point x="819" y="615" type="line"/>
			<point x="939" y="630" type="line"/>
			<point x="943" y="670" type="line"/>
			<point x="801" y="670" type="line"/>
		</contour>
		<contour>
			<point name="aboveUC" x="542" y="671" type="move"/>
		</contour>
		<contour>
			<point name="belowLC" x="405" y="-22" type="move"/>
		</contour>
	</outline>
</glyph>
<glyph name="N" format="1">
	<unicode hex="004E"/>
	<advance width="755"/>
	<outline>
		<contour>
			<point x="10" y="0" type="line"/>
			<point x="242" y="0" type="line"/>
			<point x="248" y="40" type="line"/>
			<point x="136" y="55" type="line"/>
			<point x="117" y="55" type="line"/>
			<point x="18" y="40" type="line"/>
		</contour>
		<contour>
			<point x="90" y="0" type="line"/>
			<point x="90" y="0"/>
			<point x="138" y="0"/>
			<point x="138" y="0" type="curve"/>
			<point x="265" y="670" type="line"/>
			<point x="217" y="670" type="line"/>
		</contour>
		<contour>
			<point x="559" y="-10" type="line"/>
			<point x="589" y="-10" type="line"/>
			<point x="604" y="83" type="line"/>
			<point x="277" y="670" type="line"/>
			<point x="133" y="670" type="line"/>
			<point x="125" y="630" type="line"/>
			<point x="244" y="615" type="line"/>
			<point x="191" y="639" type="line"/>
		</contour>
		<contour>
			<point x="549" y="630" type="line"/>
			<point x="671" y="615" type="line"/>
			<point x="690" y="615" type="line"/>
			<point x="785" y="630" type="line"/>
			<point x="793" y="670" type="line"/>
			<point x="557" y="670" type="line"/>
		</contour>
		<contour>
			<point x="589" y="-10" type="line"/>
			<point x="715" y="670" type="line"/>
			<point x="715" y="670"/>
			<point x="666" y="670"/>
			<point x="666" y="670" type="curve"/>
			<point x="555" y="67" type="line"/>
		</contour>
		<contour>
			<point name="aboveUC" x="431" y="691" type="move"/>
		</contour>
		<contour>
			<point name="belowLC" x="352" y="-22" type="move"/>
		</contour>
	</outline>
</glyph>
<glyph name="O" format="1">
	<unicode hex="004F"/>
	<advance width="660"/>
	<outline>
		<contour>
			<point x="293" y="-15" type="curve" smooth="yes"/>
			<point x="491" y="-15"/>
			<point x="647" y="194"/>
			<point x="647" y="407" type="curve" smooth="yes"/>
			<point x="647" y="574"/>
			<point x="551" y="685"/>
			<point x="416" y="685" type="curve" smooth="yes"/>
			<point x="218" y="685"/>
			<point x="65" y="473"/>
			<point x="65" y="262" type="curve" smooth="yes"/>
			<point x="65" y="94"/>
			<point x="159" y="-15"/>
		</contour>
		<contour>
			<point x="305" y="35" type="curve" smooth="yes"/>
			<point x="212" y="35"/>
			<point x="152" y="128"/>
			<point x="152" y="262" type="curve" smooth="yes"/>
			<point x="152" y="459"/>
			<point x="276" y="635"/>
			<point x="406" y="635" type="curve" smooth="yes"/>
			<point x="503" y="635"/>
			<point x="560" y="542"/>
			<point x="560" y="407" type="curve" smooth="yes"/>
			<point x="560" y="208"/>
			<point x="436" y="35"/>
		</contour>
		<contour>
			<point name="aboveUC" x="413" y="691" type="move"/>
		</contour>
		<contour>
			<point name="belowLC" x="282" y="-22" type="move"/>
		</contour>
		<contour>
			<point name="ogonek" x="376" y="0" type="move"/>
		</contour>
		<contour>
			<point name="hornLC" x="592" y="658" type="move"/>
		</contour>
	</outline>
</glyph>
<glyph name="P" format="1">
	<unicode hex="0050"/>
	<advance width="562"/>
	<outline>
		<contour>
			<point x="16" y="0" type="line"/>
			<point x="285" y="0" type="line"/>
			<point x="293" y="40" type="line"/>
			<point x="169" y="55" type="line"/>
			<point x="151" y="55" type="line"/>
			<point x="24" y="40" type="line"/>
		</contour>
		<contour>
			<point x="101" y="0" type="line"/>
			<point x="189" y="0" type="line"/>
			<point x="205" y="103"/>
			<point x="223" y="207"/>
			<point x="242" y="310" type="curve" smooth="yes"/>
			<point x="310" y="670" type="line"/>
			<point x="222" y="670" type="line"/>
			<point x="206" y="567"/>
			<point x="188" y="463"/>
			<point x="169" y="360" type="curve" smooth="yes"/>
		</contour>
		<contour>
			<point x="122" y="630" type="line"/>
			<point x="243" y="615" type="line"/>
			<point x="258" y="615" type="line"/>
			<point x="269" y="670" type="line"/>
			<point x="130" y="670" type="line"/>
		</contour>
		<contour>
			<point x="188" y="260" type="line"/>
			<point x="303" y="260" type="line" smooth="yes"/>
			<point x="483" y="260"/>
			<point x="584" y="359"/>
			<point x="584" y="495" type="curve" smooth="yes"/>
			<point x="584" y="598"/>
			<point x="509" y="670"/>
			<point x="358" y="670" type="curve" smooth="yes"/>
			<point x="269" y="670" type="line"/>
			<point x="260" y="624" type="line"/>
			<point x="343" y="624" type="line" smooth="yes"/>
			<point x="440" y="624"/>
			<point x="493" y="575"/>
			<point x="493" y="483" type="curve" smooth="yes"/>
			<point x="493" y="379"/>
			<point x="430" y="306"/>
			<point x="301" y="306" type="curve" smooth="yes"/>
			<point x="197" y="306" type="line"/>
		</contour>
	</outline>
</glyph>
<glyph name="Q" format="1">
	<unicode hex="0051"/>
	<advance width="660"/>
	<outline>
		<contour>
			<point x="497" y="-250" type="curve" smooth="yes"/>
			<point x="562" y="-250"/>
			<point x="612" y="-223"/>
			<point x="654" y="-186" type="curve"/>
			<point x="639" y="-158" type="line"/>
			<point x="600" y="-178"/>
			<point x="566" y="-187"/>
			<point x="513" y="-187" type="curve" smooth="yes"/>
			<point x="402" y="-187"/>
			<point x="342" y="-110"/>
			<point x="342" y="20" type="curve"/>
			<point x="260" y="20" type="line"/>
			<point x="260" y="-137"/>
			<point x="347" y="-250"/>
		</contour>
		<component base="O"/>
		<contour>
			<point name="aboveUC" x="447" y="691" type="move"/>
		</contour>
	</outline>
</glyph>
<glyph name="R" format="1">
	<unicode hex="0052"/>
	<advance width="645"/>
	<outline>
		<contour>
			<point x="16" y="0" type="line"/>
			<point x="285" y="0" type="line"/>
			<point x="293" y="40" type="line"/>
			<point x="169" y="55" type="line"/>
			<point x="151" y="55" type="line"/>
			<point x="24" y="40" type="line"/>
		</contour>
		<contour>
			<point x="101" y="0" type="line"/>
			<point x="189" y="0" type="line"/>
			<point x="205" y="103"/>
			<point x="223" y="207"/>
			<point x="242" y="310" type="curve" smooth="yes"/>
			<point x="310" y="670" type="line"/>
			<point x="222" y="670" type="line"/>
			<point x="206" y="567"/>
			<point x="188" y="463"/>
			<point x="169" y="360" type="curve" smooth="yes"/>
		</contour>
		<contour>
			<point x="122" y="630" type="line"/>
			<point x="243" y="615" type="line"/>
			<point x="256" y="615" type="line"/>
			<point x="267" y="670" type="line"/>
			<point x="130" y="670" type="line"/>
		</contour>
		<contour>
			<point x="545" y="-10" type="curve" smooth="yes"/>
			<point x="585" y="-10"/>
			<point x="606" y="-5"/>
			<point x="628" y="0" type="curve"/>
			<point x="636" y="40" type="line"/>
			<point x="462" y="62" type="line"/>
			<point x="537" y="33" type="line"/>
			<point x="478" y="199" type="line" smooth="yes"/>
			<point x="446" y="290"/>
			<point x="416" y="318"/>
			<point x="346" y="330" type="curve"/>
			<point x="356" y="311" type="line"/>
			<point x="521" y="323"/>
			<point x="598" y="404"/>
			<point x="598" y="511" type="curve" smooth="yes"/>
			<point x="598" y="614"/>
			<point x="517" y="670"/>
			<point x="394" y="670" type="curve" smooth="yes"/>
			<point x="268" y="670" type="line"/>
			<point x="259" y="624" type="line"/>
			<point x="386" y="624" type="line" smooth="yes"/>
			<point x="464" y="624"/>
			<point x="508" y="584"/>
			<point x="508" y="513" type="curve" smooth="yes"/>
			<point x="508" y="420"/>
			<point x="456" y="355"/>
			<point x="323" y="355" type="curve" smooth="yes"/>
			<point x="209" y="355" type="line"/>
			<point x="201" y="310" type="line"/>
			<point x="285" y="310" type="line" smooth="yes"/>
			<point x="341" y="310"/>
			<point x="360" y="295"/>
			<point x="387" y="215" type="curve" smooth="yes"/>
			<point x="439" y="59" type="line" smooth="yes"/>
			<point x="456" y="9"/>
			<point x="488" y="-10"/>
		</contour>
		<contour>
			<point name="aboveUC" x="378" y="691" type="move"/>
		</contour>
		<contour>
			<point name="belowLC" x="345" y="-22" type="move"/>
		</contour>
	</outline>
</glyph>
<glyph name="S" format="1">
	<unicode hex="0053"/>
	<advance width="501"/>
	<outline>
		<contour>
			<point x="50" y="30" type="line"/>
			<point x="93" y="2"/>
			<point x="168" y="-15"/>
			<point x="228" y="-15" type="curve" smooth="yes"/>
			<point x="354" y="-15"/>
			<point x="444" y="66"/>
			<point x="444" y="177" type="curve" smooth="yes"/>
			<point x="444" y="237"/>
			<point x="415" y="289"/>
			<point x="299" y="377" type="curve" smooth="yes"/>
			<point x="226" y="432"/>
			<point x="196" y="472"/>
			<point x="196" y="526" type="curve" smooth="yes"/>
			<point x="196" y="600"/>
			<point x="249" y="635"/>
			<point x="347" y="635" type="curve" smooth="yes"/>
			<point x="376" y="635"/>
			<point x="405" y="631"/>
			<point x="456" y="606" type="curve"/>
			<point x="411" y="640" type="line"/>
			<point x="423" y="500" type="line"/>
			<point x="481" y="500" type="line"/>
			<point x="500" y="640" type="line"/>
			<point x="442" y="673"/>
			<point x="387" y="685"/>
			<point x="337" y="685" type="curve" smooth="yes"/>
			<point x="206" y="685"/>
			<point x="122" y="608"/>
			<point x="122" y="506" type="curve" smooth="yes"/>
			<point x="122" y="441"/>
			<point x="152" y="384"/>
			<point x="257" y="306" type="curve" smooth="yes"/>
			<point x="349" y="237"/>
			<point x="366" y="205"/>
			<point x="366" y="160" type="curve" smooth="yes"/>
			<point x="366" y="90"/>
			<point x="323" y="35"/>
			<point x="222" y="35" type="curve" smooth="yes"/>
			<point x="175" y="35"/>
			<point x="128" y="45"/>
			<point x="89" y="67" type="curve"/>
			<point x="139" y="32" type="line"/>
			<point x="121" y="172" type="line"/>
			<point x="64" y="172" type="line"/>
		</contour>
	</outline>
</glyph>
<glyph name="T" format="1">
	<unicode hex="0054"/>
	<advance width="568"/>
	<outline>
		<contour>
			<point x="76" y="492" type="line"/>
			<point x="126" y="492" type="line"/>
			<point x="191" y="670" type="line"/>
			<point x="137" y="620" type="line"/>
			<point x="590" y="620" type="line"/>
			<point x="554" y="670" type="line"/>
			<point x="554" y="492" type="line"/>
			<point x="604" y="492" type="line"/>
			<point x="633" y="670" type="line"/>
			<point x="112" y="670" type="line"/>
		</contour>
		<contour>
			<point x="115" y="0" type="line"/>
			<point x="399" y="0" type="line"/>
			<point x="407" y="40" type="line"/>
			<point x="278" y="55" type="line"/>
			<point x="260" y="55" type="line"/>
			<point x="123" y="40" type="line"/>
		</contour>
		<contour>
			<point x="210" y="0" type="line"/>
			<point x="298" y="0" type="line"/>
			<point x="314" y="103"/>
			<point x="332" y="207"/>
			<point x="351" y="310" type="curve" smooth="yes"/>
			<point x="419" y="670" type="line"/>
			<point x="331" y="670" type="line"/>
			<point x="315" y="567"/>
			<point x="297" y="463"/>
			<point x="278" y="360" type="curve" smooth="yes"/>
		</contour>
	</outline>
</glyph>
<glyph name="U" format="1">
	<unicode hex="0055"/>
	<advance width="750"/>
	<outline>
		<contour>
			<point x="143" y="179" type="curve" smooth="yes"/>
			<point x="143" y="54"/>
			<point x="215" y="-15"/>
			<point x="350" y="-15" type="curve" smooth="yes"/>
			<point x="496" y="-15"/>
			<point x="601" y="62"/>
			<point x="641" y="274" type="curve" smooth="yes"/>
			<point x="716" y="670" type="line"/>
			<point x="664" y="670" type="line"/>
			<point x="593" y="299" type="line" smooth="yes"/>
			<point x="556" y="108"/>
			<point x="500" y="55"/>
			<point x="360" y="55" type="curve" smooth="yes"/>
			<point x="287" y="55"/>
			<point x="226" y="101"/>
			<point x="226" y="185" type="curve" smooth="yes"/>
			<point x="226" y="232"/>
			<point x="232" y="256"/>
			<point x="237" y="282" type="curve" smooth="yes"/>
			<point x="308" y="670" type="line"/>
			<point x="223" y="670" type="line"/>
			<point x="207" y="567"/>
			<point x="189" y="463"/>
			<point x="170" y="360" type="curve" smooth="yes"/>
			<point x="156" y="286" type="line" smooth="yes"/>
			<point x="149" y="249"/>
			<point x="143" y="212"/>
		</contour>
		<contour>
			<point x="122" y="630" type="line"/>
			<point x="243" y="615" type="line"/>
			<point x="262" y="615" type="line"/>
			<point x="386" y="630" type="line"/>
			<point x="394" y="670" type="line"/>
			<point x="130" y="670" type="line"/>
		</contour>
		<contour>
			<point x="550" y="630" type="line"/>
			<point x="667" y="615" type="line"/>
			<point x="686" y="615" type="line"/>
			<point x="792" y="630" type="line"/>
			<point x="800" y="670" type="line"/>
			<point x="558" y="670" type="line"/>
		</contour>
		<contour>
			<point name="aboveUC" x="476" y="691" type="move"/>
		</contour>
		<contour>
			<point name="belowLC" x="352" y="-22" type="move"/>
		</contour>
		<contour>
			<point name="ogonek" x="444" y="0" type="move"/>
		</contour>
		<contour>
			<point name="hornLC" x="690" y="679" type="move"/>
		</contour>
	</outline>
</glyph>
<glyph name="V" format="1">
	<unicode hex="0056"/>
	<advance width="605"/>
	<outline>
		<contour>
			<point x="62" y="630" type="line"/>
			<point x="183" y="615" type="line"/>
			<point x="202" y="615" type="line"/>
			<point x="326" y="630" type="line"/>
			<point x="334" y="670" type="line"/>
			<point x="70" y="670" type="line"/>
		</contour>
		<contour>
			<point x="242" y="-10" type="line"/>
			<point x="283" y="-10" type="line"/>
			<point x="648" y="670" type="line"/>
			<point x="594" y="670" type="line"/>
			<point x="280" y="82" type="line"/>
			<point x="306" y="82" type="line"/>
			<point x="223" y="670" type="line"/>
			<point x="133" y="670" type="line"/>
		</contour>
		<contour>
			<point x="483" y="630" type="line"/>
			<point x="584" y="615" type="line"/>
			<point x="603" y="615" type="line"/>
			<point x="707" y="630" type="line"/>
			<point x="715" y="670" type="line"/>
			<point x="491" y="670" type="line"/>
		</contour>
	</outline>
</glyph>
<glyph name="W" format="1">
	<unicode hex="0057"/>
	<advance width="872"/>
	<outline>
		<contour>
			<point x="62" y="630" type="line"/>
			<point x="183" y="615" type="line"/>
			<point x="202" y="615" type="line"/>
			<point x="322" y="630" type="line"/>
			<point x="330" y="670" type="line"/>
			<point x="70" y="670" type="line"/>
		</contour>
		<contour>
			<point x="197" y="-10" type="line"/>
			<point x="197" y="-10"/>
			<point x="236" y="-10"/>
			<point x="236" y="-10" type="curve"/>
			<point x="526" y="587" type="line"/>
			<point x="491" y="564" type="line"/>
			<point x="566" y="-10" type="line"/>
			<point x="604" y="-10" type="line"/>
			<point x="915" y="670" type="line"/>
			<point x="863" y="670" type="line"/>
			<point x="603" y="96" type="line"/>
			<point x="619" y="106" type="line"/>
			<point x="557" y="670" type="line"/>
			<point x="515" y="670" type="line"/>
			<point x="239" y="96" type="line"/>
			<point x="258" y="106" type="line"/>
			<point x="225" y="670" type="line"/>
			<point x="136" y="670" type="line"/>
		</contour>
		<contour>
			<point x="393" y="630" type="line"/>
			<point x="513" y="615" type="line"/>
			<point x="532" y="615" type="line"/>
			<point x="656" y="630" type="line"/>
			<point x="664" y="670" type="line"/>
			<point x="401" y="670" type="line"/>
		</contour>
		<contour>
			<point x="750" y="630" type="line"/>
			<point x="851" y="615" type="line"/>
			<point x="870" y="615" type="line"/>
			<point x="974" y="630" type="line"/>
			<point x="982" y="670" type="line"/>
			<point x="758" y="670" type="line"/>
		</contour>
		<contour>
			<point name="aboveUC" x="520" y="691" type="move"/>
		</contour>
		<contour>
			<point name="belowLC" x="409" y="-2" type="move"/>
		</contour>
	</outline>
</glyph>
<glyph name="X" format="1">
	<unicode hex="0058"/>
	<advance width="700"/>
	<outline>
		<contour>
			<point x="-7" y="0" type="line"/>
			<point x="246" y="0" type="line"/>
			<point x="254" y="40" type="line"/>
			<point x="146" y="55" type="line"/>
			<point x="128" y="55" type="line"/>
			<point x="1" y="40" type="line"/>
		</contour>
		<contour>
			<point x="56" y="0" type="line"/>
			<point x="56" y="0"/>
			<point x="115" y="0"/>
			<point x="115" y="0" type="curve"/>
			<point x="378" y="324" type="line"/>
			<point x="352" y="350" type="line"/>
		</contour>
		<contour>
			<point x="141" y="630" type="line"/>
			<point x="262" y="615" type="line"/>
			<point x="281" y="615" type="line"/>
			<point x="405" y="630" type="line"/>
			<point x="413" y="670" type="line"/>
			<point x="149" y="670" type="line"/>
		</contour>
		<contour>
			<point x="470" y="0" type="line"/>
			<point x="561" y="0" type="line"/>
			<point x="295" y="670" type="line"/>
			<point x="205" y="670" type="line"/>
		</contour>
		<contour>
			<point x="364" y="0" type="line"/>
			<point x="633" y="0" type="line"/>
			<point x="641" y="40" type="line"/>
			<point x="522" y="55" type="line"/>
			<point x="504" y="55" type="line"/>
			<point x="372" y="40" type="line"/>
		</contour>
		<contour>
			<point x="354" y="346" type="line"/>
			<point x="380" y="320" type="line"/>
			<point x="675" y="670" type="line"/>
			<point x="675" y="670"/>
			<point x="617" y="670"/>
			<point x="617" y="670" type="curve"/>
		</contour>
		<contour>
			<point x="476" y="630" type="line"/>
			<point x="587" y="615" type="line"/>
			<point x="606" y="615" type="line"/>
			<point x="720" y="630" type="line"/>
			<point x="728" y="670" type="line"/>
			<point x="484" y="670" type="line"/>
		</contour>
		<contour>
			<point name="aboveUC" x="447" y="691" type="move"/>
		</contour>
		<contour>
			<point name="belowLC" x="309" y="-22" type="move"/>
		</contour>
	</outline>
</glyph>
<glyph name="Y" format="1">
	<unicode hex="0059"/>
	<advance width="553"/>
	<outline>
		<contour>
			<point x="62" y="630" type="line"/>
			<point x="183" y="615" type="line"/>
			<point x="202" y="615" type="line"/>
			<point x="326" y="630" type="line"/>
			<point x="334" y="670" type="line"/>
			<point x="70" y="670" type="line"/>
		</contour>
		<contour>
			<point x="112" y="0" type="line"/>
			<point x="396" y="0" type="line"/>
			<point x="404" y="40" type="line"/>
			<point x="275" y="55" type="line"/>
			<point x="257" y="55" type="line"/>
			<point x="120" y="40" type="line"/>
		</contour>
		<contour>
			<point x="271" y="250" type="line"/>
			<point x="323" y="250" type="line"/>
			<point x="600" y="670" type="line"/>
			<point x="600" y="670"/>
			<point x="550" y="670"/>
			<point x="550" y="670" type="curve"/>
			<point x="320" y="314" type="line"/>
			<point x="334" y="314" type="line"/>
			<point x="222" y="670" type="line"/>
			<point x="222" y="670"/>
			<point x="124" y="670"/>
			<point x="124" y="670" type="curve"/>
		</contour>
		<contour>
			<point x="207" y="0" type="line"/>
			<point x="295" y="0" type="line"/>
			<point x="311" y="103"/>
			<point x="329" y="207"/>
			<point x="348" y="310" type="curve"/>
			<point x="266" y="310" type="line"/>
		</contour>
		<contour>
			<point x="431" y="630" type="line"/>
			<point x="532" y="615" type="line"/>
			<point x="551" y="615" type="line"/>
			<point x="655" y="630" type="line"/>
			<point x="663" y="670" type="line"/>
			<point x="439" y="670" type="line"/>
		</contour>
	</outline>
</glyph>
<glyph name="Z" format="1">
	<unicode hex="005A"/>
	<advance width="569"/>
	<outline>
		<contour>
			<point x="8" y="0" type="line"/>
			<point x="80" y="0" type="line"/>
			<point x="589" y="635" type="line"/>
			<point x="596" y="670" type="line"/>
			<point x="523" y="670" type="line"/>
			<point x="15" y="35" type="line"/>
		</contour>
		<contour>
			<point x="96" y="492" type="line"/>
			<point x="154" y="492" type="line"/>
			<point x="217" y="670" type="line"/>
			<point x="155" y="620" type="line"/>
			<point x="550" y="620" type="line"/>
			<point x="560" y="670" type="line"/>
			<point x="130" y="670" type="line"/>
		</contour>
		<contour>
			<point x="55" y="0" type="line"/>
			<point x="491" y="0" type="line"/>
			<point x="526" y="178" type="line"/>
			<point x="467" y="178" type="line"/>
			<point x="405" y="0" type="line"/>
			<point x="466" y="50" type="line"/>
			<point x="466" y="50"/>
			<point x="64" y="50"/>
			<point x="64" y="50" type="curve"/>
		</contour>
		<contour>
			<point name="aboveUC" x="360" y="691" type="move"/>
		</contour>
		<contour>
			<point name="belowLC" x="266" y="-22" type="move"/>
		</contour>
	</outline>
</glyph>
<glyph name="bracketleft" format="1">
	<unicode hex="005B"/>
	<advance width="298"/>
	<outline>
		<contour>
			<point x="83" y="-159" type="curve"/>
			<point x="159" y="-159" type="line"/>
			<point x="176" y="-54"/>
			<point x="197" y="53"/>
			<point x="218" y="158" type="curve" smooth="yes"/>
			<point x="264" y="398" type="line" smooth="yes"/>
			<point x="285" y="505"/>
			<point x="306" y="612"/>
			<point x="329" y="715" type="curve"/>
			<point x="253" y="715" type="line"/>
			<point x="235" y="610"/>
			<point x="215" y="503"/>
			<point x="194" y="398" type="curve" smooth="yes"/>
			<point x="148" y="158" type="line" smooth="yes"/>
			<point x="127" y="51"/>
			<point x="106" y="-56"/>
		</contour>
		<contour>
			<point x="131" y="-159" type="line"/>
			<point x="271" y="-159" type="line"/>
			<point x="279" y="-119" type="line"/>
			<point x="152" y="-104" type="line"/>
			<point x="142" y="-104" type="line"/>
		</contour>
		<contour>
			<point x="290" y="660" type="line"/>
			<point x="300" y="660" type="line"/>
			<point x="433" y="675" type="line"/>
			<point x="441" y="715" type="line"/>
			<point x="301" y="715" type="line"/>
		</contour>
	</outline>
</glyph>
<glyph name="backslash" format="1">
	<unicode hex="005C"/>
	<advance width="317"/>
	<outline>
		<contour>
			<point x="232" y="-160" type="line"/>
			<point x="286" y="-160" type="line"/>
			<point x="197" y="710" type="line"/>
			<point x="143" y="710" type="line"/>
		</contour>
	</outline>
</glyph>
<glyph name="asciicircum" format="1">
	<unicode hex="005E"/>
	<advance width="530"/>
	<outline>
		<contour>
			<point x="125" y="243" type="line"/>
			<point x="168" y="210" type="line"/>
			<point x="318" y="448" type="line"/>
			<point x="285" y="448" type="line"/>
			<point x="435" y="210" type="line"/>
			<point x="478" y="243" type="line"/>
			<point x="333" y="480" type="line"/>
			<point x="270" y="480" type="line"/>
		</contour>
	</outline>
</glyph>
<glyph name="a" format="1">
	<unicode hex="0061"/>
	<advance width="536"/>
	<outline>
		<contour>
			<point x="358" y="-13" type="curve" smooth="yes"/>
			<point x="425" y="-13"/>
			<point x="487" y="51"/>
			<point x="527" y="109" type="curve"/>
			<point x="503" y="128" type="line"/>
			<point x="468" y="85"/>
			<point x="429" y="55"/>
			<point x="404" y="55" type="curve" smooth="yes"/>
			<point x="391" y="55"/>
			<point x="380" y="63"/>
			<point x="380" y="77" type="curve" smooth="yes"/>
			<point x="380" y="89"/>
			<point x="383" y="110"/>
			<point x="389" y="135" type="curve" smooth="yes"/>
			<point x="469" y="488" type="line"/>
			<point x="451" y="497" type="line"/>
			<point x="385" y="442" type="line"/>
			<point x="317" y="127" type="line" smooth="yes"/>
			<point x="310" y="94"/>
			<point x="307" y="73"/>
			<point x="307" y="44" type="curve" smooth="yes"/>
			<point x="307" y="5"/>
			<point x="331" y="-13"/>
		</contour>
		<contour>
			<point x="136" y="-13" type="curve" smooth="yes"/>
			<point x="207" y="-13"/>
			<point x="296" y="67"/>
			<point x="366" y="171" type="curve"/>
			<point x="357" y="193" type="line"/>
			<point x="269" y="88"/>
			<point x="219" y="55"/>
			<point x="177" y="55" type="curve" smooth="yes"/>
			<point x="141" y="55"/>
			<point x="117" y="84"/>
			<point x="117" y="145" type="curve" smooth="yes"/>
			<point x="117" y="234"/>
			<point x="155" y="312"/>
			<point x="203" y="362" type="curve" smooth="yes"/>
			<point x="240" y="400"/>
			<point x="282" y="421"/>
			<point x="314" y="421" type="curve" smooth="yes"/>
			<point x="349" y="421"/>
			<point x="383" y="400"/>
			<point x="408" y="379" type="curve"/>
			<point x="444" y="404" type="line"/>
			<point x="418" y="450"/>
			<point x="392" y="487"/>
			<point x="349" y="487" type="curve" smooth="yes"/>
			<point x="221" y="487"/>
			<point x="41" y="278"/>
			<point x="41" y="104" type="curve" smooth="yes"/>
			<point x="41" y="22"/>
			<point x="88" y="-13"/>
		</contour>
		<contour>
			<point name="aboveLC" x="340" y="506" type="move"/>
		</contour>
		<contour>
			<point name="belowLC" x="213" y="-22" type="move"/>
		</contour>
		<contour>
			<point name="ogonek" x="396" y="0" type="move"/>
		</contour>
	</outline>
</glyph>
<glyph name="b" format="1">
	<unicode hex="0062"/>
	<advance width="499"/>
	<outline>
		<contour>
			<point x="151" y="-13" type="curve" smooth="yes"/>
			<point x="313" y="-13"/>
			<point x="478" y="196"/>
			<point x="478" y="364" type="curve" smooth="yes"/>
			<point x="478" y="454"/>
			<point x="436" y="487"/>
			<point x="387" y="487" type="curve" smooth="yes"/>
			<point x="314" y="487"/>
			<point x="210" y="412"/>
			<point x="147" y="293" type="curve"/>
			<point x="159" y="288" type="line"/>
			<point x="232" y="373"/>
			<point x="295" y="421"/>
			<point x="343" y="421" type="curve" smooth="yes"/>
			<point x="380" y="421"/>
			<point x="404" y="389"/>
			<point x="404" y="324" type="curve" smooth="yes"/>
			<point x="404" y="242"/>
			<point x="368" y="156"/>
			<point x="314" y="104" type="curve" smooth="yes"/>
			<point x="277" y="69"/>
			<point x="236" y="50"/>
			<point x="195" y="50" type="curve" smooth="yes"/>
			<point x="163" y="50"/>
			<point x="145" y="70"/>
			<point x="145" y="104" type="curve" smooth="yes"/>
			<point x="145" y="142"/>
			<point x="149" y="167"/>
			<point x="165" y="243" type="curve" smooth="yes"/>
			<point x="266" y="733" type="line"/>
			<point x="255" y="741" type="line"/>
			<point x="83" y="691" type="line"/>
			<point x="78" y="662" type="line"/>
			<point x="195" y="654" type="line"/>
			<point x="181" y="671" type="line"/>
			<point x="92" y="226" type="line" smooth="yes"/>
			<point x="79" y="159"/>
			<point x="69" y="111"/>
			<point x="69" y="69" type="curve" smooth="yes"/>
			<point x="69" y="18"/>
			<point x="107" y="-13"/>
		</contour>
		<contour>
			<point name="aboveLC" x="214" y="739" type="move"/>
		</contour>
		<contour>
			<point name="belowLC" x="166" y="-22" type="move"/>
		</contour>
	</outline>
</glyph>
<glyph name="c" format="1">
	<unicode hex="0063"/>
	<advance width="428"/>
	<outline>
		<contour>
			<point x="186" y="-13" type="curve" smooth="yes"/>
			<point x="270" y="-13"/>
			<point x="336" y="47"/>
			<point x="381" y="118" type="curve"/>
			<point x="357" y="137" type="line"/>
			<point x="324" y="94"/>
			<point x="280" y="55"/>
			<point x="205" y="55" type="curve" smooth="yes"/>
			<point x="161" y="55"/>
			<point x="116" y="87"/>
			<point x="116" y="163" type="curve" smooth="yes"/>
			<point x="116" y="293"/>
			<point x="223" y="429"/>
			<point x="330" y="445" type="curve"/>
			<point x="295" y="468" type="line"/>
			<point x="341" y="402" type="line" smooth="yes"/>
			<point x="353" y="384"/>
			<point x="371" y="373"/>
			<point x="392" y="373" type="curve" smooth="yes"/>
			<point x="412" y="373"/>
			<point x="431" y="388"/>
			<point x="436" y="413" type="curve"/>
			<point x="435" y="449"/>
			<point x="399" y="487"/>
			<point x="349" y="487" type="curve" smooth="yes"/>
			<point x="209" y="487"/>
			<point x="47" y="290"/>
			<point x="47" y="137" type="curve" smooth="yes"/>
			<point x="47" y="23"/>
			<point x="116" y="-13"/>
		</contour>
		<contour>
			<point name="aboveLC" x="358" y="506" type="move"/>
		</contour>
		<contour>
			<point name="belowLC" x="180" y="-22" type="move"/>
		</contour>
		<contour>
			<point name="baseLC" x="186" y="0" type="move"/>
		</contour>
	</outline>
</glyph>
<glyph name="d" format="1">
	<unicode hex="0064"/>
	<advance width="552"/>
	<outline>
		<contour>
			<point x="324" y="110" type="line" smooth="yes"/>
			<point x="316" y="69"/>
			<point x="315" y="52"/>
			<point x="316" y="38" type="curve" smooth="yes"/>
			<point x="316" y="4"/>
			<point x="341" y="-13"/>
			<point x="371" y="-13" type="curve" smooth="yes"/>
			<point x="441" y="-13"/>
			<point x="504" y="55"/>
			<point x="545" y="118" type="curve"/>
			<point x="521" y="137" type="line"/>
			<point x="484" y="87"/>
			<point x="443" y="55"/>
			<point x="416" y="55" type="curve" smooth="yes"/>
			<point x="404" y="55"/>
			<point x="393" y="63"/>
			<point x="393" y="77" type="curve" smooth="yes"/>
			<point x="393" y="89"/>
			<point x="395" y="110"/>
			<point x="401" y="135" type="curve"/>
			<point x="522" y="733" type="line"/>
			<point x="510" y="741" type="line"/>
			<point x="340" y="691" type="line"/>
			<point x="336" y="662" type="line"/>
			<point x="453" y="654" type="line"/>
			<point x="439" y="677" type="line"/>
		</contour>
		<contour>
			<point x="138" y="-13" type="curve" smooth="yes"/>
			<point x="209" y="-13"/>
			<point x="305" y="67"/>
			<point x="371" y="171" type="curve"/>
			<point x="362" y="193" type="line"/>
			<point x="277" y="88"/>
			<point x="228" y="55"/>
			<point x="186" y="55" type="curve" smooth="yes"/>
			<point x="150" y="55"/>
			<point x="123" y="84"/>
			<point x="123" y="150" type="curve" smooth="yes"/>
			<point x="123" y="232"/>
			<point x="154" y="308"/>
			<point x="199" y="358" type="curve" smooth="yes"/>
			<point x="234" y="397"/>
			<point x="277" y="421"/>
			<point x="321" y="421" type="curve" smooth="yes"/>
			<point x="347" y="421"/>
			<point x="376" y="409"/>
			<point x="401" y="377" type="curve"/>
			<point x="442" y="428" type="line"/>
			<point x="409" y="470"/>
			<point x="386" y="487"/>
			<point x="350" y="487" type="curve" smooth="yes"/>
			<point x="215" y="487"/>
			<point x="48" y="278"/>
			<point x="48" y="113" type="curve" smooth="yes"/>
			<point x="48" y="22"/>
			<point x="90" y="-13"/>
		</contour>
		<contour>
			<point name="aboveLC" x="463" y="739" type="move"/>
		</contour>
		<contour>
			<point name="belowLC" x="242" y="-22" type="move"/>
		</contour>
	</outline>
</glyph>
<glyph name="e" format="1">
	<unicode hex="0065"/>
	<advance width="430"/>
	<outline>
		<contour>
			<point x="189" y="-13" type="curve" smooth="yes"/>
			<point x="262" y="-13"/>
			<point x="342" y="51"/>
			<point x="383" y="118" type="curve"/>
			<point x="359" y="137" type="line"/>
			<point x="327" y="95"/>
			<point x="281" y="55"/>
			<point x="225" y="55" type="curve" smooth="yes"/>
			<point x="165" y="55"/>
			<point x="117" y="87"/>
			<point x="117" y="163" type="curve" smooth="yes"/>
			<point x="117" y="317"/>
			<point x="241" y="437"/>
			<point x="309" y="437" type="curve" smooth="yes"/>
			<point x="331" y="437"/>
			<point x="347" y="421"/>
			<point x="347" y="395" type="curve" smooth="yes"/>
			<point x="347" y="336"/>
			<point x="308" y="260"/>
			<point x="94" y="207" type="curve"/>
			<point x="94" y="169" type="line"/>
			<point x="370" y="240"/>
			<point x="424" y="344"/>
			<point x="424" y="411" type="curve" smooth="yes"/>
			<point x="424" y="455"/>
			<point x="395" y="487"/>
			<point x="339" y="487" type="curve" smooth="yes"/>
			<point x="202" y="487"/>
			<point x="48" y="290"/>
			<point x="48" y="137" type="curve" smooth="yes"/>
			<point x="48" y="23"/>
			<point x="120" y="-13"/>
		</contour>
		<contour>
			<point name="aboveLC" x="329" y="506" type="move"/>
		</contour>
		<contour>
			<point name="belowLC" x="190" y="-22" type="move"/>
		</contour>
		<contour>
			<point name="ogonek" x="239" y="0" type="move"/>
		</contour>
	</outline>
</glyph>
<glyph name="f" format="1">
	<unicode hex="0066"/>
	<advance width="310"/>
	<outline>
		<contour>
			<point x="370" y="751" type="curve" smooth="yes"/>
			<point x="326" y="751"/>
			<point x="287" y="738"/>
			<point x="248" y="709" type="curve" smooth="yes"/>
			<point x="192" y="667"/>
			<point x="159" y="613"/>
			<point x="140" y="484" type="curve" smooth="yes"/>
			<point x="116" y="327"/>
			<point x="105" y="186"/>
			<point x="81" y="35" type="curve" smooth="yes"/>
			<point x="64" y="-74"/>
			<point x="41" y="-125"/>
			<point x="7" y="-167" type="curve" smooth="yes"/>
			<point x="-15" y="-192"/>
			<point x="-40" y="-209"/>
			<point x="-76" y="-220" type="curve"/>
			<point x="-36" y="-222" type="line"/>
			<point x="-58" y="-191" type="line" smooth="yes"/>
			<point x="-75" y="-167"/>
			<point x="-94" y="-156"/>
			<point x="-119" y="-156" type="curve" smooth="yes"/>
			<point x="-148" y="-156"/>
			<point x="-167" y="-169"/>
			<point x="-176" y="-197" type="curve"/>
			<point x="-176" y="-227"/>
			<point x="-141" y="-251"/>
			<point x="-93" y="-251" type="curve" smooth="yes"/>
			<point x="-46" y="-251"/>
			<point x="-8" y="-236"/>
			<point x="33" y="-200" type="curve" smooth="yes"/>
			<point x="93" y="-148"/>
			<point x="129" y="-73"/>
			<point x="148" y="35" type="curve" smooth="yes"/>
			<point x="174" y="180"/>
			<point x="187" y="342"/>
			<point x="210" y="484" type="curve" smooth="yes"/>
			<point x="234" y="635"/>
			<point x="258" y="672"/>
			<point x="304" y="698" type="curve" smooth="yes"/>
			<point x="331" y="714"/>
			<point x="355" y="721"/>
			<point x="379" y="723" type="curve"/>
			<point x="342" y="738" type="line"/>
			<point x="365" y="701" type="line" smooth="yes"/>
			<point x="392" y="657"/>
			<point x="404" y="644"/>
			<point x="429" y="644" type="curve" smooth="yes"/>
			<point x="447" y="644"/>
			<point x="468" y="653"/>
			<point x="476" y="673" type="curve"/>
			<point x="476" y="715"/>
			<point x="439" y="751"/>
		</contour>
		<contour>
			<point x="32" y="427" type="line"/>
			<point x="163" y="427" type="line"/>
			<point x="335" y="421" type="line"/>
			<point x="343" y="474" type="line"/>
			<point x="167" y="474" type="line"/>
			<point x="167" y="477" type="line"/>
			<point x="40" y="465" type="line"/>
		</contour>
		<contour>
			<point name="aboveLC" x="359" y="750" type="move"/>
		</contour>
		<contour>
			<point name="belowLC" x="-53" y="-251" type="move"/>
		</contour>
	</outline>
</glyph>
<glyph name="g" format="1">
	<unicode hex="0067"/>
	<advance width="485"/>
	<outline>
		<contour>
			<point x="-40" y="-135" type="curve" smooth="yes"/>
			<point x="-40" y="-207"/>
			<point x="30" y="-241"/>
			<point x="122" y="-241" type="curve" smooth="yes"/>
			<point x="288" y="-241"/>
			<point x="410" y="-155"/>
			<point x="410" y="-50" type="curve" smooth="yes"/>
			<point x="410" y="7"/>
			<point x="370" y="44"/>
			<point x="263" y="58" type="curve" smooth="yes"/>
			<point x="166" y="71" type="line" smooth="yes"/>
			<point x="125" y="76"/>
			<point x="113" y="99"/>
			<point x="113" y="116" type="curve" smooth="yes"/>
			<point x="113" y="134"/>
			<point x="117" y="150"/>
			<point x="159" y="193" type="curve"/>
			<point x="147" y="203" type="line"/>
			<point x="82" y="164"/>
			<point x="42" y="127"/>
			<point x="42" y="83" type="curve" smooth="yes"/>
			<point x="42" y="54"/>
			<point x="59" y="12"/>
			<point x="137" y="3" type="curve" smooth="yes"/>
			<point x="215" y="-6" type="line" smooth="yes"/>
			<point x="319" y="-18"/>
			<point x="343" y="-51"/>
			<point x="343" y="-88" type="curve" smooth="yes"/>
			<point x="343" y="-152"/>
			<point x="273" y="-194"/>
			<point x="166" y="-194" type="curve" smooth="yes"/>
			<point x="85" y="-194"/>
			<point x="37" y="-160"/>
			<point x="37" y="-102" type="curve" smooth="yes"/>
			<point x="37" y="-56"/>
			<point x="70" y="-24"/>
			<point x="137" y="17" type="curve"/>
			<point x="117" y="29" type="line"/>
			<point x="35" y="1"/>
			<point x="-40" y="-66"/>
		</contour>
		<contour>
			<point x="144" y="295" type="curve" smooth="yes"/>
			<point x="144" y="388"/>
			<point x="178" y="453"/>
			<point x="249" y="455" type="curve" smooth="yes"/>
			<point x="291" y="456"/>
			<point x="326" y="417"/>
			<point x="326" y="353" type="curve" smooth="yes"/>
			<point x="326" y="248"/>
			<point x="287" y="188"/>
			<point x="223" y="187" type="curve" smooth="yes"/>
			<point x="171" y="186"/>
			<point x="144" y="223"/>
		</contour>
		<contour>
			<point x="394" y="328" type="curve" smooth="yes"/>
			<point x="410" y="394"/>
			<point x="419" y="424"/>
			<point x="446" y="464" type="curve"/>
			<point x="412" y="442" type="line"/>
			<point x="426" y="433" type="line" smooth="yes"/>
			<point x="445" y="421"/>
			<point x="458" y="418"/>
			<point x="473" y="418" type="curve" smooth="yes"/>
			<point x="492" y="418"/>
			<point x="520" y="430"/>
			<point x="520" y="457" type="curve"/>
			<point x="517" y="486"/>
			<point x="498" y="497"/>
			<point x="471" y="497" type="curve" smooth="yes"/>
			<point x="420" y="497"/>
			<point x="388" y="457"/>
			<point x="372" y="370" type="curve"/>
			<point x="383" y="375" type="line"/>
			<point x="376" y="444"/>
			<point x="316" y="487"/>
			<point x="256" y="487" type="curve" smooth="yes"/>
			<point x="153" y="487"/>
			<point x="68" y="399"/>
			<point x="68" y="290" type="curve" smooth="yes"/>
			<point x="68" y="208"/>
			<point x="122" y="155"/>
			<point x="216" y="155" type="curve" smooth="yes"/>
			<point x="289" y="155"/>
			<point x="368" y="221"/>
		</contour>
		<contour>
			<point name="aboveLC" x="288" y="506" type="move"/>
		</contour>
		<contour>
			<point name="belowLC" x="141" y="-243" type="move"/>
		</contour>
	</outline>
</glyph>
<glyph name="h" format="1">
	<unicode hex="0068"/>
	<advance width="547"/>
	<outline>
		<contour>
			<point x="53" y="0" type="line"/>
			<point x="128" y="0" type="line"/>
			<point x="140" y="71"/>
			<point x="150" y="140"/>
			<point x="165" y="210" type="curve" smooth="yes"/>
			<point x="272" y="733" type="line"/>
			<point x="262" y="741" type="line"/>
			<point x="90" y="691" type="line"/>
			<point x="86" y="662" type="line"/>
			<point x="203" y="654" type="line"/>
			<point x="186" y="685" type="line"/>
			<point x="176" y="616"/>
			<point x="163" y="547"/>
			<point x="149" y="478" type="curve" smooth="yes"/>
		</contour>
		<contour>
			<point x="367" y="-13" type="curve" smooth="yes"/>
			<point x="437" y="-13"/>
			<point x="504" y="55"/>
			<point x="545" y="118" type="curve"/>
			<point x="522" y="137" type="line"/>
			<point x="484" y="87"/>
			<point x="442" y="55"/>
			<point x="416" y="55" type="curve" smooth="yes"/>
			<point x="404" y="55"/>
			<point x="396" y="62"/>
			<point x="396" y="76" type="curve" smooth="yes"/>
			<point x="396" y="86"/>
			<point x="402" y="107"/>
			<point x="408" y="135" type="curve" smooth="yes"/>
			<point x="453" y="320" type="line" smooth="yes"/>
			<point x="461" y="353"/>
			<point x="470" y="386"/>
			<point x="470" y="418" type="curve" smooth="yes"/>
			<point x="470" y="464"/>
			<point x="448" y="487"/>
			<point x="407" y="487" type="curve" smooth="yes"/>
			<point x="340" y="487"/>
			<point x="249" y="427"/>
			<point x="183" y="359" type="curve"/>
			<point x="218" y="374" type="line"/>
			<point x="170" y="374" type="line"/>
			<point x="158" y="322" type="line"/>
			<point x="177" y="322" type="line"/>
			<point x="258" y="388"/>
			<point x="318" y="421"/>
			<point x="356" y="421" type="curve" smooth="yes"/>
			<point x="379" y="421"/>
			<point x="391" y="410"/>
			<point x="391" y="374" type="curve" smooth="yes"/>
			<point x="391" y="354"/>
			<point x="383" y="321"/>
			<point x="375" y="287" type="curve" smooth="yes"/>
			<point x="332" y="110" type="line" smooth="yes"/>
			<point x="323" y="69"/>
			<point x="317" y="52"/>
			<point x="317" y="29" type="curve" smooth="yes"/>
			<point x="317" y="4"/>
			<point x="336" y="-13"/>
		</contour>
		<contour>
			<point name="aboveLC" x="207" y="739" type="move"/>
		</contour>
		<contour>
			<point name="belowLC" x="229" y="-12" type="move"/>
		</contour>
	</outline>
</glyph>
<glyph name="i" format="1">
	<unicode hex="0069"/>
	<advance width="313"/>
	<outline>
		<contour>
			<point x="81" y="38" type="curve" smooth="yes"/>
			<point x="81" y="4"/>
			<point x="107" y="-13"/>
			<point x="134" y="-13" type="curve" smooth="yes"/>
			<point x="205" y="-13"/>
			<point x="269" y="56"/>
			<point x="311" y="118" type="curve"/>
			<point x="287" y="137" type="line"/>
			<point x="249" y="87"/>
			<point x="208" y="55"/>
			<point x="181" y="55" type="curve" smooth="yes"/>
			<point x="169" y="55"/>
			<point x="158" y="63"/>
			<point x="158" y="77" type="curve" smooth="yes"/>
			<point x="158" y="89"/>
			<point x="162" y="110"/>
			<point x="167" y="135" type="curve" smooth="yes"/>
			<point x="238" y="477" type="line"/>
			<point x="225" y="487" type="line"/>
			<point x="56" y="436" type="line"/>
			<point x="52" y="407" type="line"/>
			<point x="172" y="400" type="line"/>
			<point x="155" y="414" type="line"/>
			<point x="91" y="110" type="line" smooth="yes"/>
			<point x="82" y="69"/>
			<point x="81" y="52"/>
		</contour>
		<contour>
			<point x="237" y="624" type="curve" smooth="yes"/>
			<point x="267" y="624"/>
			<point x="295" y="655"/>
			<point x="295" y="686" type="curve" smooth="yes"/>
			<point x="295" y="722"/>
			<point x="273" y="744"/>
			<point x="241" y="744" type="curve" smooth="yes"/>
			<point x="211" y="744"/>
			<point x="183" y="715"/>
			<point x="183" y="682" type="curve" smooth="yes"/>
			<point x="183" y="646"/>
			<point x="205" y="624"/>
		</contour>
		<contour>
			<point name="aboveLC" x="240" y="736" type="move"/>
		</contour>
		<contour>
			<point name="belowLC" x="128" y="-22" type="move"/>
		</contour>
		<contour>
			<point name="ogonek" x="171" y="0" type="move"/>
		</contour>
	</outline>
</glyph>
<glyph name="j" format="1">
	<unicode hex="006A"/>
	<advance width="276"/>
	<outline>
		<contour>
			<point x="247" y="624" type="curve" smooth="yes"/>
			<point x="277" y="624"/>
			<point x="305" y="655"/>
			<point x="305" y="686" type="curve" smooth="yes"/>
			<point x="305" y="722"/>
			<point x="283" y="744"/>
			<point x="251" y="744" type="curve" smooth="yes"/>
			<point x="221" y="744"/>
			<point x="193" y="715"/>
			<point x="193" y="682" type="curve" smooth="yes"/>
			<point x="193" y="646"/>
			<point x="215" y="624"/>
		</contour>
		<contour>
			<point x="-62" y="-248" type="line"/>
			<point x="-28" y="-242"/>
			<point x="5" y="-227"/>
			<point x="37" y="-200" type="curve" smooth="yes"/>
			<point x="100" y="-147"/>
			<point x="140" y="-71"/>
			<point x="159" y="22" type="curve" smooth="yes"/>
			<point x="247" y="477" type="line"/>
			<point x="234" y="487" type="line"/>
			<point x="66" y="436" type="line"/>
			<point x="63" y="407" type="line"/>
			<point x="183" y="400" type="line"/>
			<point x="165" y="415" type="line"/>
			<point x="94" y="48" type="line" smooth="yes"/>
			<point x="72" y="-73"/>
			<point x="45" y="-123"/>
			<point x="11" y="-167" type="curve" smooth="yes"/>
			<point x="-9" y="-191"/>
			<point x="-34" y="-205"/>
			<point x="-70" y="-220" type="curve"/>
		</contour>
		<contour>
			<point name="aboveLC" x="241" y="736" type="move"/>
		</contour>
		<contour>
			<point name="belowLC" x="-21" y="-251" type="move"/>
		</contour>
	</outline>
</glyph>
<glyph name="k" format="1">
	<unicode hex="006B"/>
	<advance width="479"/>
	<outline>
		<contour>
			<point x="53" y="0" type="line"/>
			<point x="128" y="0" type="line"/>
			<point x="140" y="71"/>
			<point x="151" y="140"/>
			<point x="165" y="210" type="curve" smooth="yes"/>
			<point x="268" y="733" type="line"/>
			<point x="262" y="741" type="line"/>
			<point x="90" y="691" type="line"/>
			<point x="86" y="662" type="line"/>
			<point x="203" y="654" type="line"/>
			<point x="186" y="685" type="line"/>
			<point x="176" y="616"/>
			<point x="163" y="547"/>
			<point x="149" y="478" type="curve" smooth="yes"/>
		</contour>
		<contour>
			<point x="457" y="0" type="curve"/>
			<point x="462" y="30" type="line"/>
			<point x="408" y="33" type="line" smooth="yes"/>
			<point x="374" y="35"/>
			<point x="361" y="43"/>
			<point x="349" y="92" type="curve" smooth="yes"/>
			<point x="328" y="175" type="line" smooth="yes"/>
			<point x="314" y="232"/>
			<point x="275" y="251"/>
			<point x="209" y="265" type="curve" smooth="yes"/>
			<point x="157" y="276" type="line"/>
			<point x="152" y="251" type="line"/>
			<point x="186" y="244" type="line" smooth="yes"/>
			<point x="228" y="235"/>
			<point x="248" y="212"/>
			<point x="261" y="164" type="curve" smooth="yes"/>
			<point x="288" y="61" type="line" smooth="yes"/>
			<point x="305" y="-4"/>
			<point x="332" y="-13"/>
			<point x="387" y="-13" type="curve" smooth="yes"/>
			<point x="407" y="-13"/>
			<point x="426" y="-9"/>
		</contour>
		<contour>
			<point x="148" y="273" type="line"/>
			<point x="156" y="256" type="line"/>
			<point x="432" y="402" type="line" smooth="yes"/>
			<point x="468" y="421"/>
			<point x="480" y="433"/>
			<point x="480" y="457" type="curve" smooth="yes"/>
			<point x="480" y="474"/>
			<point x="468" y="486"/>
			<point x="447" y="487" type="curve"/>
		</contour>
		<contour>
			<point name="aboveLC" x="213" y="739" type="move"/>
		</contour>
		<contour>
			<point name="belowLC" x="222" y="-22" type="move"/>
		</contour>
	</outline>
</glyph>
<glyph name="l" format="1">
	<unicode hex="006C"/>
	<advance width="293"/>
	<outline>
		<contour>
			<point x="117" y="-13" type="curve" smooth="yes"/>
			<point x="187" y="-13"/>
			<point x="241" y="50"/>
			<point x="284" y="109" type="curve"/>
			<point x="261" y="128" type="line"/>
			<point x="221" y="82"/>
			<point x="189" y="55"/>
			<point x="162" y="55" type="curve" smooth="yes"/>
			<point x="149" y="55"/>
			<point x="137" y="63"/>
			<point x="137" y="79" type="curve" smooth="yes"/>
			<point x="137" y="89"/>
			<point x="140" y="110"/>
			<point x="146" y="137" type="curve" smooth="yes"/>
			<point x="266" y="733" type="line"/>
			<point x="255" y="741" type="line"/>
			<point x="84" y="691" type="line"/>
			<point x="80" y="662" type="line"/>
			<point x="197" y="654" type="line"/>
			<point x="179" y="685" type="line"/>
			<point x="170" y="616"/>
			<point x="157" y="547"/>
			<point x="143" y="478" type="curve" smooth="yes"/>
			<point x="70" y="110" type="line" smooth="yes"/>
			<point x="64" y="76"/>
			<point x="61" y="58"/>
			<point x="61" y="45" type="curve" smooth="yes"/>
			<point x="61" y="6"/>
			<point x="86" y="-13"/>
		</contour>
		<contour>
			<point name="aboveLC" x="218" y="739" type="move"/>
		</contour>
		<contour>
			<point name="belowLC" x="121" y="-22" type="move"/>
		</contour>
	</outline>
</glyph>
<glyph name="m" format="1">
	<unicode hex="006D"/>
	<advance width="822"/>
	<outline>
		<contour>
			<point x="62" y="0" type="line"/>
			<point x="137" y="0" type="line"/>
			<point x="150" y="71"/>
			<point x="162" y="140"/>
			<point x="177" y="210" type="curve" smooth="yes"/>
			<point x="208" y="352" type="line"/>
			<point x="233" y="477" type="line"/>
			<point x="220" y="487" type="line"/>
			<point x="51" y="436" type="line"/>
			<point x="47" y="407" type="line"/>
			<point x="167" y="400" type="line"/>
			<point x="150" y="414" type="line"/>
		</contour>
		<contour>
			<point x="475" y="358" type="line" smooth="yes"/>
			<point x="480" y="378"/>
			<point x="484" y="399"/>
			<point x="484" y="418" type="curve" smooth="yes"/>
			<point x="484" y="464"/>
			<point x="462" y="487"/>
			<point x="421" y="487" type="curve" smooth="yes"/>
			<point x="354" y="487"/>
			<point x="264" y="427"/>
			<point x="197" y="359" type="curve"/>
			<point x="233" y="374" type="line"/>
			<point x="184" y="374" type="line"/>
			<point x="173" y="322" type="line"/>
			<point x="192" y="322" type="line"/>
			<point x="272" y="388"/>
			<point x="332" y="421"/>
			<point x="370" y="421" type="curve" smooth="yes"/>
			<point x="392" y="421"/>
			<point x="405" y="410"/>
			<point x="405" y="377" type="curve" smooth="yes"/>
			<point x="405" y="361"/>
			<point x="401" y="343"/>
			<point x="398" y="327" type="curve" smooth="yes"/>
			<point x="328" y="0" type="line"/>
			<point x="402" y="0" type="line"/>
			<point x="415" y="71"/>
			<point x="428" y="140"/>
			<point x="443" y="210" type="curve" smooth="yes"/>
		</contour>
		<contour>
			<point x="636" y="-13" type="curve" smooth="yes"/>
			<point x="707" y="-13"/>
			<point x="773" y="55"/>
			<point x="815" y="118" type="curve"/>
			<point x="791" y="137" type="line"/>
			<point x="753" y="87"/>
			<point x="712" y="55"/>
			<point x="685" y="55" type="curve" smooth="yes"/>
			<point x="674" y="55"/>
			<point x="665" y="62"/>
			<point x="665" y="76" type="curve" smooth="yes"/>
			<point x="665" y="86"/>
			<point x="671" y="107"/>
			<point x="678" y="135" type="curve" smooth="yes"/>
			<point x="723" y="320" type="line" smooth="yes"/>
			<point x="731" y="353"/>
			<point x="740" y="386"/>
			<point x="740" y="418" type="curve" smooth="yes"/>
			<point x="740" y="464"/>
			<point x="718" y="487"/>
			<point x="677" y="487" type="curve" smooth="yes"/>
			<point x="613" y="487"/>
			<point x="529" y="427"/>
			<point x="463" y="360" type="curve"/>
			<point x="499" y="374" type="line"/>
			<point x="450" y="374" type="line"/>
			<point x="439" y="322" type="line"/>
			<point x="458" y="322" type="line"/>
			<point x="535" y="387"/>
			<point x="590" y="421"/>
			<point x="626" y="421" type="curve" smooth="yes"/>
			<point x="649" y="421"/>
			<point x="661" y="410"/>
			<point x="661" y="374" type="curve" smooth="yes"/>
			<point x="661" y="354"/>
			<point x="653" y="321"/>
			<point x="645" y="287" type="curve" smooth="yes"/>
			<point x="602" y="110" type="line" smooth="yes"/>
			<point x="592" y="69"/>
			<point x="586" y="52"/>
			<point x="586" y="29" type="curve" smooth="yes"/>
			<point x="586" y="4"/>
			<point x="605" y="-13"/>
		</contour>
		<contour>
			<point name="aboveLC" x="444" y="506" type="move"/>
		</contour>
		<contour>
			<point name="belowLC" x="367" y="-22" type="move"/>
		</contour>
	</outline>
</glyph>
<glyph name="n" format="1">
	<unicode hex="006E"/>
	<advance width="567"/>
	<outline>
		<contour>
			<point x="331" y="29" type="curve" smooth="yes"/>
			<point x="331" y="4"/>
			<point x="350" y="-13"/>
			<point x="381" y="-13" type="curve" smooth="yes"/>
			<point x="452" y="-13"/>
			<point x="518" y="55"/>
			<point x="560" y="118" type="curve"/>
			<point x="536" y="137" type="line"/>
			<point x="498" y="87"/>
			<point x="457" y="55"/>
			<point x="430" y="55" type="curve" smooth="yes"/>
			<point x="418" y="55"/>
			<point x="410" y="62"/>
			<point x="410" y="76" type="curve" smooth="yes"/>
			<point x="410" y="86"/>
			<point x="416" y="107"/>
			<point x="423" y="135" type="curve" smooth="yes"/>
			<point x="468" y="320" type="line" smooth="yes"/>
			<point x="476" y="353"/>
			<point x="485" y="386"/>
			<point x="485" y="418" type="curve" smooth="yes"/>
			<point x="485" y="464"/>
			<point x="463" y="487"/>
			<point x="421" y="487" type="curve" smooth="yes"/>
			<point x="355" y="487"/>
			<point x="264" y="427"/>
			<point x="197" y="359" type="curve"/>
			<point x="233" y="374" type="line"/>
			<point x="184" y="374" type="line"/>
			<point x="173" y="322" type="line"/>
			<point x="192" y="322" type="line"/>
			<point x="272" y="388"/>
			<point x="333" y="421"/>
			<point x="371" y="421" type="curve" smooth="yes"/>
			<point x="393" y="421"/>
			<point x="406" y="410"/>
			<point x="406" y="374" type="curve" smooth="yes"/>
			<point x="406" y="354"/>
			<point x="398" y="321"/>
			<point x="390" y="287" type="curve" smooth="yes"/>
			<point x="347" y="110" type="line" smooth="yes"/>
			<point x="337" y="69"/>
			<point x="331" y="52"/>
		</contour>
		<contour>
			<point x="62" y="0" type="line"/>
			<point x="137" y="0" type="line"/>
			<point x="150" y="71"/>
			<point x="162" y="140"/>
			<point x="177" y="210" type="curve" smooth="yes"/>
			<point x="208" y="352" type="line"/>
			<point x="233" y="477" type="line"/>
			<point x="220" y="487" type="line"/>
			<point x="51" y="436" type="line"/>
			<point x="47" y="407" type="line"/>
			<point x="167" y="400" type="line"/>
			<point x="150" y="414" type="line"/>
		</contour>
		<contour>
			<point name="aboveLC" x="328" y="506" type="move"/>
		</contour>
		<contour>
			<point name="belowLC" x="244" y="-12" type="move"/>
		</contour>
	</outline>
</glyph>
<glyph name="o" format="1">
	<unicode hex="006F"/>
	<advance width="487"/>
	<outline>
		<contour>
			<point x="208" y="-13" type="curve" smooth="yes"/>
			<point x="364" y="-13"/>
			<point x="461" y="161"/>
			<point x="461" y="297" type="curve" smooth="yes"/>
			<point x="461" y="432"/>
			<point x="386" y="487"/>
			<point x="306" y="487" type="curve" smooth="yes"/>
			<point x="156" y="487"/>
			<point x="53" y="330"/>
			<point x="53" y="173" type="curve" smooth="yes"/>
			<point x="53" y="44"/>
			<point x="127" y="-13"/>
		</contour>
		<contour>
			<point x="228" y="27" type="curve" smooth="yes"/>
			<point x="175" y="27"/>
			<point x="133" y="75"/>
			<point x="133" y="183" type="curve" smooth="yes"/>
			<point x="133" y="315"/>
			<point x="198" y="447"/>
			<point x="287" y="447" type="curve" smooth="yes"/>
			<point x="339" y="447"/>
			<point x="381" y="401"/>
			<point x="381" y="287" type="curve" smooth="yes"/>
			<point x="381" y="173"/>
			<point x="320" y="27"/>
		</contour>
		<contour>
			<point name="aboveLC" x="295" y="506" type="move"/>
		</contour>
		<contour>
			<point name="belowLC" x="202" y="-22" type="move"/>
		</contour>
		<contour>
			<point name="hornLC" x="416" y="480" type="move"/>
		</contour>
		<contour>
			<point name="ogonek" x="276" y="0" type="move"/>
		</contour>
	</outline>
</glyph>
<glyph name="p" format="1">
	<unicode hex="0070"/>
	<advance width="519"/>
	<outline>
		<contour>
			<point x="11" y="-241" type="line"/>
			<point x="87" y="-241" type="line"/>
			<point x="97" y="-173"/>
			<point x="109" y="-107"/>
			<point x="123" y="-40" type="curve" smooth="yes"/>
			<point x="233" y="477" type="line"/>
			<point x="220" y="487" type="line"/>
			<point x="51" y="436" type="line"/>
			<point x="47" y="407" type="line"/>
			<point x="166" y="400" type="line"/>
			<point x="150" y="414" type="line"/>
		</contour>
		<contour>
			<point x="87" y="45" type="line"/>
			<point x="120" y="3"/>
			<point x="148" y="-13"/>
			<point x="189" y="-13" type="curve" smooth="yes"/>
			<point x="333" y="-13"/>
			<point x="498" y="196"/>
			<point x="498" y="364" type="curve" smooth="yes"/>
			<point x="498" y="454"/>
			<point x="456" y="487"/>
			<point x="407" y="487" type="curve" smooth="yes"/>
			<point x="334" y="487"/>
			<point x="225" y="412"/>
			<point x="162" y="293" type="curve"/>
			<point x="173" y="288" type="line"/>
			<point x="247" y="373"/>
			<point x="315" y="421"/>
			<point x="362" y="421" type="curve" smooth="yes"/>
			<point x="400" y="421"/>
			<point x="423" y="389"/>
			<point x="423" y="324" type="curve" smooth="yes"/>
			<point x="423" y="255"/>
			<point x="398" y="184"/>
			<point x="357" y="131" type="curve" smooth="yes"/>
			<point x="322" y="86"/>
			<point x="276" y="55"/>
			<point x="225" y="55" type="curve" smooth="yes"/>
			<point x="197" y="55"/>
			<point x="163" y="66"/>
			<point x="129" y="100" type="curve"/>
		</contour>
		<contour>
			<point x="-73" y="-241" type="line"/>
			<point x="179" y="-241" type="line"/>
			<point x="187" y="-207" type="line"/>
			<point x="68" y="-189" type="line"/>
			<point x="49" y="-189" type="line"/>
			<point x="-66" y="-207" type="line"/>
		</contour>
		<contour>
			<point name="aboveLC" x="308" y="506" type="move"/>
		</contour>
		<contour>
			<point name="belowLC" x="53" y="-251" type="move"/>
		</contour>
	</outline>
</glyph>
<glyph name="q" format="1">
	<unicode hex="0071"/>
	<advance width="491"/>
	<outline>
		<contour>
			<point x="129" y="-13" type="curve" smooth="yes"/>
			<point x="200" y="-13"/>
			<point x="310" y="67"/>
			<point x="375" y="171" type="curve"/>
			<point x="367" y="193" type="line"/>
			<point x="281" y="88"/>
			<point x="218" y="55"/>
			<point x="176" y="55" type="curve" smooth="yes"/>
			<point x="133" y="55"/>
			<point x="113" y="90"/>
			<point x="113" y="146" type="curve" smooth="yes"/>
			<point x="113" y="231"/>
			<point x="148" y="310"/>
			<point x="197" y="361" type="curve" smooth="yes"/>
			<point x="233" y="398"/>
			<point x="277" y="421"/>
			<point x="319" y="421" type="curve" smooth="yes"/>
			<point x="346" y="421"/>
			<point x="374" y="412"/>
			<point x="408" y="382" type="curve"/>
			<point x="447" y="428" type="line"/>
			<point x="414" y="470"/>
			<point x="391" y="487"/>
			<point x="351" y="487" type="curve" smooth="yes"/>
			<point x="211" y="487"/>
			<point x="39" y="278"/>
			<point x="39" y="113" type="curve" smooth="yes"/>
			<point x="39" y="22"/>
			<point x="80" y="-13"/>
		</contour>
		<contour>
			<point x="158" y="-241" type="line"/>
			<point x="410" y="-241" type="line"/>
			<point x="418" y="-207" type="line"/>
			<point x="301" y="-189" type="line"/>
			<point x="282" y="-189" type="line"/>
			<point x="165" y="-207" type="line"/>
		</contour>
		<contour>
			<point x="467" y="478" type="line"/>
			<point x="449" y="487" type="line"/>
			<point x="389" y="442" type="line"/>
			<point x="246" y="-241" type="line"/>
			<point x="321" y="-241" type="line"/>
			<point x="332" y="-173"/>
			<point x="344" y="-107"/>
			<point x="358" y="-40" type="curve" smooth="yes"/>
		</contour>
	</outline>
</glyph>
<glyph name="r" format="1">
	<unicode hex="0072"/>
	<advance width="400"/>
	<outline>
		<contour>
			<point x="164" y="276" type="line"/>
			<point x="186" y="270" type="line"/>
			<point x="229" y="346"/>
			<point x="271" y="398"/>
			<point x="330" y="431" type="curve"/>
			<point x="299" y="446" type="line"/>
			<point x="316" y="431" type="line" smooth="yes"/>
			<point x="342" y="408"/>
			<point x="368" y="387"/>
			<point x="397" y="387" type="curve" smooth="yes"/>
			<point x="418" y="387"/>
			<point x="439" y="408"/>
			<point x="441" y="439" type="curve"/>
			<point x="426" y="466"/>
			<point x="392" y="487"/>
			<point x="360" y="487" type="curve" smooth="yes"/>
			<point x="305" y="487"/>
			<point x="227" y="404"/>
			<point x="190" y="317" type="curve"/>
			<point x="220" y="340" type="line"/>
			<point x="175" y="340" type="line"/>
		</contour>
		<contour>
			<point x="62" y="0" type="line"/>
			<point x="66" y="-4" type="line"/>
			<point x="137" y="0" type="line"/>
			<point x="150" y="71"/>
			<point x="162" y="140"/>
			<point x="177" y="210" type="curve" smooth="yes"/>
			<point x="199" y="308" type="line"/>
			<point x="207" y="346" type="line"/>
			<point x="228" y="477" type="line"/>
			<point x="215" y="487" type="line"/>
			<point x="51" y="436" type="line"/>
			<point x="47" y="407" type="line"/>
			<point x="167" y="400" type="line"/>
			<point x="150" y="414" type="line"/>
		</contour>
		<contour>
			<point name="aboveLC" x="274" y="506" type="move"/>
		</contour>
		<contour>
			<point name="belowLC" x="99" y="-22" type="move"/>
		</contour>
	</outline>
</glyph>
<glyph name="s" format="1">
	<unicode hex="0073"/>
	<advance width="348"/>
	<outline>
		<contour>
			<point x="143" y="-5" type="line"/>
			<point x="112" y="59" type="line" smooth="yes"/>
			<point x="99" y="85"/>
			<point x="82" y="100"/>
			<point x="57" y="100" type="curve" smooth="yes"/>
			<point x="36" y="100"/>
			<point x="22" y="91"/>
			<point x="13" y="69" type="curve"/>
			<point x="15" y="24"/>
			<point x="56" y="-13"/>
			<point x="130" y="-13" type="curve" smooth="yes"/>
			<point x="236" y="-13"/>
			<point x="306" y="54"/>
			<point x="306" y="131" type="curve" smooth="yes"/>
			<point x="306" y="174"/>
			<point x="291" y="207"/>
			<point x="226" y="260" type="curve" smooth="yes"/>
			<point x="177" y="300"/>
			<point x="159" y="322"/>
			<point x="159" y="368" type="curve" smooth="yes"/>
			<point x="159" y="408"/>
			<point x="191" y="452"/>
			<point x="261" y="452" type="curve" smooth="yes"/>
			<point x="263" y="452"/>
			<point x="286" y="452"/>
			<point x="288" y="451" type="curve"/>
			<point x="227" y="463" type="line"/>
			<point x="247" y="444"/>
			<point x="259" y="417"/>
			<point x="276" y="403" type="curve" smooth="yes"/>
			<point x="291" y="390"/>
			<point x="304" y="385"/>
			<point x="317" y="385" type="curve" smooth="yes"/>
			<point x="343" y="385"/>
			<point x="359" y="407"/>
			<point x="359" y="428" type="curve"/>
			<point x="347" y="457"/>
			<point x="308" y="487"/>
			<point x="256" y="487" type="curve" smooth="yes"/>
			<point x="159" y="487"/>
			<point x="94" y="422"/>
			<point x="94" y="347" type="curve" smooth="yes"/>
			<point x="94" y="279"/>
			<point x="131" y="250"/>
			<point x="177" y="212" type="curve" smooth="yes"/>
			<point x="233" y="166"/>
			<point x="239" y="143"/>
			<point x="239" y="114" type="curve" smooth="yes"/>
			<point x="239" y="63"/>
			<point x="191" y="24"/>
			<point x="119" y="24" type="curve" smooth="yes"/>
			<point x="106" y="24"/>
			<point x="101" y="26"/>
			<point x="80" y="33" type="curve"/>
		</contour>
		<contour>
			<point name="aboveLC" x="245" y="506" type="move"/>
		</contour>
		<contour>
			<point name="belowLC" x="113" y="-22" type="move"/>
		</contour>
		<contour>
			<point name="baseLC" x="116" y="0" type="move"/>
		</contour>
	</outline>
</glyph>
<glyph name="t" format="1">
	<unicode hex="0074"/>
	<advance width="338"/>
	<outline>
		<contour>
			<point x="50" y="425" type="line"/>
			<point x="189" y="425" type="line"/>
			<point x="353" y="420" type="line"/>
			<point x="360" y="474" type="line"/>
			<point x="193" y="474" type="line"/>
			<point x="193" y="477" type="line"/>
			<point x="57" y="465" type="line"/>
		</contour>
		<contour>
			<point x="85" y="110" type="line" smooth="yes"/>
			<point x="77" y="69"/>
			<point x="76" y="52"/>
			<point x="76" y="38" type="curve" smooth="yes"/>
			<point x="76" y="4"/>
			<point x="102" y="-13"/>
			<point x="130" y="-13" type="curve" smooth="yes"/>
			<point x="200" y="-13"/>
			<point x="265" y="56"/>
			<point x="306" y="118" type="curve"/>
			<point x="283" y="137" type="line"/>
			<point x="245" y="87"/>
			<point x="204" y="55"/>
			<point x="177" y="55" type="curve" smooth="yes"/>
			<point x="165" y="55"/>
			<point x="153" y="63"/>
			<point x="153" y="79" type="curve" smooth="yes"/>
			<point x="153" y="89"/>
			<point x="156" y="110"/>
			<point x="162" y="137" type="curve" smooth="yes"/>
			<point x="262" y="609" type="line"/>
			<point x="212" y="609" type="line"/>
			<point x="159" y="454" type="line"/>
		</contour>
		<contour>
			<point name="aboveLC" x="237" y="628" type="move"/>
		</contour>
		<contour>
			<point name="belowLC" x="140" y="-22" type="move"/>
		</contour>
		<contour>
			<point name="baseLC" x="148" y="0" type="move"/>
		</contour>
	</outline>
</glyph>
<glyph name="u" format="1">
	<unicode hex="0075"/>
	<advance width="577"/>
	<outline>
		<contour>
			<point x="148" y="-13" type="curve" smooth="yes"/>
			<point x="220" y="-13"/>
			<point x="295" y="48"/>
			<point x="394" y="144" type="curve"/>
			<point x="394" y="172" type="line"/>
			<point x="294" y="91"/>
			<point x="245" y="55"/>
			<point x="197" y="55" type="curve" smooth="yes"/>
			<point x="173" y="55"/>
			<point x="159" y="69"/>
			<point x="159" y="98" type="curve" smooth="yes"/>
			<point x="159" y="120"/>
			<point x="165" y="153"/>
			<point x="174" y="194" type="curve" smooth="yes"/>
			<point x="237" y="478" type="line"/>
			<point x="224" y="488" type="line"/>
			<point x="51" y="437" type="line"/>
			<point x="47" y="407" type="line"/>
			<point x="159" y="401" type="line"/>
			<point x="152" y="423" type="line"/>
			<point x="101" y="187" type="line" smooth="yes"/>
			<point x="93" y="147"/>
			<point x="80" y="97"/>
			<point x="80" y="60" type="curve" smooth="yes"/>
			<point x="80" y="5"/>
			<point x="111" y="-13"/>
		</contour>
		<contour>
			<point x="350" y="110" type="line" smooth="yes"/>
			<point x="341" y="69"/>
			<point x="340" y="52"/>
			<point x="340" y="38" type="curve" smooth="yes"/>
			<point x="340" y="4"/>
			<point x="366" y="-13"/>
			<point x="393" y="-13" type="curve" smooth="yes"/>
			<point x="464" y="-13"/>
			<point x="528" y="56"/>
			<point x="570" y="118" type="curve"/>
			<point x="546" y="137" type="line"/>
			<point x="508" y="87"/>
			<point x="467" y="55"/>
			<point x="440" y="55" type="curve" smooth="yes"/>
			<point x="428" y="55"/>
			<point x="417" y="63"/>
			<point x="417" y="77" type="curve" smooth="yes"/>
			<point x="417" y="89"/>
			<point x="421" y="110"/>
			<point x="426" y="135" type="curve" smooth="yes"/>
			<point x="497" y="477" type="line"/>
			<point x="483" y="487" type="line"/>
			<point x="421" y="467" type="line"/>
			<point x="410" y="403"/>
			<point x="397" y="338"/>
			<point x="384" y="274" type="curve" smooth="yes"/>
		</contour>
		<contour>
			<point name="aboveLC" x="323" y="506" type="move"/>
		</contour>
		<contour>
			<point name="belowLC" x="270" y="-22" type="move"/>
		</contour>
		<contour>
			<point name="hornLC" x="503" y="471" type="move"/>
		</contour>
		<contour>
			<point name="ogonek" x="427" y="0" type="move"/>
		</contour>
	</outline>
</glyph>
<glyph name="v" format="1">
	<unicode hex="0076"/>
	<advance width="477"/>
	<outline>
		<contour>
			<point x="178" y="-2" type="curve"/>
			<point x="185" y="-7" type="line"/>
			<point x="213" y="-4" type="line"/>
			<point x="315" y="100"/>
			<point x="407" y="221"/>
			<point x="454" y="310" type="curve" smooth="yes"/>
			<point x="502" y="400"/>
			<point x="504" y="426"/>
			<point x="504" y="446" type="curve" smooth="yes"/>
			<point x="504" y="462"/>
			<point x="503" y="468"/>
			<point x="499" y="474" type="curve"/>
			<point x="493" y="481"/>
			<point x="480" y="487"/>
			<point x="461" y="487" type="curve" smooth="yes"/>
			<point x="429" y="487"/>
			<point x="408" y="466"/>
			<point x="408" y="416" type="curve" smooth="yes"/>
			<point x="408" y="406"/>
			<point x="410" y="391"/>
			<point x="412" y="378" type="curve" smooth="yes"/>
			<point x="424" y="308" type="line"/>
			<point x="434" y="362" type="line"/>
			<point x="428" y="351"/>
			<point x="421" y="340"/>
			<point x="416" y="329" type="curve" smooth="yes"/>
			<point x="362" y="234"/>
			<point x="310" y="155"/>
			<point x="233" y="66" type="curve"/>
			<point x="244" y="65" type="line"/>
			<point x="244" y="186"/>
			<point x="240" y="314"/>
			<point x="225" y="408" type="curve" smooth="yes"/>
			<point x="216" y="463"/>
			<point x="199" y="487"/>
			<point x="158" y="487" type="curve" smooth="yes"/>
			<point x="111" y="487"/>
			<point x="67" y="446"/>
			<point x="33" y="368" type="curve"/>
			<point x="56" y="352" type="line"/>
			<point x="91" y="405"/>
			<point x="106" y="419"/>
			<point x="124" y="419" type="curve" smooth="yes"/>
			<point x="138" y="419"/>
			<point x="148" y="412"/>
			<point x="153" y="371" type="curve" smooth="yes"/>
			<point x="167" y="266"/>
			<point x="174" y="156"/>
		</contour>
		<contour>
			<point name="aboveLC" x="301" y="496" type="move"/>
		</contour>
		<contour>
			<point name="belowLC" x="168" y="-22" type="move"/>
		</contour>
	</outline>
</glyph>
<glyph name="w" format="1">
	<unicode hex="0077"/>
	<advance width="728"/>
	<outline>
		<contour>
			<point x="174" y="-7" type="line"/>
			<point x="201" y="-7" type="line"/>
			<point x="305" y="110"/>
			<point x="405" y="298"/>
			<point x="451" y="390" type="curve"/>
			<point x="411" y="351" type="line"/>
			<point x="412" y="337"/>
			<point x="426" y="44"/>
			<point x="428" y="-2" type="curve"/>
			<point x="433" y="-7" type="line"/>
			<point x="460" y="-7" type="line"/>
			<point x="563" y="100"/>
			<point x="650" y="219"/>
			<point x="697" y="310" type="curve" smooth="yes"/>
			<point x="743" y="397"/>
			<point x="748" y="424"/>
			<point x="748" y="444" type="curve" smooth="yes"/>
			<point x="748" y="460"/>
			<point x="746" y="468"/>
			<point x="743" y="474" type="curve"/>
			<point x="737" y="481"/>
			<point x="726" y="486"/>
			<point x="710" y="487" type="curve" smooth="yes"/>
			<point x="679" y="487"/>
			<point x="651" y="466"/>
			<point x="651" y="416" type="curve" smooth="yes"/>
			<point x="651" y="407"/>
			<point x="652" y="392"/>
			<point x="653" y="380" type="curve" smooth="yes"/>
			<point x="659" y="308" type="line"/>
			<point x="677" y="359" type="line"/>
			<point x="671" y="347"/>
			<point x="666" y="336"/>
			<point x="659" y="325" type="curve" smooth="yes"/>
			<point x="605" y="229"/>
			<point x="555" y="167"/>
			<point x="482" y="76" type="curve"/>
			<point x="494" y="68" type="line"/>
			<point x="494" y="84"/>
			<point x="480" y="454"/>
			<point x="479" y="475" type="curve"/>
			<point x="440" y="475" type="line"/>
			<point x="373" y="317"/>
			<point x="303" y="193"/>
			<point x="223" y="81" type="curve"/>
			<point x="234" y="68" type="line"/>
			<point x="235" y="186"/>
			<point x="231" y="331"/>
			<point x="216" y="420" type="curve" smooth="yes"/>
			<point x="208" y="468"/>
			<point x="191" y="487"/>
			<point x="149" y="487" type="curve" smooth="yes"/>
			<point x="104" y="487"/>
			<point x="61" y="445"/>
			<point x="27" y="367" type="curve"/>
			<point x="47" y="350" type="line"/>
			<point x="87" y="403"/>
			<point x="99" y="421"/>
			<point x="117" y="421" type="curve" smooth="yes"/>
			<point x="133" y="421"/>
			<point x="142" y="414"/>
			<point x="147" y="374" type="curve" smooth="yes"/>
			<point x="160" y="274"/>
			<point x="168" y="160"/>
			<point x="169" y="-2" type="curve"/>
		</contour>
		<contour>
			<point name="aboveLC" x="455" y="506" type="move"/>
		</contour>
		<contour>
			<point name="belowLC" x="325" y="-22" type="move"/>
		</contour>
	</outline>
</glyph>
<glyph name="x" format="1">
	<unicode hex="0078"/>
	<advance width="532"/>
	<outline>
		<contour>
			<point x="-7" y="58" type="curve"/>
			<point x="-3" y="10"/>
			<point x="34" y="-13"/>
			<point x="74" y="-13" type="curve" smooth="yes"/>
			<point x="101" y="-13"/>
			<point x="121" y="-4"/>
			<point x="144" y="21" type="curve" smooth="yes"/>
			<point x="186" y="72"/>
			<point x="232" y="140"/>
			<point x="285" y="228" type="curve"/>
			<point x="271" y="261" type="line"/>
			<point x="219" y="184"/>
			<point x="174" y="119"/>
			<point x="116" y="56" type="curve" smooth="yes"/>
			<point x="105" y="44"/>
			<point x="95" y="35"/>
			<point x="82" y="25" type="curve"/>
			<point x="117" y="16" type="line"/>
			<point x="86" y="61" type="line" smooth="yes"/>
			<point x="67" y="89"/>
			<point x="56" y="93"/>
			<point x="35" y="93" type="curve" smooth="yes"/>
			<point x="19" y="93"/>
			<point x="-3" y="81"/>
		</contour>
		<contour>
			<point x="288" y="84" type="line" smooth="yes"/>
			<point x="310" y="11"/>
			<point x="333" y="-13"/>
			<point x="378" y="-13" type="curve" smooth="yes"/>
			<point x="440" y="-13"/>
			<point x="484" y="52"/>
			<point x="523" y="109" type="curve"/>
			<point x="498" y="128" type="line"/>
			<point x="462" y="83"/>
			<point x="427" y="55"/>
			<point x="401" y="55" type="curve" smooth="yes"/>
			<point x="373" y="55"/>
			<point x="359" y="67"/>
			<point x="344" y="122" type="curve" smooth="yes"/>
			<point x="266" y="401" type="line" smooth="yes"/>
			<point x="248" y="465"/>
			<point x="229" y="487"/>
			<point x="191" y="487" type="curve" smooth="yes"/>
			<point x="151" y="487"/>
			<point x="102" y="452"/>
			<point x="71" y="367" type="curve"/>
			<point x="91" y="351" type="line"/>
			<point x="124" y="405"/>
			<point x="150" y="421"/>
			<point x="167" y="421" type="curve" smooth="yes"/>
			<point x="185" y="421"/>
			<point x="192" y="408"/>
			<point x="204" y="366" type="curve" smooth="yes"/>
		</contour>
		<contour>
			<point x="290" y="220" type="line"/>
			<point x="336" y="288"/>
			<point x="382" y="354"/>
			<point x="439" y="413" type="curve" smooth="yes"/>
			<point x="451" y="427"/>
			<point x="464" y="439"/>
			<point x="477" y="449" type="curve"/>
			<point x="431" y="452" type="line"/>
			<point x="459" y="420" type="line" smooth="yes"/>
			<point x="485" y="391"/>
			<point x="494" y="387"/>
			<point x="514" y="387" type="curve" smooth="yes"/>
			<point x="536" y="387"/>
			<point x="554" y="406"/>
			<point x="554" y="434" type="curve"/>
			<point x="546" y="470"/>
			<point x="513" y="487"/>
			<point x="488" y="487" type="curve" smooth="yes"/>
			<point x="456" y="487"/>
			<point x="434" y="477"/>
			<point x="405" y="443" type="curve" smooth="yes"/>
			<point x="376" y="407"/>
			<point x="327" y="339"/>
			<point x="275" y="252" type="curve"/>
		</contour>
		<contour>
			<point name="aboveLC" x="336" y="506" type="move"/>
		</contour>
		<contour>
			<point name="belowLC" x="224" y="-22" type="move"/>
		</contour>
	</outline>
</glyph>
<glyph name="y" format="1">
	<unicode hex="0079"/>
	<advance width="502"/>
	<outline>
		<contour>
			<point x="-138" y="-179" type="curve" smooth="yes"/>
			<point x="-138" y="-220"/>
			<point x="-98" y="-251"/>
			<point x="-38" y="-251" type="curve" smooth="yes"/>
			<point x="31" y="-251"/>
			<point x="89" y="-207"/>
			<point x="146" y="-140" type="curve" smooth="yes"/>
			<point x="195" y="-83"/>
			<point x="222" y="-39"/>
			<point x="258" y="16" type="curve" smooth="yes"/>
			<point x="304" y="86"/>
			<point x="340" y="160"/>
			<point x="389" y="248" type="curve" smooth="yes"/>
			<point x="427" y="316"/>
			<point x="461" y="360"/>
			<point x="500" y="402" type="curve" smooth="yes"/>
			<point x="526" y="428"/>
			<point x="536" y="445"/>
			<point x="536" y="460" type="curve" smooth="yes"/>
			<point x="536" y="478"/>
			<point x="521" y="487"/>
			<point x="500" y="487" type="curve"/>
			<point x="464" y="469"/>
			<point x="425" y="420"/>
			<point x="366" y="300" type="curve" smooth="yes"/>
			<point x="318" y="201"/>
			<point x="276" y="117"/>
			<point x="222" y="30" type="curve" smooth="yes"/>
			<point x="180" y="-38"/>
			<point x="165" y="-63"/>
			<point x="125" y="-108" type="curve" smooth="yes"/>
			<point x="87" y="-151"/>
			<point x="32" y="-200"/>
			<point x="-26" y="-216" type="curve"/>
			<point x="30" y="-229" type="line"/>
			<point x="-13" y="-183" type="line" smooth="yes"/>
			<point x="-38" y="-157"/>
			<point x="-57" y="-141"/>
			<point x="-89" y="-141" type="curve" smooth="yes"/>
			<point x="-105" y="-141"/>
			<point x="-122" y="-146"/>
			<point x="-134" y="-159" type="curve"/>
			<point x="-137" y="-165"/>
			<point x="-138" y="-172"/>
		</contour>
		<contour>
			<point x="253" y="28" type="line"/>
			<point x="249" y="125"/>
			<point x="243" y="231"/>
			<point x="230" y="353" type="curve" smooth="yes"/>
			<point x="218" y="466"/>
			<point x="197" y="487"/>
			<point x="159" y="487" type="curve" smooth="yes"/>
			<point x="117" y="487"/>
			<point x="61" y="453"/>
			<point x="22" y="368" type="curve"/>
			<point x="43" y="350" type="line"/>
			<point x="81" y="403"/>
			<point x="106" y="421"/>
			<point x="123" y="421" type="curve" smooth="yes"/>
			<point x="142" y="421"/>
			<point x="147" y="404"/>
			<point x="163" y="275" type="curve" smooth="yes"/>
			<point x="180" y="144"/>
			<point x="190" y="78"/>
			<point x="198" y="-37" type="curve"/>
		</contour>
		<contour>
			<point name="aboveLC" x="334" y="496" type="move"/>
		</contour>
		<contour>
			<point name="belowLC" x="8" y="-255" type="move"/>
		</contour>
	</outline>
</glyph>
<glyph name="z" format="1">
	<unicode hex="007A"/>
	<advance width="430"/>
	<outline>
		<contour>
			<point x="98" y="80" type="line"/>
			<point x="191" y="171"/>
			<point x="276" y="260"/>
			<point x="367" y="354" type="curve" smooth="yes"/>
			<point x="418" y="407"/>
			<point x="451" y="446"/>
			<point x="464" y="477" type="curve"/>
			<point x="452" y="487" type="line"/>
			<point x="384" y="478" type="line"/>
			<point x="351" y="390" type="line"/>
			<point x="260" y="291"/>
			<point x="169" y="197"/>
			<point x="77" y="107" type="curve" smooth="yes"/>
			<point x="33" y="65"/>
			<point x="10" y="35"/>
			<point x="-10" y="-1" type="curve"/>
			<point x="3" y="-13" type="line"/>
			<point x="72" y="-6" type="line"/>
		</contour>
		<contour>
			<point x="85" y="89" type="line"/>
			<point x="134" y="37" type="line" smooth="yes"/>
			<point x="160" y="9"/>
			<point x="219" y="-23"/>
			<point x="259" y="-23" type="curve" smooth="yes"/>
			<point x="330" y="-23"/>
			<point x="408" y="48"/>
			<point x="408" y="125" type="curve" smooth="yes"/>
			<point x="408" y="138"/>
			<point x="406" y="150"/>
			<point x="403" y="165" type="curve"/>
			<point x="394" y="170"/>
			<point x="384" y="173"/>
			<point x="374" y="173" type="curve" smooth="yes"/>
			<point x="349" y="173"/>
			<point x="330" y="151"/>
			<point x="330" y="124" type="curve" smooth="yes"/>
			<point x="330" y="102"/>
			<point x="338" y="87"/>
			<point x="352" y="70" type="curve" smooth="yes"/>
			<point x="366" y="53" type="line"/>
			<point x="379" y="67" type="line"/>
			<point x="344" y="55"/>
			<point x="320" y="52"/>
			<point x="296" y="52" type="curve" smooth="yes"/>
			<point x="256" y="52"/>
			<point x="199" y="76"/>
			<point x="161" y="101" type="curve" smooth="yes"/>
			<point x="113" y="133" type="line"/>
		</contour>
		<contour>
			<point x="345" y="351" type="curve"/>
			<point x="381" y="399" type="line"/>
			<point x="306" y="435"/>
			<point x="228" y="465"/>
			<point x="146" y="487" type="curve"/>
			<point x="77" y="432" type="line"/>
			<point x="54" y="284" type="line"/>
			<point x="95" y="280" type="line"/>
			<point x="148" y="451" type="line"/>
			<point x="94" y="418" type="line"/>
			<point x="198" y="398"/>
			<point x="268" y="379"/>
		</contour>
		<contour>
			<point name="aboveLC" x="283" y="506" type="move"/>
		</contour>
		<contour>
			<point name="belowLC" x="149" y="-22" type="move"/>
		</contour>
	</outline>
</glyph>
<glyph name="braceleft" format="1">
	<unicode hex="007B"/>
	<advance width="303"/>
	<outline>
		<contour>
			<point x="68" y="-67" type="curve" smooth="yes"/>
			<point x="68" y="-127"/>
			<point x="113" y="-159"/>
			<point x="196" y="-159" type="curve" smooth="yes"/>
			<point x="241" y="-159" type="line"/>
			<point x="249" y="-120" type="line"/>
			<point x="223" y="-117" type="line" smooth="yes"/>
			<point x="167" y="-110"/>
			<point x="145" y="-97"/>
			<point x="145" y="-60" type="curve" smooth="yes"/>
			<point x="145" y="40"/>
			<point x="241" y="107"/>
			<point x="241" y="196" type="curve" smooth="yes"/>
			<point x="241" y="246"/>
			<point x="207" y="281"/>
			<point x="127" y="283" type="curve"/>
			<point x="125" y="273" type="line"/>
			<point x="237" y="275"/>
			<point x="287" y="344"/>
			<point x="287" y="426" type="curve" smooth="yes"/>
			<point x="287" y="470"/>
			<point x="272" y="508"/>
			<point x="272" y="555" type="curve" smooth="yes"/>
			<point x="272" y="642"/>
			<point x="303" y="664"/>
			<point x="383" y="673" type="curve" smooth="yes"/>
			<point x="411" y="676" type="line"/>
			<point x="419" y="715" type="line"/>
			<point x="374" y="715" type="line" smooth="yes"/>
			<point x="271" y="715"/>
			<point x="196" y="662"/>
			<point x="196" y="565" type="curve" smooth="yes"/>
			<point x="196" y="504"/>
			<point x="234" y="455"/>
			<point x="234" y="402" type="curve" smooth="yes"/>
			<point x="234" y="350"/>
			<point x="197" y="310"/>
			<point x="95" y="298" type="curve"/>
			<point x="91" y="278" type="line"/>
			<point x="87" y="258" type="line"/>
			<point x="160" y="248"/>
			<point x="191" y="222"/>
			<point x="191" y="188" type="curve" smooth="yes"/>
			<point x="191" y="106"/>
			<point x="68" y="34"/>
		</contour>
	</outline>
</glyph>
<glyph name="bar" format="1">
	<unicode hex="007C"/>
	<advance width="240"/>
	<outline>
		<contour>
			<point x="146" y="-250" type="line"/>
			<point x="196" y="-250" type="line"/>
			<point x="196" y="750" type="line"/>
			<point x="146" y="750" type="line"/>
		</contour>
	</outline>
</glyph>
<glyph name="asciitilde" format="1">
	<unicode hex="007E"/>
	<advance width="530"/>
	<outline>
		<contour>
			<point x="284" y="366" type="curve" smooth="yes"/>
			<point x="245" y="401"/>
			<point x="211" y="421"/>
			<point x="169" y="421" type="curve" smooth="yes"/>
			<point x="95" y="421"/>
			<point x="56" y="372"/>
			<point x="50" y="282" type="curve"/>
			<point x="99" y="274" type="line"/>
			<point x="108" y="344"/>
			<point x="135" y="365"/>
			<point x="163" y="365" type="curve" smooth="yes"/>
			<point x="190" y="365"/>
			<point x="215" y="354"/>
			<point x="247" y="324" type="curve" smooth="yes"/>
			<point x="286" y="289"/>
			<point x="320" y="269"/>
			<point x="362" y="269" type="curve" smooth="yes"/>
			<point x="436" y="269"/>
			<point x="475" y="318"/>
			<point x="481" y="408" type="curve"/>
			<point x="432" y="416" type="line"/>
			<point x="423" y="346"/>
			<point x="396" y="325"/>
			<point x="368" y="325" type="curve" smooth="yes"/>
			<point x="341" y="325"/>
			<point x="316" y="336"/>
		</contour>
	</outline>
</glyph>
<glyph name="cent" format="1">
	<unicode hex="00A2"/>
	<advance width="431"/>
	<outline>
		<contour>
			<point x="237" y="-15" type="line"/>
			<point x="374" y="660" type="line"/>
			<point x="334" y="660" type="line"/>
			<point x="197" y="-15" type="line"/>
		</contour>
		<component base="c" xOffset="22" yOffset="90"/>
	</outline>
</glyph>
<glyph name="sterling" format="1">
	<unicode hex="00A3"/>
	<advance width="497"/>
	<outline>
		<contour>
			<point x="34" y="0" type="line"/>
			<point x="464" y="0" type="line"/>
			<point x="478" y="70" type="line"/>
			<point x="99" y="70" type="line"/>
			<point x="105" y="62" type="line"/>
			<point x="226" y="115"/>
			<point x="260" y="230"/>
			<point x="260" y="322" type="curve" smooth="yes"/>
			<point x="260" y="387"/>
			<point x="242" y="418"/>
			<point x="260" y="508" type="curve" smooth="yes"/>
			<point x="272" y="568"/>
			<point x="320" y="611"/>
			<point x="386" y="611" type="curve" smooth="yes"/>
			<point x="414" y="611"/>
			<point x="451" y="603"/>
			<point x="493" y="578" type="curve"/>
			<point x="444" y="615" type="line"/>
			<point x="450" y="535" type="line" smooth="yes"/>
			<point x="454" y="477"/>
			<point x="468" y="462"/>
			<point x="504" y="462" type="curve" smooth="yes"/>
			<point x="531" y="462"/>
			<point x="543" y="477"/>
			<point x="551" y="502" type="curve"/>
			<point x="551" y="620"/>
			<point x="468" y="656"/>
			<point x="376" y="656" type="curve" smooth="yes"/>
			<point x="254" y="656"/>
			<point x="175" y="560"/>
			<point x="175" y="461" type="curve" smooth="yes"/>
			<point x="175" y="393"/>
			<point x="202" y="354"/>
			<point x="202" y="302" type="curve" smooth="yes"/>
			<point x="202" y="218"/>
			<point x="150" y="115"/>
			<point x="48" y="74" type="curve"/>
		</contour>
		<contour>
			<point x="98" y="285" type="line"/>
			<point x="420" y="285" type="line"/>
			<point x="430" y="335" type="line"/>
			<point x="108" y="335" type="line"/>
		</contour>
	</outline>
</glyph>
<glyph name="currency" format="1">
	<unicode hex="00A4"/>
	<advance width="497"/>
	<outline>
		<contour>
			<point x="77" y="119" type="curve" smooth="yes"/>
			<point x="89" y="103"/>
			<point x="107" y="103"/>
			<point x="132" y="123" type="curve" smooth="yes"/>
			<point x="149" y="137"/>
			<point x="179" y="173"/>
			<point x="201" y="197" type="curve"/>
			<point x="177" y="227" type="line"/>
			<point x="150" y="210"/>
			<point x="109" y="187"/>
			<point x="92" y="173" type="curve" smooth="yes"/>
			<point x="68" y="152"/>
			<point x="64" y="134"/>
		</contour>
		<contour>
			<point x="129" y="529" type="curve" smooth="yes"/>
			<point x="113" y="514"/>
			<point x="113" y="496"/>
			<point x="133" y="475" type="curve" smooth="yes"/>
			<point x="147" y="461"/>
			<point x="183" y="438"/>
			<point x="207" y="421" type="curve"/>
			<point x="237" y="451" type="line"/>
			<point x="220" y="475"/>
			<point x="197" y="511"/>
			<point x="183" y="525" type="curve" smooth="yes"/>
			<point x="162" y="545"/>
			<point x="144" y="545"/>
		</contour>
		<contour>
			<point x="329" y="503" type="curve" smooth="yes"/>
			<point x="234" y="503"/>
			<point x="136" y="427"/>
			<point x="136" y="309" type="curve" smooth="yes"/>
			<point x="136" y="219"/>
			<point x="206" y="155"/>
			<point x="299" y="155" type="curve" smooth="yes"/>
			<point x="394" y="155"/>
			<point x="491" y="231"/>
			<point x="491" y="349" type="curve" smooth="yes"/>
			<point x="491" y="439"/>
			<point x="421" y="503"/>
		</contour>
		<contour>
			<point x="499" y="119" type="curve" smooth="yes"/>
			<point x="515" y="134"/>
			<point x="515" y="152"/>
			<point x="495" y="173" type="curve" smooth="yes"/>
			<point x="481" y="187"/>
			<point x="445" y="210"/>
			<point x="421" y="227" type="curve"/>
			<point x="391" y="197" type="line"/>
			<point x="408" y="173"/>
			<point x="431" y="137"/>
			<point x="445" y="123" type="curve" smooth="yes"/>
			<point x="466" y="103"/>
			<point x="484" y="103"/>
		</contour>
		<contour>
			<point x="551" y="529" type="curve" smooth="yes"/>
			<point x="539" y="545"/>
			<point x="521" y="545"/>
			<point x="496" y="525" type="curve" smooth="yes"/>
			<point x="479" y="511"/>
			<point x="449" y="475"/>
			<point x="427" y="451" type="curve"/>
			<point x="451" y="421" type="line"/>
			<point x="478" y="438"/>
			<point x="519" y="461"/>
			<point x="536" y="475" type="curve" smooth="yes"/>
			<point x="560" y="496"/>
			<point x="564" y="514"/>
		</contour>
		<contour>
			<point x="324" y="454" type="curve" smooth="yes"/>
			<point x="388" y="454"/>
			<point x="436" y="409"/>
			<point x="436" y="344" type="curve" smooth="yes"/>
			<point x="436" y="260"/>
			<point x="370" y="204"/>
			<point x="303" y="204" type="curve" smooth="yes"/>
			<point x="239" y="204"/>
			<point x="191" y="249"/>
			<point x="191" y="313" type="curve" smooth="yes"/>
			<point x="192" y="398"/>
			<point x="259" y="454"/>
		</contour>
	</outline>
</glyph>
<glyph name="yen" format="1">
	<unicode hex="00A5"/>
	<advance width="539"/>
	<outline>
		<contour>
			<point x="141" y="0" type="line"/>
			<point x="278" y="0" type="line"/>
			<point x="414" y="0" type="line"/>
			<point x="422" y="39" type="line"/>
			<point x="298" y="53" type="line"/>
			<point x="289" y="53" type="line"/>
			<point x="279" y="53" type="line"/>
			<point x="149" y="39" type="line"/>
		</contour>
		<contour>
			<point x="233" y="592" type="line"/>
			<point x="243" y="592" type="line"/>
			<point x="252" y="592" type="line"/>
			<point x="363" y="607" type="line"/>
			<point x="371" y="645" type="line"/>
			<point x="254" y="645" type="line"/>
			<point x="137" y="645" type="line"/>
			<point x="129" y="607" type="line"/>
		</contour>
		<contour>
			<point x="577" y="592" type="line"/>
			<point x="667" y="607" type="line"/>
			<point x="675" y="645" type="line"/>
			<point x="579" y="645" type="line"/>
			<point x="473" y="645" type="line"/>
			<point x="465" y="607" type="line"/>
			<point x="558" y="592" type="line"/>
			<point x="568" y="592" type="line"/>
		</contour>
		<contour>
			<point x="129" y="268" type="line"/>
			<point x="539" y="268" type="line"/>
			<point x="549" y="318" type="line"/>
			<point x="393" y="318" type="line"/>
			<point x="352" y="299" type="line"/>
			<point x="340" y="318" type="line"/>
			<point x="139" y="318" type="line"/>
		</contour>
		<contour>
			<point x="298" y="274" type="line" smooth="yes"/>
			<point x="278" y="173"/>
			<point x="262" y="97"/>
			<point x="240" y="0" type="curve"/>
			<point x="316" y="0" type="line"/>
			<point x="334" y="99"/>
			<point x="349" y="175"/>
			<point x="369" y="274" type="curve" smooth="yes"/>
			<point x="376" y="309" type="line"/>
			<point x="305" y="309" type="line"/>
		</contour>
		<contour>
			<point x="347" y="237" type="curve"/>
			<point x="365" y="286" type="line"/>
			<point x="263" y="645" type="line"/>
			<point x="263" y="645"/>
			<point x="181" y="645"/>
			<point x="181" y="645" type="curve"/>
			<point x="308" y="245" type="line"/>
			<point x="308" y="245"/>
			<point x="347" y="237"/>
		</contour>
		<contour>
			<point x="106" y="156" type="line"/>
			<point x="516" y="156" type="line"/>
			<point x="526" y="206" type="line"/>
			<point x="116" y="206" type="line"/>
		</contour>
		<contour>
			<point x="377" y="289" type="line"/>
			<point x="629" y="645" type="line"/>
			<point x="629" y="645"/>
			<point x="580" y="645"/>
			<point x="580" y="645" type="curve"/>
			<point x="326" y="277" type="line"/>
		</contour>
	</outline>
</glyph>
<glyph name="brokenbar" format="1">
	<unicode hex="00A6"/>
	<advance width="250"/>
	<outline>
		<contour>
			<point x="113" y="-250" type="line"/>
			<point x="169" y="-250" type="line"/>
			<point x="169" y="200" type="line"/>
			<point x="113" y="200" type="line"/>
		</contour>
		<contour>
			<point x="169" y="320" type="line"/>
			<point x="169" y="750" type="line"/>
			<point x="113" y="750" type="line"/>
			<point x="113" y="320" type="line"/>
		</contour>
	</outline>
</glyph>
<glyph name="section" format="1">
	<unicode hex="00A7"/>
	<advance width="488"/>
	<outline>
		<contour>
			<point x="379" y="686" type="curve" smooth="yes"/>
			<point x="256" y="686"/>
			<point x="192" y="620"/>
			<point x="192" y="537" type="curve" smooth="yes"/>
			<point x="192" y="468"/>
			<point x="241" y="435"/>
			<point x="291" y="397" type="curve" smooth="yes"/>
			<point x="350" y="352"/>
			<point x="381" y="320"/>
			<point x="381" y="278" type="curve" smooth="yes"/>
			<point x="381" y="230"/>
			<point x="356" y="188"/>
			<point x="267" y="165" type="curve"/>
			<point x="282" y="137" type="line"/>
			<point x="394" y="157"/>
			<point x="448" y="222"/>
			<point x="448" y="290" type="curve" smooth="yes"/>
			<point x="448" y="358"/>
			<point x="403" y="394"/>
			<point x="337" y="445" type="curve" smooth="yes"/>
			<point x="284" y="486"/>
			<point x="256" y="516"/>
			<point x="256" y="557" type="curve" smooth="yes"/>
			<point x="256" y="606"/>
			<point x="286" y="651"/>
			<point x="394" y="651" type="curve" smooth="yes"/>
			<point x="405" y="651"/>
			<point x="417" y="652"/>
			<point x="428" y="651" type="curve"/>
			<point x="387" y="672" type="line"/>
			<point x="414" y="615" type="line" smooth="yes"/>
			<point x="425" y="591"/>
			<point x="442" y="581"/>
			<point x="465" y="581" type="curve" smooth="yes"/>
			<point x="495" y="581"/>
			<point x="506" y="602"/>
			<point x="505" y="621" type="curve"/>
			<point x="496" y="660"/>
			<point x="451" y="686"/>
		</contour>
		<contour>
			<point x="164" y="-107" type="curve" smooth="yes"/>
			<point x="283" y="-107"/>
			<point x="348" y="-35"/>
			<point x="348" y="52" type="curve" smooth="yes"/>
			<point x="348" y="112"/>
			<point x="314" y="148"/>
			<point x="246" y="193" type="curve" smooth="yes"/>
			<point x="187" y="232"/>
			<point x="155" y="271"/>
			<point x="155" y="313" type="curve" smooth="yes"/>
			<point x="155" y="366"/>
			<point x="191" y="401"/>
			<point x="284" y="431" type="curve"/>
			<point x="268" y="458" type="line"/>
			<point x="157" y="434"/>
			<point x="91" y="376"/>
			<point x="91" y="293" type="curve" smooth="yes"/>
			<point x="91" y="225"/>
			<point x="140" y="181"/>
			<point x="196" y="144" type="curve" smooth="yes"/>
			<point x="261" y="101"/>
			<point x="282" y="74"/>
			<point x="282" y="30" type="curve" smooth="yes"/>
			<point x="282" y="-29"/>
			<point x="241" y="-72"/>
			<point x="161" y="-72" type="curve" smooth="yes"/>
			<point x="126" y="-72"/>
			<point x="104" y="-61"/>
			<point x="81" y="-53" type="curve"/>
			<point x="131" y="-82" type="line"/>
			<point x="112" y="-21" type="line" smooth="yes"/>
			<point x="104" y="5"/>
			<point x="82" y="19"/>
			<point x="57" y="19" type="curve" smooth="yes"/>
			<point x="36" y="19"/>
			<point x="22" y="10"/>
			<point x="13" y="-12" type="curve"/>
			<point x="25" y="-69"/>
			<point x="69" y="-107"/>
		</contour>
	</outline>
</glyph>
<glyph name="copyright" format="1">
	<unicode hex="00A9"/>
	<advance width="756"/>
	<outline>
		<contour>
			<point x="80" y="337" type="curve" smooth="yes"/>
			<point x="80" y="530"/>
			<point x="209" y="645"/>
			<point x="378" y="645" type="curve" smooth="yes"/>
			<point x="547" y="645"/>
			<point x="676" y="529"/>
			<point x="676" y="337" type="curve" smooth="yes"/>
			<point x="676" y="145"/>
			<point x="547" y="25"/>
			<point x="378" y="25" type="curve" smooth="yes"/>
			<point x="209" y="25"/>
			<point x="80" y="144"/>
		</contour>
		<contour>
			<point x="30" y="337" type="curve" smooth="yes"/>
			<point x="30" y="119"/>
			<point x="184" y="-15"/>
			<point x="378" y="-15" type="curve" smooth="yes"/>
			<point x="572" y="-15"/>
			<point x="726" y="119"/>
			<point x="726" y="337" type="curve" smooth="yes"/>
			<point x="726" y="555"/>
			<point x="572" y="685"/>
			<point x="378" y="685" type="curve" smooth="yes"/>
			<point x="184" y="685"/>
			<point x="30" y="555"/>
		</contour>
		<contour>
			<point x="401" y="175" type="curve" smooth="yes"/>
			<point x="322" y="175"/>
			<point x="269" y="232"/>
			<point x="269" y="338" type="curve" smooth="yes"/>
			<point x="269" y="445"/>
			<point x="328" y="502"/>
			<point x="401" y="502" type="curve" smooth="yes"/>
			<point x="428" y="502"/>
			<point x="462" y="493"/>
			<point x="495" y="466" type="curve"/>
			<point x="451" y="514" type="line"/>
			<point x="466" y="418" type="line"/>
			<point x="509" y="418" type="line"/>
			<point x="507" y="513" type="line"/>
			<point x="468" y="535"/>
			<point x="436" y="541"/>
			<point x="393" y="541" type="curve" smooth="yes"/>
			<point x="282" y="541"/>
			<point x="199" y="454"/>
			<point x="199" y="338" type="curve" smooth="yes"/>
			<point x="199" y="219"/>
			<point x="278" y="135"/>
			<point x="394" y="135" type="curve" smooth="yes"/>
			<point x="436" y="135"/>
			<point x="476" y="143"/>
			<point x="512" y="162" type="curve"/>
			<point x="515" y="257" type="line"/>
			<point x="471" y="257" type="line"/>
			<point x="456" y="161" type="line"/>
			<point x="500" y="209" type="line"/>
			<point x="469" y="182"/>
			<point x="424" y="175"/>
		</contour>
	</outline>
</glyph>
<glyph name="logicalnot" format="1">
	<unicode hex="00AC"/>
	<advance width="497"/>
	<outline>
		<contour>
			<point x="95" y="340" type="line"/>
			<point x="476" y="340" type="line"/>
			<point x="459" y="364" type="line"/>
			<point x="459" y="203" type="line"/>
			<point x="525" y="203" type="line"/>
			<point x="525" y="400" type="line"/>
			<point x="95" y="400" type="line"/>
		</contour>
	</outline>
</glyph>
<glyph name="registered" format="1">
	<unicode hex="00AE"/>
	<advance width="443"/>
	<outline>
		<contour>
			<point x="303" y="318" type="curve" smooth="yes"/>
			<point x="424" y="318"/>
			<point x="527" y="397"/>
			<point x="527" y="537" type="curve" smooth="yes"/>
			<point x="527" y="646"/>
			<point x="449" y="712"/>
			<point x="350" y="712" type="curve" smooth="yes"/>
			<point x="230" y="712"/>
			<point x="126" y="632"/>
			<point x="126" y="497" type="curve" smooth="yes"/>
			<point x="126" y="385"/>
			<point x="204" y="318"/>
		</contour>
		<contour>
			<point x="309" y="348" type="curve" smooth="yes"/>
			<point x="228" y="348"/>
			<point x="168" y="408"/>
			<point x="168" y="503" type="curve" smooth="yes"/>
			<point x="168" y="615"/>
			<point x="252" y="682"/>
			<point x="342" y="682" type="curve" smooth="yes"/>
			<point x="424" y="682"/>
			<point x="485" y="623"/>
			<point x="485" y="531" type="curve" smooth="yes"/>
			<point x="485" y="425"/>
			<point x="403" y="348"/>
		</contour>
		<contour>
			<point x="221" y="419" type="line"/>
			<point x="267" y="419" type="line"/>
			<point x="313" y="419" type="line"/>
			<point x="316" y="434" type="line"/>
			<point x="275" y="439" type="line"/>
			<point x="271" y="439" type="line"/>
			<point x="267" y="439" type="line"/>
			<point x="224" y="434" type="line"/>
		</contour>
		<contour>
			<point x="247" y="419" type="line"/>
			<point x="288" y="419" type="line"/>
			<point x="329" y="620" type="line"/>
			<point x="288" y="620" type="line"/>
		</contour>
		<contour>
			<point x="259" y="605" type="line"/>
			<point x="300" y="600" type="line"/>
			<point x="304" y="600" type="line"/>
			<point x="308" y="620" type="line"/>
			<point x="262" y="620" type="line"/>
		</contour>
		<contour>
			<point x="294" y="511" type="line"/>
			<point x="324" y="511" type="line" smooth="yes"/>
			<point x="385" y="511"/>
			<point x="413" y="534"/>
			<point x="413" y="570" type="curve" smooth="yes"/>
			<point x="413" y="603"/>
			<point x="388" y="620"/>
			<point x="349" y="620" type="curve" smooth="yes"/>
			<point x="316" y="620" type="line"/>
			<point x="313" y="603" type="line"/>
			<point x="348" y="603" type="line" smooth="yes"/>
			<point x="365" y="603"/>
			<point x="373" y="594"/>
			<point x="373" y="575" type="curve" smooth="yes"/>
			<point x="373" y="543"/>
			<point x="358" y="525"/>
			<point x="327" y="525" type="curve" smooth="yes"/>
			<point x="297" y="525" type="line"/>
		</contour>
		<contour>
			<point x="418" y="419" type="move"/>
			<point x="421" y="434" type="line"/>
			<point x="379" y="439" type="line"/>
			<point x="398" y="427" type="line"/>
			<point x="379" y="480" type="line" smooth="yes"/>
			<point x="370" y="505"/>
			<point x="357" y="517"/>
			<point x="334" y="517" type="curve" smooth="yes"/>
			<point x="297" y="517" type="line"/>
			<point x="295" y="508" type="line"/>
			<point x="315" y="508" type="line" smooth="yes"/>
			<point x="329" y="508"/>
			<point x="332" y="502"/>
			<point x="337" y="487" type="curve" smooth="yes"/>
			<point x="351" y="442" type="line" smooth="yes"/>
			<point x="357" y="421"/>
			<point x="365" y="416"/>
			<point x="387" y="416" type="curve" smooth="yes"/>
			<point x="397" y="416"/>
			<point x="405" y="416"/>
			<point x="418" y="419" type="curve"/>
		</contour>
	</outline>
</glyph>
<glyph name="degree" format="1">
	<unicode hex="00B0"/>
	<advance width="328"/>
	<outline>
		<contour>
			<point x="245" y="464" type="curve" smooth="yes"/>
			<point x="197" y="464"/>
			<point x="160" y="504"/>
			<point x="160" y="556" type="curve" smooth="yes"/>
			<point x="160" y="608"/>
			<point x="197" y="650"/>
			<point x="245" y="650" type="curve" smooth="yes"/>
			<point x="293" y="650"/>
			<point x="330" y="608"/>
			<point x="330" y="556" type="curve" smooth="yes"/>
			<point x="330" y="504"/>
			<point x="293" y="464"/>
		</contour>
		<contour>
			<point x="245" y="429" type="curve" smooth="yes"/>
			<point x="314" y="429"/>
			<point x="372" y="478"/>
			<point x="372" y="556" type="curve" smooth="yes"/>
			<point x="372" y="634"/>
			<point x="314" y="685"/>
			<point x="245" y="685" type="curve" smooth="yes"/>
			<point x="176" y="685"/>
			<point x="118" y="634"/>
			<point x="118" y="556" type="curve" smooth="yes"/>
			<point x="118" y="478"/>
			<point x="176" y="429"/>
		</contour>
	</outline>
</glyph>
<glyph name="plusminus" format="1">
	<unicode hex="00B1"/>
	<advance width="530"/>
	<outline>
		<contour>
			<point x="235" y="97" type="line"/>
			<point x="295" y="97" type="line"/>
			<point x="295" y="558" type="line"/>
			<point x="235" y="558" type="line"/>
		</contour>
		<contour>
			<point x="501" y="302" type="line"/>
			<point x="501" y="358" type="line"/>
			<point x="29" y="358" type="line"/>
			<point x="29" y="302" type="line"/>
		</contour>
		<contour>
			<point x="501" y="0" type="line"/>
			<point x="501" y="56" type="line"/>
			<point x="29" y="56" type="line"/>
			<point x="29" y="0" type="line"/>
		</contour>
	</outline>
</glyph>
<glyph name="paragraph" format="1">
	<unicode hex="00B6"/>
	<advance width="640"/>
	<outline>
		<contour>
			<point x="380" y="163" type="curve"/>
			<point x="389" y="205" type="line"/>
			<point x="305" y="225"/>
			<point x="253" y="289"/>
			<point x="253" y="388" type="curve" smooth="yes"/>
			<point x="253" y="534"/>
			<point x="347" y="624"/>
			<point x="469" y="624" type="curve" smooth="yes"/>
			<point x="589" y="624" type="line"/>
			<point x="598" y="670" type="line"/>
			<point x="475" y="670" type="line" smooth="yes"/>
			<point x="288" y="670"/>
			<point x="160" y="561"/>
			<point x="160" y="393" type="curve" smooth="yes"/>
			<point x="160" y="272"/>
			<point x="241" y="180"/>
		</contour>
		<contour>
			<point x="386" y="-130" type="curve"/>
			<point x="470" y="-130" type="line"/>
			<point x="488" y="-27"/>
			<point x="509" y="77"/>
			<point x="530" y="180" type="curve" smooth="yes"/>
			<point x="566" y="360" type="line" smooth="yes"/>
			<point x="588" y="465"/>
			<point x="609" y="569"/>
			<point x="632" y="670" type="curve"/>
			<point x="551" y="670" type="line"/>
			<point x="452" y="180" type="line" smooth="yes"/>
			<point x="430" y="75"/>
			<point x="409" y="-29"/>
		</contour>
		<contour>
			<point x="573" y="615" type="line"/>
			<point x="583" y="615" type="line"/>
			<point x="716" y="630" type="line"/>
			<point x="724" y="670" type="line"/>
			<point x="584" y="670" type="line"/>
		</contour>
	</outline>
</glyph>
<glyph name="AE" format="1">
	<unicode hex="00C6"/>
	<advance width="890"/>
	<outline>
		<contour>
			<point x="-38" y="0" type="line"/>
			<point x="186" y="0" type="line"/>
			<point x="194" y="40" type="line"/>
			<point x="95" y="55" type="line"/>
			<point x="77" y="55" type="line"/>
			<point x="-30" y="40" type="line"/>
		</contour>
		<contour>
			<point x="22" y="0" type="line"/>
			<point x="79" y="0" type="line"/>
			<point x="540" y="670" type="line"/>
			<point x="489" y="670" type="line"/>
		</contour>
		<contour>
			<point x="220" y="244" type="line"/>
			<point x="481" y="244" type="line"/>
			<point x="490" y="290" type="line"/>
			<point x="251" y="290" type="line"/>
		</contour>
		<contour>
			<point x="309" y="0" type="line"/>
			<point x="435" y="0" type="line"/>
			<point x="445" y="55" type="line"/>
			<point x="439" y="55" type="line"/>
			<point x="317" y="40" type="line"/>
		</contour>
		<contour>
			<point x="365" y="630" type="line"/>
			<point x="486" y="615" type="line"/>
			<point x="548" y="615" type="line"/>
			<point x="559" y="670" type="line"/>
			<point x="373" y="670" type="line"/>
		</contour>
		<contour>
			<point x="394" y="0" type="line"/>
			<point x="482" y="0" type="line"/>
			<point x="498" y="103"/>
			<point x="516" y="207"/>
			<point x="535" y="310" type="curve" smooth="yes"/>
			<point x="603" y="670" type="line"/>
			<point x="515" y="670" type="line"/>
			<point x="499" y="567"/>
			<point x="481" y="463"/>
			<point x="462" y="360" type="curve" smooth="yes"/>
		</contour>
		<contour>
			<point x="435" y="0" type="line"/>
			<point x="808" y="0" type="line"/>
			<point x="847" y="178" type="line"/>
			<point x="797" y="178" type="line"/>
			<point x="734" y="0" type="line"/>
			<point x="789" y="50" type="line"/>
			<point x="445" y="50" type="line"/>
		</contour>
		<contour>
			<point x="497" y="319" type="line"/>
			<point x="722" y="319" type="line"/>
			<point x="730" y="365" type="line"/>
			<point x="506" y="365" type="line"/>
		</contour>
		<contour>
			<point x="549" y="620" type="line"/>
			<point x="853" y="620" type="line"/>
			<point x="821" y="670" type="line"/>
			<point x="821" y="492" type="line"/>
			<point x="871" y="492" type="line"/>
			<point x="895" y="670" type="line"/>
			<point x="559" y="670" type="line"/>
		</contour>
		<contour>
			<point x="690" y="224" type="line"/>
			<point x="732" y="224" type="line"/>
			<point x="777" y="461" type="line"/>
			<point x="735" y="461" type="line"/>
			<point x="697" y="355" type="line"/>
			<point x="694" y="335" type="line"/>
		</contour>
		<contour>
			<point name="aboveUC" x="658" y="691" type="move"/>
		</contour>
	</outline>
</glyph>
<glyph name="Eth" format="1">
	<unicode hex="00D0"/>
	<advance width="702"/>
	<outline>
		<contour>
			<point x="404" y="320" type="line"/>
			<point x="413" y="366" type="line"/>
			<point x="73" y="366" type="line"/>
			<point x="64" y="320" type="line"/>
		</contour>
		<component base="D"/>
	</outline>
</glyph>
<glyph name="multiply" format="1">
	<unicode hex="00D7"/>
	<advance width="500"/>
	<outline>
		<contour>
			<point x="505" y="474" type="line"/>
			<point x="461" y="518" type="line"/>
			<point x="129" y="186" type="line"/>
			<point x="173" y="142" type="line"/>
		</contour>
		<contour>
			<point x="461" y="142" type="line"/>
			<point x="505" y="186" type="line"/>
			<point x="173" y="518" type="line"/>
			<point x="129" y="474" type="line"/>
		</contour>
	</outline>
</glyph>
<glyph name="Oslash" format="1">
	<unicode hex="00D8"/>
	<advance width="660"/>
	<outline>
		<contour>
			<point x="691" y="657" type="line"/>
			<point x="654" y="690" type="line"/>
			<point x="7" y="13" type="line"/>
			<point x="44" y="-20" type="line"/>
		</contour>
		<component base="O"/>
		<contour>
			<point name="aboveUC" x="413" y="691" type="move"/>
		</contour>
	</outline>
</glyph>
<glyph name="Thorn" format="1">
	<unicode hex="00DE"/>
	<advance width="562"/>
	<outline>
		<contour>
			<point x="172" y="155" type="line"/>
			<point x="274" y="155" type="line" smooth="yes"/>
			<point x="457" y="155"/>
			<point x="564" y="241"/>
			<point x="564" y="365" type="curve" smooth="yes"/>
			<point x="564" y="469"/>
			<point x="486" y="535"/>
			<point x="329" y="535" type="curve" smooth="yes"/>
			<point x="247" y="535" type="line"/>
			<point x="238" y="489" type="line"/>
			<point x="322" y="489" type="line" smooth="yes"/>
			<point x="427" y="489"/>
			<point x="474" y="447"/>
			<point x="474" y="363" type="curve" smooth="yes"/>
			<point x="474" y="268"/>
			<point x="411" y="201"/>
			<point x="282" y="201" type="curve" smooth="yes"/>
			<point x="181" y="201" type="line"/>
		</contour>
		<contour>
			<point x="17" y="0" type="line"/>
			<point x="281" y="0" type="line"/>
			<point x="289" y="40" type="line"/>
			<point x="170" y="55" type="line"/>
			<point x="152" y="55" type="line"/>
			<point x="25" y="40" type="line"/>
		</contour>
		<contour>
			<point x="102" y="0" type="line"/>
			<point x="190" y="0" type="line"/>
			<point x="206" y="103"/>
			<point x="224" y="207"/>
			<point x="243" y="310" type="curve" smooth="yes"/>
			<point x="311" y="670" type="line"/>
			<point x="223" y="670" type="line"/>
			<point x="207" y="567"/>
			<point x="189" y="463"/>
			<point x="170" y="360" type="curve" smooth="yes"/>
		</contour>
		<contour>
			<point x="123" y="630" type="line"/>
			<point x="244" y="615" type="line"/>
			<point x="263" y="615" type="line"/>
			<point x="387" y="630" type="line"/>
			<point x="395" y="670" type="line"/>
			<point x="131" y="670" type="line"/>
		</contour>
	</outline>
</glyph>
<glyph name="germandbls" format="1">
	<unicode hex="00DF"/>
	<advance width="517"/>
	<outline>
		<contour>
			<point x="393" y="717" type="curve" smooth="yes"/>
			<point x="435" y="716"/>
			<point x="467" y="689"/>
			<point x="467" y="633" type="curve" smooth="yes"/>
			<point x="467" y="590"/>
			<point x="451" y="556"/>
			<point x="403" y="511" type="curve" smooth="yes"/>
			<point x="340" y="451"/>
			<point x="293" y="408"/>
			<point x="293" y="345" type="curve" smooth="yes"/>
			<point x="293" y="296"/>
			<point x="322" y="257"/>
			<point x="377" y="211" type="curve" smooth="yes"/>
			<point x="430" y="167"/>
			<point x="439" y="144"/>
			<point x="439" y="119" type="curve" smooth="yes"/>
			<point x="439" y="63"/>
			<point x="388" y="24"/>
			<point x="328" y="24" type="curve" smooth="yes"/>
			<point x="311" y="24"/>
			<point x="296" y="26"/>
			<point x="274" y="33" type="curve"/>
			<point x="323" y="6" type="line"/>
			<point x="298" y="78" type="line" smooth="yes"/>
			<point x="287" y="111"/>
			<point x="271" y="121"/>
			<point x="254" y="121" type="curve" smooth="yes"/>
			<point x="234" y="121"/>
			<point x="215" y="109"/>
			<point x="211" y="86" type="curve"/>
			<point x="220" y="14"/>
			<point x="273" y="-13"/>
			<point x="336" y="-13" type="curve" smooth="yes"/>
			<point x="438" y="-13"/>
			<point x="507" y="57"/>
			<point x="507" y="131" type="curve" smooth="yes"/>
			<point x="507" y="169"/>
			<point x="489" y="209"/>
			<point x="424" y="261" type="curve" smooth="yes"/>
			<point x="382" y="295"/>
			<point x="358" y="323"/>
			<point x="358" y="366" type="curve" smooth="yes"/>
			<point x="358" y="422"/>
			<point x="398" y="451"/>
			<point x="432" y="482" type="curve" smooth="yes"/>
			<point x="487" y="533"/>
			<point x="528" y="577"/>
			<point x="528" y="647" type="curve" smooth="yes"/>
			<point x="528" y="710"/>
			<point x="490" y="751"/>
			<point x="404" y="751" type="curve" smooth="yes"/>
			<point x="353" y="751"/>
			<point x="312" y="739"/>
			<point x="272" y="708" type="curve" smooth="yes"/>
			<point x="213" y="662"/>
			<point x="180" y="605"/>
			<point x="157" y="461" type="curve" smooth="yes"/>
			<point x="92" y="48" type="line" smooth="yes"/>
			<point x="73" y="-74"/>
			<point x="50" y="-125"/>
			<point x="16" y="-167" type="curve" smooth="yes"/>
			<point x="-5" y="-192"/>
			<point x="-31" y="-209"/>
			<point x="-66" y="-220" type="curve"/>
			<point x="-21" y="-220" type="line"/>
			<point x="-46" y="-191" type="line" smooth="yes"/>
			<point x="-65" y="-168"/>
			<point x="-82" y="-158"/>
			<point x="-106" y="-158" type="curve" smooth="yes"/>
			<point x="-137" y="-158"/>
			<point x="-157" y="-173"/>
			<point x="-166" y="-197" type="curve"/>
			<point x="-162" y="-230"/>
			<point x="-124" y="-251"/>
			<point x="-83" y="-251" type="curve" smooth="yes"/>
			<point x="-37" y="-251"/>
			<point x="0" y="-236"/>
			<point x="40" y="-200" type="curve" smooth="yes"/>
			<point x="100" y="-148"/>
			<point x="137" y="-73"/>
			<point x="153" y="22" type="curve" smooth="yes"/>
			<point x="232" y="499" type="line" smooth="yes"/>
			<point x="250" y="603"/>
			<point x="265" y="644"/>
			<point x="307" y="683" type="curve" smooth="yes"/>
			<point x="330" y="703"/>
			<point x="360" y="717"/>
		</contour>
	</outline>
</glyph>
<glyph name="ae" format="1">
	<unicode hex="00E6"/>
	<advance width="687"/>
	<outline>
		<contour>
			<point x="136" y="-13" type="curve" smooth="yes"/>
			<point x="207" y="-13"/>
			<point x="296" y="67"/>
			<point x="366" y="171" type="curve"/>
			<point x="357" y="193" type="line"/>
			<point x="269" y="88"/>
			<point x="219" y="55"/>
			<point x="177" y="55" type="curve" smooth="yes"/>
			<point x="141" y="55"/>
			<point x="117" y="84"/>
			<point x="117" y="145" type="curve" smooth="yes"/>
			<point x="117" y="234"/>
			<point x="155" y="312"/>
			<point x="203" y="362" type="curve" smooth="yes"/>
			<point x="240" y="400"/>
			<point x="282" y="421"/>
			<point x="314" y="421" type="curve" smooth="yes"/>
			<point x="371" y="421"/>
			<point x="406" y="397"/>
			<point x="426" y="367" type="curve"/>
			<point x="462" y="401" type="line"/>
			<point x="443" y="446"/>
			<point x="400" y="487"/>
			<point x="349" y="487" type="curve" smooth="yes"/>
			<point x="221" y="487"/>
			<point x="41" y="278"/>
			<point x="41" y="104" type="curve" smooth="yes"/>
			<point x="41" y="22"/>
			<point x="88" y="-13"/>
		</contour>
		<component base="e" xOffset="257"/>
		<contour>
			<point name="aboveLC" x="440" y="506" type="move"/>
		</contour>
		<contour>
			<point name="belowLC" x="319" y="-22" type="move"/>
		</contour>
	</outline>
</glyph>
<glyph name="eth" format="1">
	<unicode hex="00F0"/>
	<advance width="486"/>
	<outline>
		<contour>
			<point x="212" y="-15" type="curve"/>
			<point x="337" y="-15"/>
			<point x="460" y="106"/>
			<point x="460" y="338" type="curve" smooth="yes"/>
			<point x="460" y="514"/>
			<point x="392" y="670"/>
			<point x="233" y="749" type="curve"/>
			<point x="207" y="717" type="line"/>
			<point x="335" y="634"/>
			<point x="394" y="513"/>
			<point x="394" y="336" type="curve"/>
			<point x="414" y="336" type="line"/>
			<point x="410" y="423"/>
			<point x="367" y="474"/>
			<point x="293" y="474" type="curve" smooth="yes"/>
			<point x="167" y="474"/>
			<point x="54" y="340"/>
			<point x="54" y="179" type="curve" smooth="yes"/>
			<point x="54" y="45"/>
			<point x="135" y="-15"/>
		</contour>
		<contour>
			<point x="219" y="28" type="curve" smooth="yes"/>
			<point x="166" y="28"/>
			<point x="130" y="77"/>
			<point x="130" y="171" type="curve" smooth="yes"/>
			<point x="130" y="322"/>
			<point x="202" y="431"/>
			<point x="293" y="431" type="curve" smooth="yes"/>
			<point x="346" y="431"/>
			<point x="383" y="394"/>
			<point x="383" y="285" type="curve" smooth="yes"/>
			<point x="383" y="139"/>
			<point x="296" y="28"/>
		</contour>
		<contour>
			<point x="192" y="535" type="line"/>
			<point x="525" y="706" type="line"/>
			<point x="508" y="740" type="line"/>
			<point x="175" y="569" type="line"/>
		</contour>
	</outline>
</glyph>
<glyph name="divide" format="1">
	<unicode hex="00F7"/>
	<advance width="530"/>
	<outline>
		<contour>
			<point x="265" y="68" type="curve" smooth="yes"/>
			<point x="302" y="68"/>
			<point x="333" y="95"/>
			<point x="333" y="134" type="curve" smooth="yes"/>
			<point x="333" y="174"/>
			<point x="302" y="200"/>
			<point x="265" y="200" type="curve" smooth="yes"/>
			<point x="228" y="200"/>
			<point x="197" y="174"/>
			<point x="197" y="134" type="curve" smooth="yes"/>
			<point x="197" y="95"/>
			<point x="228" y="68"/>
		</contour>
		<contour>
			<point x="265" y="460" type="curve" smooth="yes"/>
			<point x="302" y="460"/>
			<point x="333" y="487"/>
			<point x="333" y="526" type="curve" smooth="yes"/>
			<point x="333" y="566"/>
			<point x="302" y="592"/>
			<point x="265" y="592" type="curve" smooth="yes"/>
			<point x="228" y="592"/>
			<point x="197" y="566"/>
			<point x="197" y="526" type="curve" smooth="yes"/>
			<point x="197" y="487"/>
			<point x="228" y="460"/>
		</contour>
		<component base="minus"/>
	</outline>
</glyph>
<glyph name="oslash" format="1">
	<unicode hex="00F8"/>
	<advance width="487"/>
	<outline>
		<contour>
			<point x="497" y="475" type="line"/>
			<point x="469" y="500" type="line"/>
			<point x="-2" y="5" type="line"/>
			<point x="27" y="-20" type="line"/>
		</contour>
		<component base="o"/>
		<contour>
			<point name="aboveLC" x="295" y="506" type="move"/>
		</contour>
	</outline>
</glyph>
<glyph name="thorn" format="1">
	<unicode hex="00FE"/>
	<advance width="495"/>
	<outline>
		<contour>
			<point x="-8" y="-241" type="line"/>
			<point x="68" y="-241" type="line"/>
			<point x="78" y="-173"/>
			<point x="90" y="-107"/>
			<point x="105" y="-40" type="curve"/>
			<point x="265" y="733" type="line"/>
			<point x="254" y="741" type="line"/>
			<point x="83" y="691" type="line"/>
			<point x="78" y="662" type="line"/>
			<point x="194" y="654" type="line"/>
			<point x="177" y="685" type="line"/>
			<point x="166" y="616"/>
			<point x="156" y="547"/>
			<point x="142" y="478" type="curve" smooth="yes"/>
		</contour>
		<contour>
			<point x="-92" y="-241" type="line"/>
			<point x="161" y="-241" type="line"/>
			<point x="168" y="-207" type="line"/>
			<point x="49" y="-189" type="line"/>
			<point x="30" y="-189" type="line"/>
			<point x="-85" y="-207" type="line"/>
		</contour>
		<contour>
			<point x="67" y="45" type="line"/>
			<point x="100" y="3"/>
			<point x="128" y="-13"/>
			<point x="169" y="-13" type="curve" smooth="yes"/>
			<point x="313" y="-13"/>
			<point x="478" y="196"/>
			<point x="478" y="364" type="curve" smooth="yes"/>
			<point x="478" y="454"/>
			<point x="436" y="487"/>
			<point x="387" y="487" type="curve" smooth="yes"/>
			<point x="314" y="487"/>
			<point x="205" y="412"/>
			<point x="142" y="293" type="curve"/>
			<point x="153" y="288" type="line"/>
			<point x="227" y="373"/>
			<point x="295" y="421"/>
			<point x="342" y="421" type="curve" smooth="yes"/>
			<point x="380" y="421"/>
			<point x="403" y="389"/>
			<point x="403" y="324" type="curve" smooth="yes"/>
			<point x="403" y="255"/>
			<point x="378" y="184"/>
			<point x="337" y="131" type="curve" smooth="yes"/>
			<point x="302" y="86"/>
			<point x="256" y="55"/>
			<point x="205" y="55" type="curve" smooth="yes"/>
			<point x="177" y="55"/>
			<point x="143" y="66"/>
			<point x="109" y="100" type="curve"/>
		</contour>
		<contour>
			<point name="aboveLC" x="219" y="739" type="move"/>
		</contour>
		<contour>
			<point name="belowLC" x="331" y="-4" type="move"/>
		</contour>
	</outline>
</glyph>
<glyph name="aogonek" format="1">
	<unicode hex="0105"/>
	<advance width="520"/>
	<outline>
		<component base="a"/>
		<component base="ogonekcmb" xOffset="414"/>
		<contour>
			<point name="aboveLC" x="339" y="506" type="move"/>
		</contour>
	</outline>
</glyph>
<glyph name="dcroat" format="1">
	<unicode hex="0111"/>
	<advance width="552"/>
	<outline>
		<contour>
			<point x="242" y="549" type="line"/>
			<point x="588" y="549" type="line"/>
			<point x="597" y="594" type="line"/>
			<point x="251" y="594" type="line"/>
		</contour>
		<component base="d"/>
	</outline>
</glyph>
<glyph name="Eogonek" format="1">
	<unicode hex="0118"/>
	<advance width="587"/>
	<outline>
		<component base="E"/>
		<component base="ogonekcmb" xOffset="443"/>
		<contour>
			<point name="aboveUC" x="421" y="691" type="move"/>
		</contour>
	</outline>
</glyph>
<glyph name="dotlessi" format="1">
	<unicode hex="0131"/>
	<advance width="313"/>
	<outline>
		<contour>
			<point x="76" y="38" type="curve" smooth="yes"/>
			<point x="76" y="4"/>
			<point x="102" y="-13"/>
			<point x="129" y="-13" type="curve" smooth="yes"/>
			<point x="200" y="-13"/>
			<point x="264" y="56"/>
			<point x="306" y="118" type="curve"/>
			<point x="282" y="137" type="line"/>
			<point x="244" y="87"/>
			<point x="203" y="55"/>
			<point x="176" y="55" type="curve" smooth="yes"/>
			<point x="164" y="55"/>
			<point x="153" y="63"/>
			<point x="153" y="77" type="curve" smooth="yes"/>
			<point x="153" y="89"/>
			<point x="157" y="110"/>
			<point x="162" y="135" type="curve" smooth="yes"/>
			<point x="233" y="477" type="line"/>
			<point x="220" y="487" type="line"/>
			<point x="51" y="436" type="line"/>
			<point x="47" y="407" type="line"/>
			<point x="167" y="400" type="line"/>
			<point x="150" y="414" type="line"/>
			<point x="86" y="110" type="line" smooth="yes"/>
			<point x="77" y="69"/>
			<point x="76" y="52"/>
		</contour>
		<contour>
			<point name="aboveLC" x="209" y="506" type="move"/>
		</contour>
		<contour>
			<point name="belowLC" x="110" y="-22" type="move"/>
		</contour>
		<contour>
			<point name="ogonek" x="153" y="0" type="move"/>
		</contour>
	</outline>
</glyph>
<glyph name="Lslash" format="1">
	<unicode hex="0141"/>
	<advance width="568"/>
	<outline>
		<contour>
			<point x="435" y="476" type="line"/>
			<point x="202" y="355" type="line"/>
			<point x="191" y="295" type="line"/>
			<point x="425" y="416" type="line"/>
		</contour>
		<contour>
			<point x="203" y="361" type="line"/>
			<point x="48" y="281" type="line"/>
			<point x="38" y="222" type="line"/>
			<point x="192" y="301" type="line"/>
		</contour>
		<component base="L"/>
	</outline>
</glyph>
<glyph name="lslash" format="1">
	<unicode hex="0142"/>
	<advance width="298"/>
	<outline>
		<contour>
			<point x="288" y="469" type="line"/>
			<point x="151" y="404" type="line"/>
			<point x="141" y="355" type="line"/>
			<point x="278" y="419" type="line"/>
		</contour>
		<contour>
			<point x="152" y="409" type="line"/>
			<point x="17" y="346" type="line"/>
			<point x="7" y="297" type="line"/>
			<point x="142" y="360" type="line"/>
		</contour>
		<component base="l"/>
	</outline>
</glyph>
<glyph name="OE" format="1">
	<unicode hex="0152"/>
	<advance width="867"/>
	<outline>
		<contour>
			<point x="429" y="0" type="curve"/>
			<point x="439" y="51" type="line"/>
			<point x="405" y="40"/>
			<point x="368" y="35"/>
			<point x="331" y="35" type="curve" smooth="yes"/>
			<point x="222" y="35"/>
			<point x="144" y="129"/>
			<point x="144" y="270" type="curve" smooth="yes"/>
			<point x="144" y="470"/>
			<point x="272" y="635"/>
			<point x="436" y="635" type="curve" smooth="yes"/>
			<point x="476" y="635"/>
			<point x="518" y="627"/>
			<point x="541" y="616" type="curve"/>
			<point x="552" y="670" type="line"/>
			<point x="517" y="680"/>
			<point x="483" y="685"/>
			<point x="447" y="685" type="curve" smooth="yes"/>
			<point x="212" y="685"/>
			<point x="54" y="477"/>
			<point x="54" y="262" type="curve" smooth="yes"/>
			<point x="54" y="94"/>
			<point x="163" y="-15"/>
			<point x="318" y="-15" type="curve" smooth="yes"/>
			<point x="358" y="-15"/>
			<point x="391" y="-9"/>
		</contour>
		<contour>
			<point x="388" y="0" type="line"/>
			<point x="476" y="0" type="line"/>
			<point x="492" y="103"/>
			<point x="510" y="207"/>
			<point x="529" y="310" type="curve" smooth="yes"/>
			<point x="597" y="670" type="line"/>
			<point x="509" y="670" type="line"/>
			<point x="493" y="567"/>
			<point x="475" y="463"/>
			<point x="456" y="360" type="curve" smooth="yes"/>
		</contour>
		<contour>
			<point x="429" y="0" type="line"/>
			<point x="802" y="0" type="line"/>
			<point x="841" y="178" type="line"/>
			<point x="791" y="178" type="line"/>
			<point x="728" y="0" type="line"/>
			<point x="783" y="50" type="line"/>
			<point x="439" y="50" type="line"/>
		</contour>
		<contour>
			<point x="491" y="319" type="line"/>
			<point x="716" y="319" type="line"/>
			<point x="724" y="365" type="line"/>
			<point x="500" y="365" type="line"/>
		</contour>
		<contour>
			<point x="543" y="620" type="line"/>
			<point x="847" y="620" type="line"/>
			<point x="815" y="670" type="line"/>
			<point x="815" y="492" type="line"/>
			<point x="865" y="492" type="line"/>
			<point x="889" y="670" type="line"/>
			<point x="553" y="670" type="line"/>
		</contour>
		<contour>
			<point x="684" y="224" type="line"/>
			<point x="726" y="224" type="line"/>
			<point x="771" y="461" type="line"/>
			<point x="729" y="461" type="line"/>
			<point x="691" y="355" type="line"/>
			<point x="688" y="335" type="line"/>
		</contour>
	</outline>
</glyph>
<glyph name="oe" format="1">
	<unicode hex="0153"/>
	<advance width="751"/>
	<outline>
		<contour>
			<point x="208" y="-13" type="curve" smooth="yes"/>
			<point x="290" y="-13"/>
			<point x="356" y="35"/>
			<point x="400" y="100" type="curve"/>
			<point x="459" y="332" type="line"/>
			<point x="447" y="442"/>
			<point x="379" y="487"/>
			<point x="306" y="487" type="curve" smooth="yes"/>
			<point x="156" y="487"/>
			<point x="53" y="330"/>
			<point x="53" y="173" type="curve" smooth="yes"/>
			<point x="53" y="44"/>
			<point x="127" y="-13"/>
		</contour>
		<contour>
			<point x="228" y="27" type="curve" smooth="yes"/>
			<point x="175" y="27"/>
			<point x="133" y="75"/>
			<point x="133" y="183" type="curve" smooth="yes"/>
			<point x="133" y="315"/>
			<point x="198" y="447"/>
			<point x="287" y="447" type="curve" smooth="yes"/>
			<point x="339" y="447"/>
			<point x="381" y="401"/>
			<point x="381" y="287" type="curve" smooth="yes"/>
			<point x="381" y="173"/>
			<point x="320" y="27"/>
		</contour>
		<component base="e" xOffset="316"/>
		<contour>
			<point name="aboveLC" x="469" y="506" type="move"/>
		</contour>
	</outline>
</glyph>
<glyph name="longs" format="1">
	<unicode hex="017F"/>
	<advance width="308"/>
	<outline>
		<contour>
			<point x="390" y="751" type="curve" smooth="yes"/>
			<point x="347" y="751"/>
			<point x="309" y="738"/>
			<point x="277" y="715" type="curve" smooth="yes"/>
			<point x="213" y="667"/>
			<point x="178" y="609"/>
			<point x="156" y="461" type="curve" smooth="yes"/>
			<point x="93" y="48" type="line" smooth="yes"/>
			<point x="74" y="-74"/>
			<point x="51" y="-125"/>
			<point x="17" y="-167" type="curve" smooth="yes"/>
			<point x="-5" y="-192"/>
			<point x="-30" y="-209"/>
			<point x="-66" y="-220" type="curve"/>
			<point x="-20" y="-220" type="line"/>
			<point x="-46" y="-191" type="line" smooth="yes"/>
			<point x="-64" y="-168"/>
			<point x="-82" y="-158"/>
			<point x="-106" y="-158" type="curve" smooth="yes"/>
			<point x="-136" y="-158"/>
			<point x="-156" y="-173"/>
			<point x="-166" y="-197" type="curve"/>
			<point x="-162" y="-230"/>
			<point x="-123" y="-251"/>
			<point x="-83" y="-251" type="curve" smooth="yes"/>
			<point x="-37" y="-251"/>
			<point x="0" y="-236"/>
			<point x="41" y="-200" type="curve" smooth="yes"/>
			<point x="101" y="-148"/>
			<point x="138" y="-73"/>
			<point x="153" y="22" type="curve" smooth="yes"/>
			<point x="233" y="499" type="line" smooth="yes"/>
			<point x="255" y="631"/>
			<point x="278" y="672"/>
			<point x="333" y="704" type="curve" smooth="yes"/>
			<point x="351" y="714"/>
			<point x="375" y="721"/>
			<point x="399" y="723" type="curve"/>
			<point x="359" y="736" type="line"/>
			<point x="382" y="699" type="line" smooth="yes"/>
			<point x="408" y="656"/>
			<point x="425" y="646"/>
			<point x="452" y="646" type="curve" smooth="yes"/>
			<point x="469" y="646"/>
			<point x="488" y="656"/>
			<point x="496" y="670" type="curve"/>
			<point x="493" y="717"/>
			<point x="459" y="751"/>
		</contour>
	</outline>
</glyph>
<glyph name="florin" format="1">
	<unicode hex="0192"/>
	<advance width="480"/>
	<outline>
		<contour>
			<point x="168" y="-21" type="curve" smooth="yes"/>
			<point x="155" y="-38"/>
			<point x="133" y="-56"/>
			<point x="101" y="-68" type="curve"/>
			<point x="125" y="-68" type="line"/>
			<point x="110" y="-46" type="line" smooth="yes"/>
			<point x="87" y="-14"/>
			<point x="71" y="3"/>
			<point x="30" y="3" type="curve" smooth="yes"/>
			<point x="-2" y="3"/>
			<point x="-23" y="-13"/>
			<point x="-26" y="-39" type="curve"/>
			<point x="-17" y="-74"/>
			<point x="16" y="-100"/>
			<point x="72" y="-100" type="curve" smooth="yes"/>
			<point x="116" y="-100"/>
			<point x="162" y="-85"/>
			<point x="203" y="-48" type="curve" smooth="yes"/>
			<point x="263" y="9"/>
			<point x="294" y="85"/>
			<point x="325" y="233" type="curve" smooth="yes"/>
			<point x="348" y="344" type="line" smooth="yes"/>
			<point x="373" y="465"/>
			<point x="387" y="530"/>
			<point x="427" y="582" type="curve" smooth="yes"/>
			<point x="440" y="599"/>
			<point x="462" y="617"/>
			<point x="494" y="629" type="curve"/>
			<point x="470" y="629" type="line"/>
			<point x="485" y="607" type="line" smooth="yes"/>
			<point x="508" y="575"/>
			<point x="524" y="558"/>
			<point x="565" y="558" type="curve" smooth="yes"/>
			<point x="597" y="558"/>
			<point x="618" y="574"/>
			<point x="621" y="600" type="curve"/>
			<point x="612" y="635"/>
			<point x="579" y="661"/>
			<point x="523" y="661" type="curve" smooth="yes"/>
			<point x="479" y="661"/>
			<point x="433" y="646"/>
			<point x="392" y="609" type="curve" smooth="yes"/>
			<point x="331" y="553"/>
			<point x="302" y="475"/>
			<point x="272" y="328" type="curve" smooth="yes"/>
			<point x="249" y="217" type="line" smooth="yes"/>
			<point x="223" y="95"/>
			<point x="208" y="31"/>
		</contour>
		<contour>
			<point x="160" y="345" type="line"/>
			<point x="482" y="345" type="line"/>
			<point x="489" y="395" type="line"/>
			<point x="167" y="395" type="line"/>
		</contour>
	</outline>
</glyph>
<glyph name="gravecmb" format="1">
	<unicode hex="0300"/>
	<outline>
		<contour>
			<point x="92" y="551" type="line"/>
			<point x="14" y="717" type="line" smooth="yes"/>
			<point x="2" y="743"/>
			<point x="-14" y="761"/>
			<point x="-36" y="761" type="curve" smooth="yes"/>
			<point x="-56" y="761"/>
			<point x="-74" y="748"/>
			<point x="-74" y="727" type="curve" smooth="yes"/>
			<point x="-74" y="710"/>
			<point x="-69" y="696"/>
			<point x="-53" y="677" type="curve" smooth="yes"/>
			<point x="66" y="534" type="line"/>
		</contour>
		<contour>
			<point name="_aboveLC" x="71" y="506" type="move"/>
		</contour>
	</outline>
</glyph>
<glyph name="acutecmb" format="1">
	<unicode hex="0301"/>
	<outline>
		<contour>
			<point x="61" y="551" type="line"/>
			<point x="87" y="534" type="line"/>
			<point x="206" y="677" type="line" smooth="yes"/>
			<point x="222" y="696"/>
			<point x="227" y="710"/>
			<point x="227" y="725" type="curve" smooth="yes"/>
			<point x="227" y="748"/>
			<point x="210" y="759"/>
			<point x="189" y="759" type="curve" smooth="yes"/>
			<point x="167" y="759"/>
			<point x="151" y="743"/>
			<point x="139" y="717" type="curve" smooth="yes"/>
		</contour>
		<contour>
			<point name="_aboveLC" x="71" y="506" type="move"/>
		</contour>
	</outline>
</glyph>
<glyph name="circumflexcmb" format="1">
	<unicode hex="0302"/>
	<outline>
		<contour>
			<point x="208" y="546" type="line"/>
			<point x="235" y="567" type="line"/>
			<point x="135" y="743" type="line"/>
			<point x="103" y="743" type="line"/>
			<point x="-52" y="567" type="line"/>
			<point x="-33" y="546" type="line"/>
			<point x="132" y="690" type="line"/>
			<point x="86" y="690" type="line"/>
		</contour>
		<contour>
			<point name="_aboveLC" x="71" y="506" type="move"/>
		</contour>
		<contour>
			<point name="aboveLC" x="119" y="733" type="move"/>
		</contour>
	</outline>
</glyph>
<glyph name="tildecmb" format="1">
	<unicode hex="0303"/>
	<outline>
		<contour>
			<point x="-70" y="586" type="curve"/>
			<point x="-45" y="577" type="line"/>
			<point x="-22" y="639"/>
			<point x="2" y="662"/>
			<point x="33" y="662" type="curve" smooth="yes"/>
			<point x="61" y="662"/>
			<point x="79" y="631"/>
			<point x="100" y="609" type="curve" smooth="yes"/>
			<point x="118" y="591"/>
			<point x="141" y="573"/>
			<point x="171" y="573" type="curve" smooth="yes"/>
			<point x="228" y="573"/>
			<point x="262" y="615"/>
			<point x="286" y="703" type="curve"/>
			<point x="260" y="712" type="line"/>
			<point x="236" y="650"/>
			<point x="214" y="627"/>
			<point x="183" y="627" type="curve" smooth="yes"/>
			<point x="155" y="627"/>
			<point x="138" y="655"/>
			<point x="116" y="678" type="curve" smooth="yes"/>
			<point x="95" y="696"/>
			<point x="72" y="716"/>
			<point x="44" y="716" type="curve" smooth="yes"/>
			<point x="-12" y="716"/>
			<point x="-47" y="674"/>
		</contour>
		<contour>
			<point name="_aboveLC" x="72" y="506" type="move"/>
		</contour>
	</outline>
</glyph>
<glyph name="macroncmb" format="1">
	<unicode hex="0304"/>
	<outline>
		<contour>
			<point x="-68" y="603" type="line"/>
			<point x="212" y="603" type="line"/>
			<point x="224" y="664" type="line"/>
			<point x="-56" y="664" type="line"/>
		</contour>
		<contour>
			<point name="_aboveLC" x="74" y="520" type="move"/>
		</contour>
	</outline>
</glyph>
<glyph name="brevecmb" format="1">
	<unicode hex="0306"/>
	<outline>
		<contour>
			<point x="77" y="575" type="curve" smooth="yes"/>
			<point x="169" y="575"/>
			<point x="231" y="650"/>
			<point x="253" y="723" type="curve"/>
			<point x="220" y="735" type="line"/>
			<point x="194" y="684"/>
			<point x="149" y="644"/>
			<point x="86" y="644" type="curve" smooth="yes"/>
			<point x="27" y="644"/>
			<point x="-5" y="683"/>
			<point x="-11" y="735" type="curve"/>
			<point x="-47" y="723" type="line"/>
			<point x="-56" y="655"/>
			<point x="-16" y="575"/>
		</contour>
		<contour>
			<point name="_aboveLC" x="69" y="500" type="move"/>
		</contour>
	</outline>
</glyph>
<glyph name="dotaccentcmb" format="1">
	<unicode hex="0307"/>
	<outline>
		<contour>
			<point x="106" y="624" type="curve" smooth="yes"/>
			<point x="136" y="624"/>
			<point x="164" y="655"/>
			<point x="164" y="688" type="curve" smooth="yes"/>
			<point x="164" y="722"/>
			<point x="142" y="744"/>
			<point x="110" y="744" type="curve" smooth="yes"/>
			<point x="80" y="744"/>
			<point x="52" y="715"/>
			<point x="52" y="680" type="curve" smooth="yes"/>
			<point x="52" y="646"/>
			<point x="74" y="624"/>
		</contour>
		<contour>
			<point name="_aboveLC" x="71" y="506" type="move"/>
		</contour>
		<contour>
			<point name="aboveLC" x="113" y="706" type="move"/>
		</contour>
	</outline>
</glyph>
<glyph name="dieresiscmb" format="1">
	<unicode hex="0308"/>
	<outline>
		<contour>
			<point x="-15" y="602" type="curve" smooth="yes"/>
			<point x="17" y="602"/>
			<point x="43" y="628"/>
			<point x="43" y="663" type="curve" smooth="yes"/>
			<point x="43" y="690"/>
			<point x="23" y="710"/>
			<point x="-4" y="710" type="curve" smooth="yes"/>
			<point x="-34" y="710"/>
			<point x="-62" y="686"/>
			<point x="-62" y="650" type="curve" smooth="yes"/>
			<point x="-62" y="620"/>
			<point x="-40" y="602"/>
		</contour>
		<contour>
			<point x="199" y="602" type="curve" smooth="yes"/>
			<point x="231" y="602"/>
			<point x="257" y="628"/>
			<point x="257" y="663" type="curve" smooth="yes"/>
			<point x="257" y="690"/>
			<point x="237" y="710"/>
			<point x="210" y="710" type="curve" smooth="yes"/>
			<point x="181" y="710"/>
			<point x="153" y="686"/>
			<point x="153" y="650" type="curve" smooth="yes"/>
			<point x="153" y="620"/>
			<point x="175" y="602"/>
		</contour>
		<contour>
			<point name="_aboveLC" x="71" y="506" type="move"/>
		</contour>
		<contour>
			<point name="aboveLC" x="108" y="680" type="move"/>
		</contour>
	</outline>
</glyph>
<glyph name="ringcmb" format="1">
	<unicode hex="030A"/>
	<outline>
		<contour>
			<point x="95" y="586" type="curve" smooth="yes"/>
			<point x="56" y="586"/>
			<point x="41" y="615"/>
			<point x="41" y="642" type="curve" smooth="yes"/>
			<point x="41" y="678"/>
			<point x="67" y="715"/>
			<point x="108" y="715" type="curve" smooth="yes"/>
			<point x="144" y="715"/>
			<point x="161" y="687"/>
			<point x="161" y="659" type="curve" smooth="yes"/>
			<point x="161" y="620"/>
			<point x="131" y="586"/>
		</contour>
		<contour>
			<point x="92" y="549" type="curve" smooth="yes"/>
			<point x="147" y="549"/>
			<point x="206" y="589"/>
			<point x="206" y="662" type="curve" smooth="yes"/>
			<point x="206" y="717"/>
			<point x="160" y="751"/>
			<point x="109" y="751" type="curve" smooth="yes"/>
			<point x="56" y="751"/>
			<point x="-4" y="711"/>
			<point x="-4" y="640" type="curve" smooth="yes"/>
			<point x="-4" y="584"/>
			<point x="39" y="549"/>
		</contour>
		<contour>
			<point name="_aboveLC" x="71" y="510" type="move"/>
		</contour>
	</outline>
</glyph>
<glyph name="hungarumlautcmb" format="1">
	<unicode hex="030B"/>
	<outline>
		<contour>
			<point x="-13" y="574" type="line"/>
			<point x="10" y="556" type="line"/>
			<point x="124" y="663" type="line" smooth="yes"/>
			<point x="148" y="685"/>
			<point x="155" y="706"/>
			<point x="155" y="721" type="curve" smooth="yes"/>
			<point x="155" y="740"/>
			<point x="140" y="752"/>
			<point x="121" y="752" type="curve" smooth="yes"/>
			<point x="106" y="752"/>
			<point x="86" y="741"/>
			<point x="68" y="710" type="curve" smooth="yes"/>
		</contour>
		<contour>
			<point x="125" y="574" type="line"/>
			<point x="148" y="556" type="line"/>
			<point x="262" y="663" type="line" smooth="yes"/>
			<point x="286" y="685"/>
			<point x="293" y="706"/>
			<point x="293" y="721" type="curve" smooth="yes"/>
			<point x="293" y="740"/>
			<point x="278" y="752"/>
			<point x="259" y="752" type="curve" smooth="yes"/>
			<point x="244" y="752"/>
			<point x="224" y="741"/>
			<point x="206" y="710" type="curve" smooth="yes"/>
		</contour>
		<contour>
			<point name="_aboveLC" x="71" y="506" type="move"/>
		</contour>
	</outline>
</glyph>
<glyph name="commabelowcmb" format="1">
	<unicode hex="0326"/>
	<outline>
		<contour>
			<point x="-131" y="-250" type="line"/>
			<point x="-61" y="-227"/>
			<point x="3" y="-187"/>
			<point x="3" y="-117" type="curve" smooth="yes"/>
			<point x="3" y="-104"/>
			<point x="1" y="-92"/>
			<point x="-7" y="-71" type="curve"/>
			<point x="-21" y="-58"/>
			<point x="-36" y="-52"/>
			<point x="-50" y="-52" type="curve" smooth="yes"/>
			<point x="-75" y="-52"/>
			<point x="-96" y="-70"/>
			<point x="-96" y="-96" type="curve" smooth="yes"/>
			<point x="-96" y="-126"/>
			<point x="-67" y="-153"/>
			<point x="-33" y="-161" type="curve"/>
			<point x="-37" y="-132" type="line"/>
			<point x="-61" y="-181"/>
			<point x="-92" y="-203"/>
			<point x="-141" y="-222" type="curve"/>
		</contour>
		<contour>
			<point name="_belowLC" x="-42" y="-22" type="move"/>
		</contour>
	</outline>
</glyph>
<glyph name="Omega" format="1">
	<unicode hex="03A9"/>
	<advance width="726"/>
	<outline>
		<contour>
			<point x="98" y="170" type="line"/>
			<point x="38" y="170" type="line"/>
			<point x="48" y="0" type="line"/>
			<point x="314" y="0" type="line"/>
			<point x="314" y="50" type="line"/>
			<point x="265" y="70" type="line"/>
			<point x="73" y="70" type="line"/>
			<point x="138" y="0" type="line"/>
		</contour>
		<contour>
			<point x="628" y="170" type="line"/>
			<point x="588" y="0" type="line"/>
			<point x="653" y="70" type="line"/>
			<point x="461" y="70" type="line"/>
			<point x="412" y="50" type="line"/>
			<point x="412" y="0" type="line"/>
			<point x="678" y="0" type="line"/>
			<point x="688" y="170" type="line"/>
		</contour>
		<contour>
			<point x="363" y="635" type="curve" smooth="yes"/>
			<point x="490" y="635"/>
			<point x="563" y="522"/>
			<point x="563" y="377" type="curve" smooth="yes"/>
			<point x="563" y="255"/>
			<point x="503" y="134"/>
			<point x="412" y="65" type="curve"/>
			<point x="412" y="0" type="line"/>
			<point x="480" y="0" type="line"/>
			<point x="480" y="72" type="line"/>
			<point x="580" y="143"/>
			<point x="655" y="251"/>
			<point x="655" y="377" type="curve" smooth="yes"/>
			<point x="655" y="578"/>
			<point x="516" y="685"/>
			<point x="363" y="685" type="curve" smooth="yes"/>
			<point x="210" y="685"/>
			<point x="71" y="578"/>
			<point x="71" y="376" type="curve" smooth="yes"/>
			<point x="71" y="249"/>
			<point x="148" y="143"/>
			<point x="246" y="72" type="curve"/>
			<point x="246" y="0" type="line"/>
			<point x="314" y="0" type="line"/>
			<point x="314" y="65" type="line"/>
			<point x="223" y="134"/>
			<point x="163" y="255"/>
			<point x="163" y="377" type="curve" smooth="yes"/>
			<point x="163" y="522"/>
			<point x="236" y="635"/>
		</contour>
	</outline>
</glyph>
<glyph name="pi" format="1">
	<unicode hex="03C0"/>
	<advance width="592"/>
	<outline>
		<contour>
			<point x="27" y="387" type="line"/>
			<point x="188" y="410" type="line"/>
			<point x="409" y="410" type="line"/>
			<point x="564" y="405" type="line"/>
			<point x="560" y="474" type="line"/>
			<point x="209" y="474" type="line" smooth="yes"/>
			<point x="107" y="474"/>
			<point x="70" y="461"/>
			<point x="20" y="422" type="curve"/>
		</contour>
		<contour>
			<point x="468" y="-13" type="curve" smooth="yes"/>
			<point x="506" y="-13"/>
			<point x="531" y="4"/>
			<point x="555" y="39" type="curve"/>
			<point x="547" y="64" type="line"/>
			<point x="533" y="59"/>
			<point x="516" y="55"/>
			<point x="503" y="55" type="curve" smooth="yes"/>
			<point x="464" y="55"/>
			<point x="444" y="72"/>
			<point x="442" y="139" type="curve" smooth="yes"/>
			<point x="433" y="442" type="line"/>
			<point x="381" y="442" type="line"/>
			<point x="375" y="332"/>
			<point x="369" y="202"/>
			<point x="369" y="110" type="curve" smooth="yes"/>
			<point x="369" y="27"/>
			<point x="399" y="-13"/>
		</contour>
		<contour>
			<point x="106" y="-13" type="curve" smooth="yes"/>
			<point x="164" y="-13"/>
			<point x="199" y="20"/>
			<point x="206" y="105" type="curve" smooth="yes"/>
			<point x="215" y="213"/>
			<point x="215" y="328"/>
			<point x="216" y="442" type="curve"/>
			<point x="173" y="442" type="line"/>
			<point x="169" y="310"/>
			<point x="165" y="180"/>
			<point x="150" y="48" type="curve"/>
			<point x="178" y="70" type="line"/>
			<point x="184" y="94" type="line"/>
			<point x="142" y="93"/>
			<point x="101" y="88"/>
			<point x="68" y="81" type="curve"/>
			<point x="55" y="71"/>
			<point x="47" y="60"/>
			<point x="47" y="36" type="curve" smooth="yes"/>
			<point x="47" y="5"/>
			<point x="71" y="-13"/>
		</contour>
	</outline>
</glyph>
<glyph name="be" format="1">
	<unicode hex="0431"/>
	<advance width="504"/>
	<outline>
		<contour>
			<point x="229" y="-13" type="curve" smooth="yes"/>
			<point x="344" y="-13"/>
			<point x="483" y="114"/>
			<point x="483" y="306" type="curve" smooth="yes"/>
			<point x="483" y="424"/>
			<point x="406" y="478"/>
			<point x="319" y="478" type="curve" smooth="yes"/>
			<point x="244" y="478"/>
			<point x="164" y="425"/>
			<point x="119" y="321" type="curve"/>
			<point x="132" y="322" type="line"/>
			<point x="154" y="446"/>
			<point x="198" y="547"/>
			<point x="239" y="576" type="curve" smooth="yes"/>
			<point x="305" y="622"/>
			<point x="486" y="597"/>
			<point x="526" y="634" type="curve" smooth="yes"/>
			<point x="542" y="649"/>
			<point x="557" y="684"/>
			<point x="574" y="730" type="curve"/>
			<point x="552" y="740" type="line"/>
			<point x="524" y="699" type="line"/>
			<point x="362" y="681"/>
			<point x="298" y="690"/>
			<point x="225" y="633" type="curve" smooth="yes"/>
			<point x="145" y="570"/>
			<point x="62" y="334"/>
			<point x="62" y="173" type="curve" smooth="yes"/>
			<point x="62" y="49"/>
			<point x="127" y="-13"/>
		</contour>
		<contour>
			<point x="239" y="27" type="curve" smooth="yes"/>
			<point x="178" y="27"/>
			<point x="140" y="70"/>
			<point x="140" y="176" type="curve" smooth="yes"/>
			<point x="140" y="343"/>
			<point x="225" y="438"/>
			<point x="308" y="438" type="curve" smooth="yes"/>
			<point x="372" y="438"/>
			<point x="401" y="388"/>
			<point x="401" y="299" type="curve" smooth="yes"/>
			<point x="401" y="117"/>
			<point x="309" y="27"/>
		</contour>
	</outline>
</glyph>
<glyph name="ve" format="1">
	<unicode hex="0432"/>
	<advance width="425"/>
	<outline>
		<contour>
			<point x="203" y="231" type="line"/>
			<point x="274" y="231"/>
			<point x="296" y="177"/>
			<point x="296" y="138" type="curve" smooth="yes"/>
			<point x="296" y="76"/>
			<point x="261" y="29"/>
			<point x="214" y="29" type="curve" smooth="yes"/>
			<point x="161" y="29"/>
			<point x="134" y="76"/>
			<point x="134" y="177" type="curve" smooth="yes"/>
			<point x="134" y="293"/>
			<point x="211" y="442"/>
			<point x="304" y="442" type="curve" smooth="yes"/>
			<point x="325" y="442"/>
			<point x="338" y="425"/>
			<point x="338" y="399" type="curve" smooth="yes"/>
			<point x="338" y="324"/>
			<point x="272" y="286"/>
			<point x="185" y="247" type="curve" smooth="yes"/>
			<point x="111" y="214" type="line"/>
			<point x="111" y="176" type="line"/>
			<point x="220" y="215"/>
			<point x="247" y="228"/>
			<point x="272" y="240" type="curve" smooth="yes"/>
			<point x="361" y="280"/>
			<point x="420" y="337"/>
			<point x="420" y="400" type="curve" smooth="yes"/>
			<point x="420" y="450"/>
			<point x="382" y="487"/>
			<point x="322" y="487" type="curve" smooth="yes"/>
			<point x="184" y="487"/>
			<point x="48" y="319"/>
			<point x="48" y="158" type="curve" smooth="yes"/>
			<point x="48" y="35"/>
			<point x="124" y="-13"/>
			<point x="194" y="-13" type="curve" smooth="yes"/>
			<point x="294" y="-13"/>
			<point x="376" y="64"/>
			<point x="376" y="142" type="curve" smooth="yes"/>
			<point x="376" y="193"/>
			<point x="345" y="256"/>
			<point x="212" y="256" type="curve"/>
		</contour>
	</outline>
</glyph>
<glyph name="ghe" format="1">
	<unicode hex="0433"/>
	<advance width="399"/>
	<outline>
		<contour>
			<point x="169" y="-13" type="curve" smooth="yes"/>
			<point x="259" y="-13"/>
			<point x="321" y="43"/>
			<point x="361" y="110" type="curve"/>
			<point x="338" y="128" type="line"/>
			<point x="299" y="82"/>
			<point x="260" y="54"/>
			<point x="194" y="54" type="curve" smooth="yes"/>
			<point x="161" y="54"/>
			<point x="130" y="70"/>
			<point x="130" y="109" type="curve" smooth="yes"/>
			<point x="130" y="137"/>
			<point x="155" y="182"/>
			<point x="241" y="229" type="curve" smooth="yes"/>
			<point x="359" y="293"/>
			<point x="405" y="335"/>
			<point x="405" y="388" type="curve" smooth="yes"/>
			<point x="405" y="445"/>
			<point x="357" y="488"/>
			<point x="284" y="488" type="curve" smooth="yes"/>
			<point x="189" y="488"/>
			<point x="122" y="433"/>
			<point x="82" y="365" type="curve"/>
			<point x="105" y="347" type="line"/>
			<point x="148" y="397"/>
			<point x="190" y="429"/>
			<point x="257" y="429" type="curve" smooth="yes"/>
			<point x="295" y="429"/>
			<point x="326" y="411"/>
			<point x="326" y="373" type="curve" smooth="yes"/>
			<point x="326" y="337"/>
			<point x="296" y="308"/>
			<point x="206" y="261" type="curve" smooth="yes"/>
			<point x="70" y="190"/>
			<point x="45" y="138"/>
			<point x="45" y="87" type="curve" smooth="yes"/>
			<point x="45" y="30"/>
			<point x="94" y="-13"/>
		</contour>
	</outline>
</glyph>
<glyph name="ze" format="1">
	<unicode hex="0437"/>
	<advance width="407"/>
	<outline>
		<contour>
			<point x="147" y="-13" type="curve" smooth="yes"/>
			<point x="295" y="-13"/>
			<point x="372" y="73"/>
			<point x="372" y="145" type="curve" smooth="yes"/>
			<point x="372" y="212"/>
			<point x="324" y="248"/>
			<point x="242" y="257" type="curve"/>
			<point x="243" y="247" type="line"/>
			<point x="355" y="274"/>
			<point x="389" y="341"/>
			<point x="389" y="388" type="curve" smooth="yes"/>
			<point x="389" y="445"/>
			<point x="339" y="488"/>
			<point x="263" y="488" type="curve" smooth="yes"/>
			<point x="174" y="488"/>
			<point x="129" y="452"/>
			<point x="84" y="386" type="curve"/>
			<point x="105" y="366" type="line"/>
			<point x="149" y="420"/>
			<point x="193" y="448"/>
			<point x="241" y="448" type="curve" smooth="yes"/>
			<point x="284" y="448"/>
			<point x="309" y="421"/>
			<point x="309" y="376" type="curve" smooth="yes"/>
			<point x="309" y="314"/>
			<point x="272" y="273"/>
			<point x="201" y="273" type="curve" smooth="yes"/>
			<point x="182" y="273" type="line"/>
			<point x="173" y="228" type="line"/>
			<point x="210" y="228" type="line" smooth="yes"/>
			<point x="271" y="228"/>
			<point x="293" y="199"/>
			<point x="293" y="140" type="curve" smooth="yes"/>
			<point x="293" y="76"/>
			<point x="251" y="25"/>
			<point x="144" y="25" type="curve" smooth="yes"/>
			<point x="112" y="25"/>
			<point x="104" y="27"/>
			<point x="83" y="34" type="curve"/>
			<point x="116" y="-4" type="line"/>
			<point x="100" y="72" type="line" smooth="yes"/>
			<point x="94" y="102"/>
			<point x="81" y="120"/>
			<point x="53" y="120" type="curve" smooth="yes"/>
			<point x="37" y="120"/>
			<point x="24" y="112"/>
			<point x="16" y="90" type="curve"/>
			<point x="23" y="28"/>
			<point x="65" y="-13"/>
		</contour>
	</outline>
</glyph>
<glyph name="ka" format="1">
	<unicode hex="043A"/>
	<advance width="494"/>
	<outline>
		<contour>
			<point x="58" y="0" type="line"/>
			<point x="138" y="0" type="line"/>
			<point x="151" y="71"/>
			<point x="163" y="140"/>
			<point x="178" y="210" type="curve" smooth="yes"/>
			<point x="209" y="352" type="line"/>
			<point x="234" y="477" type="line"/>
			<point x="221" y="487" type="line"/>
			<point x="49" y="432" type="line"/>
			<point x="45" y="402" type="line"/>
			<point x="163" y="394" type="line"/>
			<point x="145" y="409" type="line"/>
		</contour>
		<contour>
			<point x="183" y="272" type="line"/>
			<point x="177" y="243" type="line"/>
			<point x="249" y="236"/>
			<point x="259" y="236"/>
			<point x="268" y="164" type="curve" smooth="yes"/>
			<point x="281" y="61" type="line" smooth="yes"/>
			<point x="287" y="13"/>
			<point x="299" y="-10"/>
			<point x="383" y="-10" type="curve" smooth="yes"/>
			<point x="407" y="-10"/>
			<point x="426" y="-6"/>
			<point x="444" y="0" type="curve"/>
			<point x="450" y="32" type="line"/>
			<point x="338" y="50" type="line"/>
			<point x="359" y="33" type="line"/>
			<point x="342" y="154" type="line" smooth="yes"/>
			<point x="331" y="231"/>
			<point x="317" y="265"/>
			<point x="253" y="273" type="curve"/>
		</contour>
		<contour>
			<point x="235" y="256" type="curve"/>
			<point x="271" y="248" type="line"/>
			<point x="328" y="347"/>
			<point x="370" y="417"/>
			<point x="435" y="449" type="curve"/>
			<point x="360" y="436" type="line"/>
			<point x="383" y="422" type="line" smooth="yes"/>
			<point x="408" y="407"/>
			<point x="429" y="397"/>
			<point x="450" y="397" type="curve" smooth="yes"/>
			<point x="484" y="397"/>
			<point x="498" y="415"/>
			<point x="504" y="434" type="curve"/>
			<point x="504" y="469"/>
			<point x="477" y="487"/>
			<point x="448" y="487" type="curve" smooth="yes"/>
			<point x="415" y="487"/>
			<point x="389" y="478"/>
			<point x="348" y="441" type="curve" smooth="yes"/>
			<point x="307" y="404"/>
			<point x="277" y="348"/>
		</contour>
	</outline>
</glyph>
<glyph name="em" format="1">
	<unicode hex="043C"/>
	<advance width="737"/>
	<outline>
		<contour>
			<point x="-26" y="52" type="curve"/>
			<point x="-26" y="9"/>
			<point x="19" y="-13"/>
			<point x="45" y="-13" type="curve" smooth="yes"/>
			<point x="78" y="-13"/>
			<point x="97" y="-6"/>
			<point x="122" y="14" type="curve" smooth="yes"/>
			<point x="152" y="39"/>
			<point x="183" y="85"/>
			<point x="205" y="145" type="curve" smooth="yes"/>
			<point x="237" y="230"/>
			<point x="250" y="330"/>
			<point x="255" y="459" type="curve"/>
			<point x="219" y="459" type="line"/>
			<point x="205" y="331"/>
			<point x="188" y="234"/>
			<point x="159" y="151" type="curve" smooth="yes"/>
			<point x="138" y="93"/>
			<point x="106" y="52"/>
			<point x="84" y="30" type="curve"/>
			<point x="118" y="37" type="line"/>
			<point x="90" y="67" type="line" smooth="yes"/>
			<point x="71" y="88"/>
			<point x="54" y="95"/>
			<point x="37" y="95" type="curve" smooth="yes"/>
			<point x="8" y="95"/>
			<point x="-20" y="82"/>
		</contour>
		<contour>
			<point x="131" y="439" type="line"/>
			<point x="227" y="419" type="line"/>
			<point x="240" y="419" type="line"/>
			<point x="252" y="474" type="line"/>
			<point x="139" y="474" type="line"/>
		</contour>
		<contour>
			<point x="599" y="467" type="line"/>
			<point x="579" y="407"/>
			<point x="572" y="369"/>
			<point x="560" y="313" type="curve" smooth="yes"/>
			<point x="517" y="111" type="line" smooth="yes"/>
			<point x="508" y="69"/>
			<point x="507" y="52"/>
			<point x="507" y="39" type="curve" smooth="yes"/>
			<point x="507" y="4"/>
			<point x="534" y="-13"/>
			<point x="562" y="-13" type="curve" smooth="yes"/>
			<point x="633" y="-13"/>
			<point x="699" y="57"/>
			<point x="740" y="118" type="curve"/>
			<point x="715" y="138" type="line"/>
			<point x="678" y="90"/>
			<point x="638" y="60"/>
			<point x="613" y="60" type="curve" smooth="yes"/>
			<point x="601" y="60"/>
			<point x="590" y="68"/>
			<point x="590" y="81" type="curve" smooth="yes"/>
			<point x="590" y="93"/>
			<point x="594" y="113"/>
			<point x="599" y="139" type="curve" smooth="yes"/>
			<point x="669" y="477" type="line"/>
			<point x="655" y="487" type="line"/>
			<point x="586" y="474" type="line"/>
			<point x="331" y="49" type="line"/>
			<point x="371" y="49" type="line"/>
			<point x="313" y="474" type="line"/>
			<point x="234" y="474" type="line"/>
			<point x="303" y="0" type="line"/>
			<point x="352" y="0" type="line"/>
			<point x="618" y="449" type="line"/>
		</contour>
	</outline>
</glyph>
<glyph name="tse" format="1">
	<unicode hex="0446"/>
	<advance width="562"/>
	<outline>
		<contour>
			<point x="141" y="-13" type="curve" smooth="yes"/>
			<point x="213" y="-13"/>
			<point x="290" y="50"/>
			<point x="389" y="146" type="curve"/>
			<point x="389" y="175" type="line"/>
			<point x="290" y="97"/>
			<point x="243" y="60"/>
			<point x="195" y="60" type="curve" smooth="yes"/>
			<point x="172" y="60"/>
			<point x="157" y="73"/>
			<point x="157" y="102" type="curve" smooth="yes"/>
			<point x="157" y="124"/>
			<point x="161" y="152"/>
			<point x="171" y="193" type="curve" smooth="yes"/>
			<point x="240" y="478" type="line"/>
			<point x="227" y="488" type="line"/>
			<point x="49" y="433" type="line"/>
			<point x="45" y="402" type="line"/>
			<point x="156" y="395" type="line"/>
			<point x="148" y="419" type="line"/>
			<point x="95" y="184" type="line" smooth="yes"/>
			<point x="86" y="144"/>
			<point x="72" y="97"/>
			<point x="72" y="66" type="curve" smooth="yes"/>
			<point x="72" y="5"/>
			<point x="105" y="-13"/>
		</contour>
		<contour>
			<point x="565" y="118" type="curve"/>
			<point x="540" y="138" type="line"/>
			<point x="503" y="90"/>
			<point x="463" y="60"/>
			<point x="438" y="60" type="curve" smooth="yes"/>
			<point x="426" y="60"/>
			<point x="415" y="68"/>
			<point x="415" y="81" type="curve" smooth="yes"/>
			<point x="415" y="93"/>
			<point x="419" y="113"/>
			<point x="424" y="139" type="curve" smooth="yes"/>
			<point x="494" y="477" type="line"/>
			<point x="480" y="487" type="line"/>
			<point x="413" y="467" type="line"/>
			<point x="404" y="416"/>
			<point x="396" y="365"/>
			<point x="385" y="314" type="curve" smooth="yes"/>
			<point x="342" y="111" type="line" smooth="yes"/>
			<point x="333" y="69"/>
			<point x="332" y="52"/>
			<point x="332" y="39" type="curve" smooth="yes"/>
			<point x="332" y="4"/>
			<point x="359" y="-13"/>
			<point x="387" y="-13" type="curve" smooth="yes"/>
			<point x="451" y="-13"/>
			<point x="510" y="43"/>
			<point x="539" y="107" type="curve"/>
			<point x="534" y="111" type="line"/>
			<point x="512" y="57"/>
			<point x="502" y="23"/>
			<point x="475" y="-29" type="curve" smooth="yes"/>
			<point x="452" y="-73"/>
			<point x="424" y="-81"/>
			<point x="326" y="-90" type="curve" smooth="yes"/>
			<point x="240" y="-98"/>
			<point x="215" y="-115"/>
			<point x="184" y="-164" type="curve" smooth="yes"/>
			<point x="170" y="-186"/>
			<point x="162" y="-200"/>
			<point x="155" y="-217" type="curve"/>
			<point x="185" y="-231" type="line"/>
			<point x="194" y="-216" type="line" smooth="yes"/>
			<point x="209" y="-190"/>
			<point x="245" y="-178"/>
			<point x="304" y="-173" type="curve" smooth="yes"/>
			<point x="444" y="-161"/>
			<point x="460" y="-142"/>
			<point x="491" y="-78" type="curve" smooth="yes"/>
			<point x="527" y="-2"/>
			<point x="565" y="117"/>
		</contour>
	</outline>
</glyph>
<glyph name="che" format="1">
	<unicode hex="0447"/>
	<advance width="544"/>
	<outline>
		<contour>
			<point x="98" y="230" type="curve" smooth="yes"/>
			<point x="98" y="185"/>
			<point x="129" y="167"/>
			<point x="170" y="167" type="curve" smooth="yes"/>
			<point x="237" y="167"/>
			<point x="314" y="196"/>
			<point x="409" y="284" type="curve"/>
			<point x="409" y="313" type="line"/>
			<point x="313" y="241"/>
			<point x="265" y="230"/>
			<point x="224" y="230" type="curve" smooth="yes"/>
			<point x="196" y="230"/>
			<point x="181" y="245"/>
			<point x="181" y="265" type="curve" smooth="yes"/>
			<point x="181" y="288"/>
			<point x="189" y="315"/>
			<point x="195" y="339" type="curve" smooth="yes"/>
			<point x="231" y="478" type="line"/>
			<point x="218" y="488" type="line"/>
			<point x="40" y="433" type="line"/>
			<point x="36" y="402" type="line"/>
			<point x="147" y="395" type="line"/>
			<point x="139" y="419" type="line"/>
			<point x="118" y="330" type="line" smooth="yes"/>
			<point x="111" y="299"/>
			<point x="98" y="264"/>
		</contour>
		<contour>
			<point x="314" y="39" type="curve" smooth="yes"/>
			<point x="314" y="4"/>
			<point x="341" y="-13"/>
			<point x="369" y="-13" type="curve" smooth="yes"/>
			<point x="440" y="-13"/>
			<point x="506" y="57"/>
			<point x="547" y="118" type="curve"/>
			<point x="522" y="138" type="line"/>
			<point x="485" y="90"/>
			<point x="445" y="60"/>
			<point x="420" y="60" type="curve" smooth="yes"/>
			<point x="408" y="60"/>
			<point x="397" y="68"/>
			<point x="397" y="81" type="curve" smooth="yes"/>
			<point x="397" y="93"/>
			<point x="400" y="113"/>
			<point x="406" y="139" type="curve" smooth="yes"/>
			<point x="485" y="477" type="line"/>
			<point x="471" y="487" type="line"/>
			<point x="402" y="467" type="line"/>
			<point x="392" y="412"/>
			<point x="383" y="364"/>
			<point x="371" y="313" type="curve" smooth="yes"/>
			<point x="324" y="111" type="line" smooth="yes"/>
			<point x="314" y="69"/>
			<point x="314" y="52"/>
		</contour>
	</outline>
</glyph>
<glyph name="shcha" format="1">
	<unicode hex="0449"/>
	<advance width="786"/>
	<outline>
		<contour>
			<point x="765" y="102" type="line"/>
			<point x="743" y="48"/>
			<point x="732" y="13"/>
			<point x="705" y="-39" type="curve" smooth="yes"/>
			<point x="682" y="-83"/>
			<point x="654" y="-91"/>
			<point x="556" y="-100" type="curve" smooth="yes"/>
			<point x="471" y="-108"/>
			<point x="444" y="-121"/>
			<point x="415" y="-166" type="curve" smooth="yes"/>
			<point x="399" y="-191"/>
			<point x="393" y="-208"/>
			<point x="385" y="-227" type="curve"/>
			<point x="415" y="-241" type="line"/>
			<point x="424" y="-226" type="line" smooth="yes"/>
			<point x="439" y="-200"/>
			<point x="475" y="-188"/>
			<point x="534" y="-183" type="curve" smooth="yes"/>
			<point x="674" y="-171"/>
			<point x="690" y="-152"/>
			<point x="721" y="-88" type="curve" smooth="yes"/>
			<point x="757" y="-11"/>
			<point x="779" y="51"/>
			<point x="796" y="109" type="curve"/>
		</contour>
		<component base="sha"/>
	</outline>
</glyph>
